<?xml version="1.0" encoding="UTF-8" standalone="no"?>
<!DOCTYPE svg PUBLIC "-//W3C//DTD SVG 1.1//EN"
 "http://www.w3.org/Graphics/SVG/1.1/DTD/svg11.dtd">
<!-- Generated by graphviz version 2.43.0 (0)
 -->
<!-- Title: G Pages: 1 -->
<svg width="879pt" height="874pt"
 viewBox="0.00 0.00 879.13 873.75" xmlns="http://www.w3.org/2000/svg" xmlns:xlink="http://www.w3.org/1999/xlink">
<g id="graph0" class="graph" transform="scale(1 1) rotate(0) translate(4 869.75)">
<title>G</title><style>.edge>path:hover{stroke-width:8}</style>
<polygon fill="white" stroke="transparent" points="-4,4 -4,-869.75 875.13,-869.75 875.13,4 -4,4"/>
<!-- cvxpy -->
<g id="node1" class="node">
<title>cvxpy</title><style>.edge>path:hover{stroke-width:8}</style>
<polygon fill="blue" stroke="black" points="832.06,-673.76 829.06,-677.76 808.06,-677.76 805.06,-673.76 778.06,-673.76 778.06,-637.76 832.06,-637.76 832.06,-673.76"/>
<text text-anchor="middle" x="805.06" y="-653.26" font-family="Helvetica,sans-Serif" font-size="10.00" fill="white">cvxpy</text>
</g>
<!-- ncpol3sdpa_solvers_cvxpy_solver -->
<g id="node16" class="node">
<title>ncpol3sdpa_solvers_cvxpy_solver</title><style>.edge>path:hover{stroke-width:8}</style>
<ellipse fill="#2e8a52" stroke="black" cx="465.06" cy="-185.84" rx="57.05" ry="28.98"/>
<text text-anchor="middle" x="465.06" y="-194.34" font-family="Helvetica,sans-Serif" font-size="10.00" fill="#ffffff">ncpol3sdpa.</text>
<text text-anchor="middle" x="465.06" y="-183.34" font-family="Helvetica,sans-Serif" font-size="10.00" fill="#ffffff">solvers.</text>
<text text-anchor="middle" x="465.06" y="-172.34" font-family="Helvetica,sans-Serif" font-size="10.00" fill="#ffffff">cvxpy_solver</text>
</g>
<!-- cvxpy&#45;&gt;ncpol3sdpa_solvers_cvxpy_solver -->
<g id="edge1" class="edge">
<title>cvxpy&#45;&gt;ncpol3sdpa_solvers_cvxpy_solver</title><style>.edge>path:hover{stroke-width:8}</style>
<path fill="none" stroke="black" d="M785.84,-637.63C753.59,-607.4 689.99,-540.92 668.06,-468.79"/>
<path fill="none" stroke="black" d="M668.06,-466.79C650.25,-431.07 628.1,-435.39 605.06,-402.8 561.69,-341.46 575.13,-311.67 531.06,-250.84 522.62,-239.19 511.94,-227.81 501.65,-217.96"/>
<polygon fill="blue" stroke="black" points="503.96,-215.33 494.26,-211.07 499.19,-220.45 503.96,-215.33"/>
</g>
<!-- ncpol3sdpa_sos -->
<g id="node19" class="node">
<title>ncpol3sdpa_sos</title><style>.edge>path:hover{stroke-width:8}</style>
<ellipse fill="#3a8859" stroke="black" cx="668.06" cy="-373.81" rx="54.31" ry="18"/>
<text text-anchor="middle" x="668.06" y="-371.31" font-family="Helvetica,sans-Serif" font-size="10.00" fill="#ffffff">ncpol3sdpa.sos</text>
</g>
<!-- cvxpy&#45;&gt;ncpol3sdpa_sos -->
<g id="edge2" class="edge">
<title>cvxpy&#45;&gt;ncpol3sdpa_sos</title><style>.edge>path:hover{stroke-width:8}</style>
<path fill="none" stroke="black" d="M668.06,-466.79C661.65,-445.72 662.15,-420.65 663.97,-402.01"/>
<polygon fill="blue" stroke="black" points="667.47,-402.2 665.15,-391.86 660.52,-401.39 667.47,-402.2"/>
</g>
<!-- mosek -->
<g id="node2" class="node">
<title>mosek</title><style>.edge>path:hover{stroke-width:8}</style>
<polygon fill="#a6c040" stroke="black" points="832.06,-485.79 829.06,-489.79 808.06,-489.79 805.06,-485.79 778.06,-485.79 778.06,-449.79 832.06,-449.79 832.06,-485.79"/>
<text text-anchor="middle" x="805.06" y="-465.29" font-family="Helvetica,sans-Serif" font-size="10.00" fill="#000000">mosek</text>
</g>
<!-- ncpol3sdpa_solvers_mosek_solver -->
<g id="node17" class="node">
<title>ncpol3sdpa_solvers_mosek_solver</title><style>.edge>path:hover{stroke-width:8}</style>
<ellipse fill="#33995c" stroke="black" cx="638.06" cy="-185.84" rx="60.21" ry="28.98"/>
<text text-anchor="middle" x="638.06" y="-194.34" font-family="Helvetica,sans-Serif" font-size="10.00" fill="#ffffff">ncpol3sdpa.</text>
<text text-anchor="middle" x="638.06" y="-183.34" font-family="Helvetica,sans-Serif" font-size="10.00" fill="#ffffff">solvers.</text>
<text text-anchor="middle" x="638.06" y="-172.34" font-family="Helvetica,sans-Serif" font-size="10.00" fill="#ffffff">mosek_solver</text>
</g>
<!-- mosek&#45;&gt;ncpol3sdpa_solvers_mosek_solver -->
<g id="edge3" class="edge">
<title>mosek&#45;&gt;ncpol3sdpa_solvers_mosek_solver</title><style>.edge>path:hover{stroke-width:8}</style>
<path fill="none" stroke="black" d="M795.32,-449.59C784.63,-430.92 766.75,-400.36 750.06,-374.81"/>
</g>
<!-- ncpol3sdpa_funs -->
<g id="node3" class="node">
<title>ncpol3sdpa_funs</title><style>.edge>path:hover{stroke-width:8}</style>
<ellipse fill="#4cb375" stroke="black" cx="269.06" cy="-561.78" rx="53.07" ry="21.43"/>
<text text-anchor="middle" x="269.06" y="-564.78" font-family="Helvetica,sans-Serif" font-size="10.00" fill="#000000">ncpol3sdpa.</text>
<text text-anchor="middle" x="269.06" y="-553.78" font-family="Helvetica,sans-Serif" font-size="10.00" fill="#000000">funs</text>
</g>
<!-- ncpol3sdpa_problem -->
<g id="node4" class="node">
<title>ncpol3sdpa_problem</title><style>.edge>path:hover{stroke-width:8}</style>
<ellipse fill="#3a8859" stroke="black" cx="450.06" cy="-21.21" rx="53.07" ry="21.43"/>
<text text-anchor="middle" x="450.06" y="-24.21" font-family="Helvetica,sans-Serif" font-size="10.00" fill="#ffffff">ncpol3sdpa.</text>
<text text-anchor="middle" x="450.06" y="-13.21" font-family="Helvetica,sans-Serif" font-size="10.00" fill="#ffffff">problem</text>
</g>
<!-- ncpol3sdpa_resolution -->
<g id="node5" class="node">
<title>ncpol3sdpa_resolution</title><style>.edge>path:hover{stroke-width:8}</style>
<ellipse fill="#38a865" stroke="black" cx="107.06" cy="-99.64" rx="53.07" ry="21.43"/>
<text text-anchor="middle" x="107.06" y="-102.64" font-family="Helvetica,sans-Serif" font-size="10.00" fill="#ffffff">ncpol3sdpa.</text>
<text text-anchor="middle" x="107.06" y="-91.64" font-family="Helvetica,sans-Serif" font-size="10.00" fill="#ffffff">resolution</text>
</g>
<!-- ncpol3sdpa_resolution&#45;&gt;ncpol3sdpa_problem -->
<g id="edge4" class="edge">
<title>ncpol3sdpa_resolution&#45;&gt;ncpol3sdpa_problem</title><style>.edge>path:hover{stroke-width:8}</style>
<path fill="none" stroke="black" d="M152.61,-88.49C215.09,-74.57 327.3,-49.57 394.6,-34.57"/>
<polygon fill="#38a865" stroke="black" points="395.6,-37.93 404.6,-32.34 394.07,-31.1 395.6,-37.93"/>
</g>
<!-- ncpol3sdpa_resolution_algebra -->
<g id="node6" class="node">
<title>ncpol3sdpa_resolution_algebra</title><style>.edge>path:hover{stroke-width:8}</style>
<ellipse fill="#35a160" stroke="black" cx="107.06" cy="-185.84" rx="53.07" ry="28.98"/>
<text text-anchor="middle" x="107.06" y="-194.34" font-family="Helvetica,sans-Serif" font-size="10.00" fill="#ffffff">ncpol3sdpa.</text>
<text text-anchor="middle" x="107.06" y="-183.34" font-family="Helvetica,sans-Serif" font-size="10.00" fill="#ffffff">resolution.</text>
<text text-anchor="middle" x="107.06" y="-172.34" font-family="Helvetica,sans-Serif" font-size="10.00" fill="#ffffff">algebra</text>
</g>
<!-- ncpol3sdpa_resolution_algebra&#45;&gt;ncpol3sdpa_resolution -->
<g id="edge5" class="edge">
<title>ncpol3sdpa_resolution_algebra&#45;&gt;ncpol3sdpa_resolution</title><style>.edge>path:hover{stroke-width:8}</style>
<path fill="none" stroke="black" d="M107.06,-156.81C107.06,-148.6 107.06,-139.58 107.06,-131.23"/>
<polygon fill="#35a160" stroke="black" points="110.56,-131.1 107.06,-121.1 103.56,-131.1 110.56,-131.1"/>
</g>
<!-- ncpol3sdpa_resolution_constraints -->
<g id="node7" class="node">
<title>ncpol3sdpa_resolution_constraints</title><style>.edge>path:hover{stroke-width:8}</style>
<ellipse fill="#26d96e" stroke="black" cx="150.06" cy="-467.79" rx="53.07" ry="28.98"/>
<text text-anchor="middle" x="150.06" y="-476.29" font-family="Helvetica,sans-Serif" font-size="10.00" fill="#000000">ncpol3sdpa.</text>
<text text-anchor="middle" x="150.06" y="-465.29" font-family="Helvetica,sans-Serif" font-size="10.00" fill="#000000">resolution.</text>
<text text-anchor="middle" x="150.06" y="-454.29" font-family="Helvetica,sans-Serif" font-size="10.00" fill="#000000">constraints</text>
</g>
<!-- ncpol3sdpa_resolution_constraints&#45;&gt;ncpol3sdpa_resolution -->
<g id="edge6" class="edge">
<title>ncpol3sdpa_resolution_constraints&#45;&gt;ncpol3sdpa_resolution</title><style>.edge>path:hover{stroke-width:8}</style>
<path fill="none" stroke="black" d="M138.96,-439.33C131.5,-421 121.35,-396.39 112.06,-374.81"/>
<path fill="none" stroke="black" d="M112.06,-372.81C90.44,-322.62 33.82,-356.47 7.06,-308.82 -5.56,-286.35 2.14,-276.13 7.06,-250.84 15.66,-206.61 19.27,-193.8 45.06,-156.85 53.21,-145.17 64.21,-134.2 74.68,-125.1"/>
<polygon fill="#26d96e" stroke="black" points="77.11,-127.63 82.52,-118.53 72.61,-122.26 77.11,-127.63"/>
</g>
<!-- ncpol3sdpa_resolution_constraints&#45;&gt;ncpol3sdpa_resolution_algebra -->
<g id="edge7" class="edge">
<title>ncpol3sdpa_resolution_constraints&#45;&gt;ncpol3sdpa_resolution_algebra</title><style>.edge>path:hover{stroke-width:8}</style>
<path fill="none" stroke="black" d="M112.06,-372.81C94.56,-332.18 155.13,-324.77 150.06,-280.83"/>
<path fill="none" stroke="black" d="M150.06,-278.83C147.76,-258.88 138.99,-238.47 129.97,-221.96"/>
<polygon fill="#26d96e" stroke="black" points="132.97,-220.17 124.97,-213.22 126.9,-223.64 132.97,-220.17"/>
</g>
<!-- ncpol3sdpa_resolution_rules -->
<g id="node9" class="node">
<title>ncpol3sdpa_resolution_rules</title><style>.edge>path:hover{stroke-width:8}</style>
<ellipse fill="#24d069" stroke="black" cx="231.06" cy="-373.81" rx="53.07" ry="28.98"/>
<text text-anchor="middle" x="231.06" y="-382.31" font-family="Helvetica,sans-Serif" font-size="10.00" fill="#000000">ncpol3sdpa.</text>
<text text-anchor="middle" x="231.06" y="-371.31" font-family="Helvetica,sans-Serif" font-size="10.00" fill="#000000">resolution.</text>
<text text-anchor="middle" x="231.06" y="-360.31" font-family="Helvetica,sans-Serif" font-size="10.00" fill="#000000">rules</text>
</g>
<!-- ncpol3sdpa_resolution_constraints&#45;&gt;ncpol3sdpa_resolution_rules -->
<g id="edge8" class="edge">
<title>ncpol3sdpa_resolution_constraints&#45;&gt;ncpol3sdpa_resolution_rules</title><style>.edge>path:hover{stroke-width:8}</style>
<path fill="none" stroke="black" d="M172.62,-441.17C181.66,-430.9 192.2,-418.94 201.81,-408.02"/>
<polygon fill="#26d96e" stroke="black" points="204.63,-410.11 208.62,-400.29 199.38,-405.49 204.63,-410.11"/>
</g>
<!-- ncpol3sdpa_resolution_monomial -->
<g id="node8" class="node">
<title>ncpol3sdpa_resolution_monomial</title><style>.edge>path:hover{stroke-width:8}</style>
<ellipse fill="#40c073" stroke="black" cx="69.06" cy="-279.83" rx="53.07" ry="28.98"/>
<text text-anchor="middle" x="69.06" y="-288.33" font-family="Helvetica,sans-Serif" font-size="10.00" fill="#000000">ncpol3sdpa.</text>
<text text-anchor="middle" x="69.06" y="-277.33" font-family="Helvetica,sans-Serif" font-size="10.00" fill="#000000">resolution.</text>
<text text-anchor="middle" x="69.06" y="-266.33" font-family="Helvetica,sans-Serif" font-size="10.00" fill="#000000">monomial</text>
</g>
<!-- ncpol3sdpa_resolution_monomial&#45;&gt;ncpol3sdpa_resolution_algebra -->
<g id="edge9" class="edge">
<title>ncpol3sdpa_resolution_monomial&#45;&gt;ncpol3sdpa_resolution_algebra</title><style>.edge>path:hover{stroke-width:8}</style>
<path fill="none" stroke="black" d="M80.46,-251.23C84.03,-242.59 88.03,-232.91 91.82,-223.74"/>
<polygon fill="#40c073" stroke="black" points="95.08,-225 95.67,-214.42 88.61,-222.33 95.08,-225"/>
</g>
<!-- ncpol3sdpa_resolution_rules&#45;&gt;ncpol3sdpa_resolution -->
<g id="edge10" class="edge">
<title>ncpol3sdpa_resolution_rules&#45;&gt;ncpol3sdpa_resolution</title><style>.edge>path:hover{stroke-width:8}</style>
<path fill="none" stroke="black" d="M188.06,-278.83C171.46,-241.47 210.48,-221.03 188.06,-186.84"/>
<path fill="none" stroke="black" d="M188.06,-184.84C179.81,-172.27 178.92,-168.2 169.06,-156.85 159.57,-145.93 148.07,-134.99 137.58,-125.71"/>
<polygon fill="#24d069" stroke="black" points="139.64,-122.87 129.79,-118.96 135.05,-128.16 139.64,-122.87"/>
</g>
<!-- ncpol3sdpa_resolution_rules&#45;&gt;ncpol3sdpa_resolution_algebra -->
<g id="edge11" class="edge">
<title>ncpol3sdpa_resolution_rules&#45;&gt;ncpol3sdpa_resolution_algebra</title><style>.edge>path:hover{stroke-width:8}</style>
<path fill="none" stroke="black" d="M217.99,-345.57C209.32,-327.33 197.79,-302.74 188.06,-280.83"/>
<path fill="none" stroke="black" d="M188.06,-278.83C177.8,-255.72 159.61,-234.25 143.07,-217.88"/>
<polygon fill="#24d069" stroke="black" points="145.26,-215.12 135.62,-210.72 140.41,-220.17 145.26,-215.12"/>
</g>
<!-- ncpol3sdpa_resolution_utils -->
<g id="node10" class="node">
<title>ncpol3sdpa_resolution_utils</title><style>.edge>path:hover{stroke-width:8}</style>
<ellipse fill="#31c46c" stroke="black" cx="269.06" cy="-279.83" rx="53.07" ry="28.98"/>
<text text-anchor="middle" x="269.06" y="-288.33" font-family="Helvetica,sans-Serif" font-size="10.00" fill="#000000">ncpol3sdpa.</text>
<text text-anchor="middle" x="269.06" y="-277.33" font-family="Helvetica,sans-Serif" font-size="10.00" fill="#000000">resolution.</text>
<text text-anchor="middle" x="269.06" y="-266.33" font-family="Helvetica,sans-Serif" font-size="10.00" fill="#000000">utils</text>
</g>
<!-- ncpol3sdpa_resolution_rules&#45;&gt;ncpol3sdpa_resolution_utils -->
<g id="edge12" class="edge">
<title>ncpol3sdpa_resolution_rules&#45;&gt;ncpol3sdpa_resolution_utils</title><style>.edge>path:hover{stroke-width:8}</style>
<path fill="none" stroke="black" d="M242.46,-345.21C246.03,-336.57 250.03,-326.89 253.82,-317.72"/>
<polygon fill="#24d069" stroke="black" points="257.08,-318.98 257.67,-308.41 250.61,-316.31 257.08,-318.98"/>
</g>
<!-- ncpol3sdpa_resolution_utils&#45;&gt;ncpol3sdpa_resolution -->
<g id="edge13" class="edge">
<title>ncpol3sdpa_resolution_utils&#45;&gt;ncpol3sdpa_resolution</title><style>.edge>path:hover{stroke-width:8}</style>
<path fill="none" stroke="black" d="M243.93,-254.25C226.77,-236.57 204.28,-211.57 188.06,-186.84"/>
</g>
<!-- ncpol3sdpa_resolution_utils&#45;&gt;ncpol3sdpa_resolution_algebra -->
<g id="edge14" class="edge">
<title>ncpol3sdpa_resolution_utils&#45;&gt;ncpol3sdpa_resolution_algebra</title><style>.edge>path:hover{stroke-width:8}</style>
<path fill="none" stroke="black" d="M233.11,-258.41C209.17,-244.82 177.55,-226.87 151.97,-212.34"/>
<polygon fill="#31c46c" stroke="black" points="153.62,-209.25 143.19,-207.36 150.16,-215.34 153.62,-209.25"/>
</g>
<!-- ncpol3sdpa_sdp_repr -->
<g id="node11" class="node">
<title>ncpol3sdpa_sdp_repr</title><style>.edge>path:hover{stroke-width:8}</style>
<ellipse fill="#05e55f" stroke="black" cx="561.06" cy="-467.79" rx="53.07" ry="21.43"/>
<text text-anchor="middle" x="561.06" y="-470.79" font-family="Helvetica,sans-Serif" font-size="10.00" fill="#000000">ncpol3sdpa.</text>
<text text-anchor="middle" x="561.06" y="-459.79" font-family="Helvetica,sans-Serif" font-size="10.00" fill="#000000">sdp_repr</text>
</g>
<!-- ncpol3sdpa_sdp_repr&#45;&gt;ncpol3sdpa_problem -->
<g id="edge15" class="edge">
<title>ncpol3sdpa_sdp_repr&#45;&gt;ncpol3sdpa_problem</title><style>.edge>path:hover{stroke-width:8}</style>
<path fill="none" stroke="black" d="M518.66,-454.86C482.97,-441.96 436.17,-417.3 426.06,-374.81"/>
<path fill="none" stroke="black" d="M426.06,-372.81C413.79,-321.22 360.18,-332.88 350.06,-280.83"/>
</g>
<!-- ncpol3sdpa_solvers -->
<g id="node15" class="node">
<title>ncpol3sdpa_solvers</title><style>.edge>path:hover{stroke-width:8}</style>
<ellipse fill="#38a865" stroke="black" cx="508.06" cy="-99.64" rx="53.07" ry="21.43"/>
<text text-anchor="middle" x="508.06" y="-102.64" font-family="Helvetica,sans-Serif" font-size="10.00" fill="#ffffff">ncpol3sdpa.</text>
<text text-anchor="middle" x="508.06" y="-91.64" font-family="Helvetica,sans-Serif" font-size="10.00" fill="#ffffff">solvers</text>
</g>
<!-- ncpol3sdpa_sdp_repr&#45;&gt;ncpol3sdpa_solvers -->
<g id="edge16" class="edge">
<title>ncpol3sdpa_sdp_repr&#45;&gt;ncpol3sdpa_solvers</title><style>.edge>path:hover{stroke-width:8}</style>
<path fill="none" stroke="black" d="M426.06,-372.81C413.89,-319.53 504.3,-356.47 531.06,-308.82 563.04,-251.88 538.83,-172.37 521.53,-129.98"/>
<polygon fill="#05e55f" stroke="black" points="524.65,-128.38 517.53,-120.53 518.2,-131.11 524.65,-128.38"/>
</g>
<!-- ncpol3sdpa_sdp_repr&#45;&gt;ncpol3sdpa_solvers_cvxpy_solver -->
<g id="edge17" class="edge">
<title>ncpol3sdpa_sdp_repr&#45;&gt;ncpol3sdpa_solvers_cvxpy_solver</title><style>.edge>path:hover{stroke-width:8}</style>
<path fill="none" stroke="black" d="M426.06,-372.81C416.21,-329.69 377.4,-323.75 388.06,-280.83"/>
</g>
<!-- ncpol3sdpa_sdp_repr&#45;&gt;ncpol3sdpa_solvers_mosek_solver -->
<g id="edge18" class="edge">
<title>ncpol3sdpa_sdp_repr&#45;&gt;ncpol3sdpa_solvers_mosek_solver</title><style>.edge>path:hover{stroke-width:8}</style>
<path fill="none" stroke="black" d="M426.06,-372.81C403.19,-272.68 613.2,-380.48 638.06,-280.83"/>
<path fill="none" stroke="black" d="M638.06,-278.83C642.38,-261.5 642.93,-241.77 642.17,-225.03"/>
<polygon fill="#05e55f" stroke="black" points="645.67,-224.81 641.56,-215.05 638.68,-225.24 645.67,-224.81"/>
</g>
<!-- ncpol3sdpa_solvers_solver -->
<g id="node18" class="node">
<title>ncpol3sdpa_solvers_solver</title><style>.edge>path:hover{stroke-width:8}</style>
<ellipse fill="#31c46c" stroke="black" cx="469.06" cy="-279.83" rx="53.07" ry="28.98"/>
<text text-anchor="middle" x="469.06" y="-288.33" font-family="Helvetica,sans-Serif" font-size="10.00" fill="#000000">ncpol3sdpa.</text>
<text text-anchor="middle" x="469.06" y="-277.33" font-family="Helvetica,sans-Serif" font-size="10.00" fill="#000000">solvers.</text>
<text text-anchor="middle" x="469.06" y="-266.33" font-family="Helvetica,sans-Serif" font-size="10.00" fill="#000000">solver</text>
</g>
<!-- ncpol3sdpa_sdp_repr&#45;&gt;ncpol3sdpa_solvers_solver -->
<g id="edge19" class="edge">
<title>ncpol3sdpa_sdp_repr&#45;&gt;ncpol3sdpa_solvers_solver</title><style>.edge>path:hover{stroke-width:8}</style>
<path fill="none" stroke="black" d="M426.06,-372.81C421.45,-352.61 430.13,-331.58 440.87,-314.73"/>
<polygon fill="#05e55f" stroke="black" points="443.86,-316.55 446.62,-306.32 438.09,-312.6 443.86,-316.55"/>
</g>
<!-- ncpol3sdpa_sdp_repr&#45;&gt;ncpol3sdpa_sos -->
<g id="edge20" class="edge">
<title>ncpol3sdpa_sdp_repr&#45;&gt;ncpol3sdpa_sos</title><style>.edge>path:hover{stroke-width:8}</style>
<path fill="none" stroke="black" d="M582.71,-448.18C599.66,-433.61 623.31,-413.28 641.41,-397.72"/>
<polygon fill="#05e55f" stroke="black" points="644,-400.11 649.3,-390.94 639.43,-394.8 644,-400.11"/>
</g>
<!-- ncpol3sdpa_sdp_repr_eq_constraint -->
<g id="node12" class="node">
<title>ncpol3sdpa_sdp_repr_eq_constraint</title><style>.edge>path:hover{stroke-width:8}</style>
<ellipse fill="#31c46c" stroke="black" cx="475.06" cy="-655.76" rx="58.88" ry="28.98"/>
<text text-anchor="middle" x="475.06" y="-664.26" font-family="Helvetica,sans-Serif" font-size="10.00" fill="#000000">ncpol3sdpa.</text>
<text text-anchor="middle" x="475.06" y="-653.26" font-family="Helvetica,sans-Serif" font-size="10.00" fill="#000000">sdp_repr.</text>
<text text-anchor="middle" x="475.06" y="-642.26" font-family="Helvetica,sans-Serif" font-size="10.00" fill="#000000">eq_constraint</text>
</g>
<!-- ncpol3sdpa_sdp_repr_eq_constraint&#45;&gt;ncpol3sdpa_sdp_repr -->
<g id="edge21" class="edge">
<title>ncpol3sdpa_sdp_repr_eq_constraint&#45;&gt;ncpol3sdpa_sdp_repr</title><style>.edge>path:hover{stroke-width:8}</style>
<path fill="none" stroke="black" d="M474.41,-626.53C474.96,-600.73 478.68,-562.23 494.06,-532.78 502,-517.58 514.95,-503.94 527.36,-493.2"/>
<polygon fill="#31c46c" stroke="black" points="529.9,-495.64 535.38,-486.57 525.44,-490.24 529.9,-495.64"/>
</g>
<!-- ncpol3sdpa_sdp_repr_problem_SDP -->
<g id="node14" class="node">
<title>ncpol3sdpa_sdp_repr_problem_SDP</title><style>.edge>path:hover{stroke-width:8}</style>
<ellipse fill="#38a865" stroke="black" cx="561.06" cy="-561.78" rx="57.97" ry="28.98"/>
<text text-anchor="middle" x="561.06" y="-570.28" font-family="Helvetica,sans-Serif" font-size="10.00" fill="#ffffff">ncpol3sdpa.</text>
<text text-anchor="middle" x="561.06" y="-559.28" font-family="Helvetica,sans-Serif" font-size="10.00" fill="#ffffff">sdp_repr.</text>
<text text-anchor="middle" x="561.06" y="-548.28" font-family="Helvetica,sans-Serif" font-size="10.00" fill="#ffffff">problem_SDP</text>
</g>
<!-- ncpol3sdpa_sdp_repr_eq_constraint&#45;&gt;ncpol3sdpa_sdp_repr_problem_SDP -->
<g id="edge22" class="edge">
<title>ncpol3sdpa_sdp_repr_eq_constraint&#45;&gt;ncpol3sdpa_sdp_repr_problem_SDP</title><style>.edge>path:hover{stroke-width:8}</style>
<path fill="none" stroke="black" d="M499.01,-629.14C508.71,-618.77 520.02,-606.67 530.3,-595.67"/>
<polygon fill="#31c46c" stroke="black" points="532.96,-597.96 537.23,-588.26 527.85,-593.17 532.96,-597.96"/>
</g>
<!-- ncpol3sdpa_sdp_repr_moment_matrix_SDP -->
<g id="node13" class="node">
<title>ncpol3sdpa_sdp_repr_moment_matrix_SDP</title><style>.edge>path:hover{stroke-width:8}</style>
<ellipse fill="#3bce76" stroke="black" cx="675.06" cy="-655.76" rx="84.71" ry="28.98"/>
<text text-anchor="middle" x="675.06" y="-664.26" font-family="Helvetica,sans-Serif" font-size="10.00" fill="#000000">ncpol3sdpa.</text>
<text text-anchor="middle" x="675.06" y="-653.26" font-family="Helvetica,sans-Serif" font-size="10.00" fill="#000000">sdp_repr.</text>
<text text-anchor="middle" x="675.06" y="-642.26" font-family="Helvetica,sans-Serif" font-size="10.00" fill="#000000">moment_matrix_SDP</text>
</g>
<!-- ncpol3sdpa_sdp_repr_moment_matrix_SDP&#45;&gt;ncpol3sdpa_sdp_repr -->
<g id="edge23" class="edge">
<title>ncpol3sdpa_sdp_repr_moment_matrix_SDP&#45;&gt;ncpol3sdpa_sdp_repr</title><style>.edge>path:hover{stroke-width:8}</style>
<path fill="none" stroke="black" d="M668.07,-626.7C660.77,-600.84 647.64,-562.14 628.06,-532.78 618.4,-518.29 604.92,-504.61 592.59,-493.65"/>
<polygon fill="#3bce76" stroke="black" points="594.56,-490.73 584.7,-486.85 589.99,-496.03 594.56,-490.73"/>
</g>
<!-- ncpol3sdpa_sdp_repr_moment_matrix_SDP&#45;&gt;ncpol3sdpa_sdp_repr_problem_SDP -->
<g id="edge24" class="edge">
<title>ncpol3sdpa_sdp_repr_moment_matrix_SDP&#45;&gt;ncpol3sdpa_sdp_repr_problem_SDP</title><style>.edge>path:hover{stroke-width:8}</style>
<path fill="none" stroke="black" d="M643,-628.89C629.35,-617.87 613.32,-604.94 599.07,-593.45"/>
<polygon fill="#3bce76" stroke="black" points="600.9,-590.43 590.92,-586.87 596.51,-595.87 600.9,-590.43"/>
</g>
<!-- ncpol3sdpa_sdp_repr_problem_SDP&#45;&gt;ncpol3sdpa_sdp_repr -->
<g id="edge25" class="edge">
<title>ncpol3sdpa_sdp_repr_problem_SDP&#45;&gt;ncpol3sdpa_sdp_repr</title><style>.edge>path:hover{stroke-width:8}</style>
<path fill="none" stroke="black" d="M561.06,-532.68C561.06,-522.14 561.06,-510.11 561.06,-499.36"/>
<polygon fill="#38a865" stroke="black" points="564.56,-499.13 561.06,-489.13 557.56,-499.13 564.56,-499.13"/>
</g>
<!-- ncpol3sdpa_solvers&#45;&gt;ncpol3sdpa_problem -->
<g id="edge26" class="edge">
<title>ncpol3sdpa_solvers&#45;&gt;ncpol3sdpa_problem</title><style>.edge>path:hover{stroke-width:8}</style>
<path fill="none" stroke="black" d="M493.12,-78.96C486.42,-70.13 478.41,-59.57 471.11,-49.96"/>
<polygon fill="#38a865" stroke="black" points="473.78,-47.68 464.94,-41.83 468.2,-51.91 473.78,-47.68"/>
</g>
<!-- ncpol3sdpa_solvers_cvxpy_solver&#45;&gt;ncpol3sdpa_solvers -->
<g id="edge27" class="edge">
<title>ncpol3sdpa_solvers_cvxpy_solver&#45;&gt;ncpol3sdpa_solvers</title><style>.edge>path:hover{stroke-width:8}</style>
<path fill="none" stroke="black" d="M479.14,-157.27C483.68,-148.37 488.73,-138.49 493.32,-129.5"/>
<polygon fill="#2e8a52" stroke="black" points="496.47,-131.03 497.9,-120.53 490.24,-127.85 496.47,-131.03"/>
</g>
<!-- ncpol3sdpa_solvers_mosek_solver&#45;&gt;ncpol3sdpa_solvers -->
<g id="edge28" class="edge">
<title>ncpol3sdpa_solvers_mosek_solver&#45;&gt;ncpol3sdpa_solvers</title><style>.edge>path:hover{stroke-width:8}</style>
<path fill="none" stroke="black" d="M602.88,-162.06C584.44,-150.12 561.92,-135.53 543.45,-123.57"/>
<polygon fill="#33995c" stroke="black" points="545.31,-120.6 535.02,-118.1 541.51,-126.48 545.31,-120.6"/>
</g>
<!-- ncpol3sdpa_solvers_solver&#45;&gt;ncpol3sdpa_solvers_cvxpy_solver -->
<g id="edge29" class="edge">
<title>ncpol3sdpa_solvers_solver&#45;&gt;ncpol3sdpa_solvers_cvxpy_solver</title><style>.edge>path:hover{stroke-width:8}</style>
<path fill="none" stroke="black" d="M467.84,-250.73C467.49,-242.69 467.1,-233.79 466.73,-225.25"/>
<polygon fill="#31c46c" stroke="black" points="470.22,-224.93 466.29,-215.09 463.22,-225.23 470.22,-224.93"/>
</g>
<!-- ncpol3sdpa_solvers_solver&#45;&gt;ncpol3sdpa_solvers_mosek_solver -->
<g id="edge30" class="edge">
<title>ncpol3sdpa_solvers_solver&#45;&gt;ncpol3sdpa_solvers_mosek_solver</title><style>.edge>path:hover{stroke-width:8}</style>
<path fill="none" stroke="black" d="M505.73,-258.87C530.5,-245.39 563.45,-227.45 590.27,-212.86"/>
<polygon fill="#31c46c" stroke="black" points="592,-215.9 599.11,-208.04 588.65,-209.75 592,-215.9"/>
</g>
<!-- numpy -->
<g id="node20" class="node">
<title>numpy</title><style>.edge>path:hover{stroke-width:8}</style>
<polygon fill="blue" stroke="black" points="589.06,-865.75 586.06,-869.75 565.06,-869.75 562.06,-865.75 535.06,-865.75 535.06,-829.75 589.06,-829.75 589.06,-865.75"/>
<text text-anchor="middle" x="562.06" y="-845.25" font-family="Helvetica,sans-Serif" font-size="10.00" fill="white">numpy</text>
</g>
<!-- numpy&#45;&gt;cvxpy -->
<g id="edge31" class="edge">
<title>numpy&#45;&gt;cvxpy</title><style>.edge>path:hover{stroke-width:8}</style>
<path fill="none" stroke="black" d="M562.06,-737.75C589.83,-646.93 683.79,-726.55 769.06,-684.75 771.88,-683.37 774.7,-681.74 777.44,-679.97"/>
<polygon fill="blue" stroke="black" points="779.71,-682.65 785.85,-674.01 775.67,-676.94 779.71,-682.65"/>
</g>
<!-- numpy&#45;&gt;ncpol3sdpa_problem -->
<g id="edge32" class="edge">
<title>numpy&#45;&gt;ncpol3sdpa_problem</title><style>.edge>path:hover{stroke-width:8}</style>
<path fill="none" stroke="black" d="M860.06,-560.78C840.56,-480.46 860.06,-457.46 860.06,-374.81 860.06,-374.81 860.06,-374.81 860.06,-184.84 860.06,-109.95 620.71,-54.56 507.76,-32.59"/>
<polygon fill="blue" stroke="black" points="508.37,-29.15 497.89,-30.7 507.05,-36.02 508.37,-29.15"/>
</g>
<!-- numpy&#45;&gt;ncpol3sdpa_sdp_repr_eq_constraint -->
<g id="edge33" class="edge">
<title>numpy&#45;&gt;ncpol3sdpa_sdp_repr_eq_constraint</title><style>.edge>path:hover{stroke-width:8}</style>
<path fill="none" stroke="black" d="M562.06,-737.75C569.44,-713.6 549.89,-694.03 527.47,-680.19"/>
<polygon fill="blue" stroke="black" points="529.19,-677.14 518.78,-675.16 525.68,-683.2 529.19,-677.14"/>
</g>
<!-- numpy&#45;&gt;ncpol3sdpa_sdp_repr_problem_SDP -->
<g id="edge34" class="edge">
<title>numpy&#45;&gt;ncpol3sdpa_sdp_repr_problem_SDP</title><style>.edge>path:hover{stroke-width:8}</style>
<path fill="none" stroke="black" d="M562.06,-737.75C575.97,-692.27 572.49,-636.98 567.69,-600.89"/>
<polygon fill="blue" stroke="black" points="571.13,-600.19 566.25,-590.79 564.2,-601.18 571.13,-600.19"/>
</g>
<!-- numpy&#45;&gt;ncpol3sdpa_solvers_cvxpy_solver -->
<g id="edge35" class="edge">
<title>numpy&#45;&gt;ncpol3sdpa_solvers_cvxpy_solver</title><style>.edge>path:hover{stroke-width:8}</style>
<path fill="none" stroke="black" d="M559,-829.61C555.84,-808.08 552.59,-770.27 562.06,-739.75"/>
<path fill="none" stroke="black" d="M562.06,-737.75C587.42,-669.5 453.85,-740.53 407.06,-684.75 371.8,-642.71 388.06,-617.64 388.06,-562.78 388.06,-562.78 388.06,-562.78 388.06,-466.79 388.06,-384.14 368.13,-361.04 388.06,-280.83"/>
<path fill="none" stroke="black" d="M388.06,-278.83C394.3,-255.26 410.94,-234.01 427.15,-217.89"/>
<polygon fill="blue" stroke="black" points="429.71,-220.28 434.54,-210.85 424.88,-215.22 429.71,-220.28"/>
</g>
<!-- numpy&#45;&gt;ncpol3sdpa_solvers_mosek_solver -->
<g id="edge36" class="edge">
<title>numpy&#45;&gt;ncpol3sdpa_solvers_mosek_solver</title><style>.edge>path:hover{stroke-width:8}</style>
<path fill="none" stroke="black" d="M750.06,-466.79C725.72,-433.94 772.42,-409.04 750.06,-374.81"/>
<path fill="none" stroke="black" d="M750.06,-372.81C741.84,-360.22 741.66,-355.48 731.06,-344.82 695.69,-309.23 625.91,-329.51 638.06,-280.83"/>
</g>
<!-- numpy&#45;&gt;ncpol3sdpa_sos -->
<g id="edge37" class="edge">
<title>numpy&#45;&gt;ncpol3sdpa_sos</title><style>.edge>path:hover{stroke-width:8}</style>
<path fill="none" stroke="black" d="M562.06,-737.75C599.96,-617.36 753.3,-775.47 841.06,-684.75 879.2,-645.32 874.41,-615.73 860.06,-562.78"/>
<path fill="none" stroke="black" d="M860.06,-560.78C848.39,-512.73 803.73,-532.03 769.06,-496.78 758.51,-486.06 759.01,-480.87 750.06,-468.79"/>
<path fill="none" stroke="black" d="M750.06,-466.79C731.9,-442.27 708.52,-416.52 691.38,-398.53"/>
<polygon fill="blue" stroke="black" points="693.9,-396.1 684.44,-391.31 688.85,-400.95 693.9,-396.1"/>
</g>
<!-- sympy -->
<g id="node21" class="node">
<title>sympy</title><style>.edge>path:hover{stroke-width:8}</style>
<polygon fill="#c806f9" stroke="black" points="296.06,-756.75 293.06,-760.75 272.06,-760.75 269.06,-756.75 242.06,-756.75 242.06,-720.75 296.06,-720.75 296.06,-756.75"/>
<text text-anchor="middle" x="269.06" y="-736.25" font-family="Helvetica,sans-Serif" font-size="10.00" fill="#ffffff">sympy</text>
</g>
<!-- sympy&#45;&gt;ncpol3sdpa_funs -->
<g id="edge38" class="edge">
<title>sympy&#45;&gt;ncpol3sdpa_funs</title><style>.edge>path:hover{stroke-width:8}</style>
<path fill="none" stroke="black" d="M269.06,-654.76C269.06,-634.3 269.06,-611.27 269.06,-593.38"/>
<polygon fill="#c806f9" stroke="black" points="272.56,-593.23 269.06,-583.23 265.56,-593.23 272.56,-593.23"/>
</g>
<!-- sympy&#45;&gt;ncpol3sdpa_problem -->
<g id="edge39" class="edge">
<title>sympy&#45;&gt;ncpol3sdpa_problem</title><style>.edge>path:hover{stroke-width:8}</style>
<path fill="none" stroke="black" d="M350.06,-372.81C339.07,-333.43 357.86,-320.96 350.06,-280.83"/>
<path fill="none" stroke="black" d="M350.06,-278.83C333.08,-191.56 393.51,-95.7 427.87,-49.75"/>
<polygon fill="#c806f9" stroke="black" points="430.68,-51.84 433.95,-41.77 425.11,-47.6 430.68,-51.84"/>
</g>
<!-- sympy&#45;&gt;ncpol3sdpa_resolution_algebra -->
<g id="edge40" class="edge">
<title>sympy&#45;&gt;ncpol3sdpa_resolution_algebra</title><style>.edge>path:hover{stroke-width:8}</style>
<path fill="none" stroke="black" d="M188.06,-560.78C165.09,-521.93 230.56,-513.92 231.06,-468.79"/>
<path fill="none" stroke="black" d="M231.06,-466.79C231.5,-427.19 188.53,-437.28 169.06,-402.8 142.08,-355.03 156.34,-335.33 150.06,-280.83"/>
</g>
<!-- sympy&#45;&gt;ncpol3sdpa_resolution_constraints -->
<g id="edge41" class="edge">
<title>sympy&#45;&gt;ncpol3sdpa_resolution_constraints</title><style>.edge>path:hover{stroke-width:8}</style>
<path fill="none" stroke="black" d="M188.06,-560.78C177.68,-543.76 168.94,-523.4 162.46,-506.17"/>
<polygon fill="#c806f9" stroke="black" points="165.63,-504.63 158.92,-496.43 159.05,-507.03 165.63,-504.63"/>
</g>
<!-- sympy&#45;&gt;ncpol3sdpa_resolution_monomial -->
<g id="edge42" class="edge">
<title>sympy&#45;&gt;ncpol3sdpa_resolution_monomial</title><style>.edge>path:hover{stroke-width:8}</style>
<path fill="none" stroke="black" d="M269.18,-720.68C269.27,-704.29 269.33,-678.83 269.06,-656.76"/>
<path fill="none" stroke="black" d="M269.06,-654.76C268.57,-615.16 232.05,-621.48 207.06,-590.77 197.57,-579.1 195.89,-575.61 188.06,-562.78"/>
<path fill="none" stroke="black" d="M188.06,-560.78C160.58,-515.73 115.4,-541.91 88.06,-496.78 54.86,-441.98 57.41,-364.57 62.85,-318.85"/>
<polygon fill="#c806f9" stroke="black" points="66.34,-319.13 64.16,-308.76 59.4,-318.23 66.34,-319.13"/>
</g>
<!-- sympy&#45;&gt;ncpol3sdpa_resolution_rules -->
<g id="edge43" class="edge">
<title>sympy&#45;&gt;ncpol3sdpa_resolution_rules</title><style>.edge>path:hover{stroke-width:8}</style>
<path fill="none" stroke="black" d="M231.06,-466.79C231.25,-449.24 231.28,-429.8 231.25,-413.33"/>
<polygon fill="#c806f9" stroke="black" points="234.75,-412.98 231.22,-402.99 227.75,-413 234.75,-412.98"/>
</g>
<!-- sympy&#45;&gt;ncpol3sdpa_resolution_utils -->
<g id="edge44" class="edge">
<title>sympy&#45;&gt;ncpol3sdpa_resolution_utils</title><style>.edge>path:hover{stroke-width:8}</style>
<path fill="none" stroke="black" d="M269.06,-654.76C269.06,-615.16 314.6,-626.78 331.06,-590.77 371.11,-503.13 369.53,-469.17 350.06,-374.81"/>
<path fill="none" stroke="black" d="M350.06,-372.81C343.26,-348.46 325.33,-326.9 308.06,-310.79"/>
<polygon fill="#c806f9" stroke="black" points="310,-307.83 300.21,-303.77 305.34,-313.05 310,-307.83"/>
</g>
</g>
</svg>
