<?xml version="1.0" encoding="UTF-8" standalone="no"?>
<!DOCTYPE svg PUBLIC "-//W3C//DTD SVG 1.1//EN"
 "http://www.w3.org/Graphics/SVG/1.1/DTD/svg11.dtd">
<!-- Generated by graphviz version 2.43.0 (0)
 -->
<!-- Title: G Pages: 1 -->
<svg width="1225pt" height="794pt"
 viewBox="0.00 0.00 1224.89 793.50" xmlns="http://www.w3.org/2000/svg" xmlns:xlink="http://www.w3.org/1999/xlink">
<g id="graph0" class="graph" transform="scale(1 1) rotate(0) translate(4 789.5)">
<title>G</title><style>.edge>path:hover{stroke-width:8}</style>
<polygon fill="white" stroke="transparent" points="-4,4 -4,-789.5 1220.89,-789.5 1220.89,4 -4,4"/>
<!-- ncpol3sdpa -->
<g id="node1" class="node">
<title>ncpol3sdpa</title><style>.edge>path:hover{stroke-width:8}</style>
<polygon fill="blue" stroke="black" points="664.03,-36 592.03,-36 592.03,0 664.03,0 664.03,-36"/>
<text text-anchor="middle" x="628.03" y="-15.5" font-family="Helvetica,sans-Serif" font-size="10.00" fill="white">ncpol3sdpa</text>
</g>
<!-- ncpol3sdpa_algebra_to_SDP -->
<g id="node2" class="node">
<title>ncpol3sdpa_algebra_to_SDP</title><style>.edge>path:hover{stroke-width:8}</style>
<polygon fill="blue" stroke="black" points="679.53,-180 586.53,-180 586.53,-144 679.53,-144 679.53,-180"/>
<text text-anchor="middle" x="633.03" y="-165" font-family="Helvetica,sans-Serif" font-size="10.00" fill="white">ncpol3sdpa.</text>
<text text-anchor="middle" x="633.03" y="-154" font-family="Helvetica,sans-Serif" font-size="10.00" fill="white">algebra_to_SDP</text>
</g>
<!-- ncpol3sdpa_problem -->
<g id="node3" class="node">
<title>ncpol3sdpa_problem</title><style>.edge>path:hover{stroke-width:8}</style>
<polygon fill="blue" stroke="black" points="665.53,-108 590.53,-108 590.53,-72 665.53,-72 665.53,-108"/>
<text text-anchor="middle" x="628.03" y="-93" font-family="Helvetica,sans-Serif" font-size="10.00" fill="white">ncpol3sdpa.</text>
<text text-anchor="middle" x="628.03" y="-82" font-family="Helvetica,sans-Serif" font-size="10.00" fill="white">problem</text>
</g>
<!-- ncpol3sdpa_algebra_to_SDP&#45;&gt;ncpol3sdpa_problem -->
<g id="edge1" class="edge">
<title>ncpol3sdpa_algebra_to_SDP&#45;&gt;ncpol3sdpa_problem</title><style>.edge>path:hover{stroke-width:8}</style>
<path fill="none" stroke="black" d="M631.8,-143.7C631.25,-135.98 630.58,-126.71 629.97,-118.11"/>
<polygon fill="blue" stroke="black" points="633.46,-117.83 629.25,-108.1 626.48,-118.33 633.46,-117.83"/>
</g>
<!-- ncpol3sdpa_problem&#45;&gt;ncpol3sdpa -->
<g id="edge2" class="edge">
<title>ncpol3sdpa_problem&#45;&gt;ncpol3sdpa</title><style>.edge>path:hover{stroke-width:8}</style>
<path fill="none" stroke="black" d="M628.03,-71.7C628.03,-63.98 628.03,-54.71 628.03,-46.11"/>
<polygon fill="blue" stroke="black" points="631.53,-46.1 628.03,-36.1 624.53,-46.1 631.53,-46.1"/>
</g>
<!-- ncpol3sdpa_resolution -->
<g id="node4" class="node">
<title>ncpol3sdpa_resolution</title><style>.edge>path:hover{stroke-width:8}</style>
<polygon fill="blue" stroke="black" points="391.53,-254.5 316.53,-254.5 316.53,-218.5 391.53,-218.5 391.53,-254.5"/>
<text text-anchor="middle" x="354.03" y="-239.5" font-family="Helvetica,sans-Serif" font-size="10.00" fill="white">ncpol3sdpa.</text>
<text text-anchor="middle" x="354.03" y="-228.5" font-family="Helvetica,sans-Serif" font-size="10.00" fill="white">resolution</text>
</g>
<!-- ncpol3sdpa_resolution&#45;&gt;ncpol3sdpa -->
<g id="edge3" class="edge">
<title>ncpol3sdpa_resolution&#45;&gt;ncpol3sdpa</title><style>.edge>path:hover{stroke-width:8}</style>
<path fill="none" stroke="black" d="M391.57,-230.95C436.2,-223.74 510.6,-205.81 558.03,-163"/>
<path fill="none" stroke="black" d="M558.03,-161C588.36,-133.63 561.84,-108.06 581.03,-72 586.52,-61.69 594.4,-51.74 602.15,-43.3"/>
<polygon fill="blue" stroke="black" points="604.75,-45.64 609.15,-36 599.7,-40.8 604.75,-45.64"/>
</g>
<!-- ncpol3sdpa_resolution&#45;&gt;ncpol3sdpa_algebra_to_SDP -->
<g id="edge4" class="edge">
<title>ncpol3sdpa_resolution&#45;&gt;ncpol3sdpa_algebra_to_SDP</title><style>.edge>path:hover{stroke-width:8}</style>
<path fill="none" stroke="black" d="M391.91,-226.13C435.44,-215.3 509.01,-196.8 572.03,-180 573.49,-179.61 574.97,-179.21 576.47,-178.81"/>
<polygon fill="blue" stroke="black" points="577.7,-182.1 586.44,-176.1 575.87,-175.35 577.7,-182.1"/>
</g>
<!-- ncpol3sdpa_resolution&#45;&gt;ncpol3sdpa_problem -->
<g id="edge5" class="edge">
<title>ncpol3sdpa_resolution&#45;&gt;ncpol3sdpa_problem</title><style>.edge>path:hover{stroke-width:8}</style>
<path fill="none" stroke="black" d="M558.03,-161C574.18,-146.43 591.47,-129.15 604.83,-115.41"/>
<polygon fill="blue" stroke="black" points="607.38,-117.81 611.81,-108.18 602.35,-112.94 607.38,-117.81"/>
</g>
<!-- ncpol3sdpa_resolution_algebra -->
<g id="node5" class="node">
<title>ncpol3sdpa_resolution_algebra</title><style>.edge>path:hover{stroke-width:8}</style>
<polygon fill="blue" stroke="black" points="529.53,-488 454.53,-488 454.53,-447 529.53,-447 529.53,-488"/>
<text text-anchor="middle" x="492.03" y="-476" font-family="Helvetica,sans-Serif" font-size="10.00" fill="white">ncpol3sdpa.</text>
<text text-anchor="middle" x="492.03" y="-465" font-family="Helvetica,sans-Serif" font-size="10.00" fill="white">resolution.</text>
<text text-anchor="middle" x="492.03" y="-454" font-family="Helvetica,sans-Serif" font-size="10.00" fill="white">algebra</text>
</g>
<!-- ncpol3sdpa_resolution_algebra&#45;&gt;ncpol3sdpa_resolution -->
<g id="edge6" class="edge">
<title>ncpol3sdpa_resolution_algebra&#45;&gt;ncpol3sdpa_resolution</title><style>.edge>path:hover{stroke-width:8}</style>
<path fill="none" stroke="black" d="M529.92,-448.44C547.59,-438.87 568.17,-425.99 584.03,-411 593.48,-402.08 660.15,-322.65 650.03,-314.5"/>
<path fill="none" stroke="black" d="M650.03,-312.5C577.65,-253.87 465.17,-240.39 401.75,-237.7"/>
<polygon fill="blue" stroke="black" points="401.75,-234.2 391.63,-237.35 401.5,-241.2 401.75,-234.2"/>
</g>
<!-- ncpol3sdpa_resolution_algebra_sdp_complex -->
<g id="node6" class="node">
<title>ncpol3sdpa_resolution_algebra_sdp_complex</title><style>.edge>path:hover{stroke-width:8}</style>
<polygon fill="blue" stroke="black" points="378.53,-411 255.53,-411 255.53,-370 378.53,-370 378.53,-411"/>
<text text-anchor="middle" x="317.03" y="-399" font-family="Helvetica,sans-Serif" font-size="10.00" fill="white">ncpol3sdpa.</text>
<text text-anchor="middle" x="317.03" y="-388" font-family="Helvetica,sans-Serif" font-size="10.00" fill="white">resolution.</text>
<text text-anchor="middle" x="317.03" y="-377" font-family="Helvetica,sans-Serif" font-size="10.00" fill="white">algebra_sdp_complex</text>
</g>
<!-- ncpol3sdpa_resolution_algebra&#45;&gt;ncpol3sdpa_resolution_algebra_sdp_complex -->
<g id="edge7" class="edge">
<title>ncpol3sdpa_resolution_algebra&#45;&gt;ncpol3sdpa_resolution_algebra_sdp_complex</title><style>.edge>path:hover{stroke-width:8}</style>
<path fill="none" stroke="black" d="M454.49,-450.41C430.41,-440.09 398.75,-426.52 371.88,-415.01"/>
<polygon fill="blue" stroke="black" points="373.16,-411.75 362.59,-411.03 370.41,-418.18 373.16,-411.75"/>
</g>
<!-- ncpol3sdpa_resolution_algebra_sdp_nc_complex -->
<g id="node7" class="node">
<title>ncpol3sdpa_resolution_algebra_sdp_nc_complex</title><style>.edge>path:hover{stroke-width:8}</style>
<polygon fill="blue" stroke="black" points="575.03,-411 435.03,-411 435.03,-370 575.03,-370 575.03,-411"/>
<text text-anchor="middle" x="505.03" y="-399" font-family="Helvetica,sans-Serif" font-size="10.00" fill="white">ncpol3sdpa.</text>
<text text-anchor="middle" x="505.03" y="-388" font-family="Helvetica,sans-Serif" font-size="10.00" fill="white">resolution.</text>
<text text-anchor="middle" x="505.03" y="-377" font-family="Helvetica,sans-Serif" font-size="10.00" fill="white">algebra_sdp_nc_complex</text>
</g>
<!-- ncpol3sdpa_resolution_algebra&#45;&gt;ncpol3sdpa_resolution_algebra_sdp_nc_complex -->
<g id="edge8" class="edge">
<title>ncpol3sdpa_resolution_algebra&#45;&gt;ncpol3sdpa_resolution_algebra_sdp_nc_complex</title><style>.edge>path:hover{stroke-width:8}</style>
<path fill="none" stroke="black" d="M495.45,-446.79C496.81,-438.96 498.4,-429.77 499.89,-421.16"/>
<polygon fill="blue" stroke="black" points="503.38,-421.52 501.64,-411.07 496.48,-420.33 503.38,-421.52"/>
</g>
<!-- ncpol3sdpa_resolution_algebra_sdp_nc_real -->
<g id="node8" class="node">
<title>ncpol3sdpa_resolution_algebra_sdp_nc_real</title><style>.edge>path:hover{stroke-width:8}</style>
<polygon fill="blue" stroke="black" points="747.03,-411 631.03,-411 631.03,-370 747.03,-370 747.03,-411"/>
<text text-anchor="middle" x="689.03" y="-399" font-family="Helvetica,sans-Serif" font-size="10.00" fill="white">ncpol3sdpa.</text>
<text text-anchor="middle" x="689.03" y="-388" font-family="Helvetica,sans-Serif" font-size="10.00" fill="white">resolution.</text>
<text text-anchor="middle" x="689.03" y="-377" font-family="Helvetica,sans-Serif" font-size="10.00" fill="white">algebra_sdp_nc_real</text>
</g>
<!-- ncpol3sdpa_resolution_algebra&#45;&gt;ncpol3sdpa_resolution_algebra_sdp_nc_real -->
<g id="edge9" class="edge">
<title>ncpol3sdpa_resolution_algebra&#45;&gt;ncpol3sdpa_resolution_algebra_sdp_nc_real</title><style>.edge>path:hover{stroke-width:8}</style>
<path fill="none" stroke="black" d="M529.55,-452.22C557.27,-441.66 595.62,-427.06 627.76,-414.83"/>
<polygon fill="blue" stroke="black" points="629.42,-417.94 637.52,-411.11 626.93,-411.4 629.42,-417.94"/>
</g>
<!-- ncpol3sdpa_resolution_algebra_sdp_real -->
<g id="node9" class="node">
<title>ncpol3sdpa_resolution_algebra_sdp_real</title><style>.edge>path:hover{stroke-width:8}</style>
<polygon fill="blue" stroke="black" points="237.03,-411 137.03,-411 137.03,-370 237.03,-370 237.03,-411"/>
<text text-anchor="middle" x="187.03" y="-399" font-family="Helvetica,sans-Serif" font-size="10.00" fill="white">ncpol3sdpa.</text>
<text text-anchor="middle" x="187.03" y="-388" font-family="Helvetica,sans-Serif" font-size="10.00" fill="white">resolution.</text>
<text text-anchor="middle" x="187.03" y="-377" font-family="Helvetica,sans-Serif" font-size="10.00" fill="white">algebra_sdp_real</text>
</g>
<!-- ncpol3sdpa_resolution_algebra&#45;&gt;ncpol3sdpa_resolution_algebra_sdp_real -->
<g id="edge10" class="edge">
<title>ncpol3sdpa_resolution_algebra&#45;&gt;ncpol3sdpa_resolution_algebra_sdp_real</title><style>.edge>path:hover{stroke-width:8}</style>
<path fill="none" stroke="black" d="M454.24,-459.16C407.69,-449.87 326.07,-432.72 247.24,-411.21"/>
<polygon fill="blue" stroke="black" points="247.71,-407.71 237.14,-408.43 245.85,-414.46 247.71,-407.71"/>
</g>
<!-- ncpol3sdpa_resolution_create_algebra -->
<g id="node11" class="node">
<title>ncpol3sdpa_resolution_create_algebra</title><style>.edge>path:hover{stroke-width:8}</style>
<polygon fill="blue" stroke="black" points="228.53,-334 139.53,-334 139.53,-293 228.53,-293 228.53,-334"/>
<text text-anchor="middle" x="184.03" y="-322" font-family="Helvetica,sans-Serif" font-size="10.00" fill="white">ncpol3sdpa.</text>
<text text-anchor="middle" x="184.03" y="-311" font-family="Helvetica,sans-Serif" font-size="10.00" fill="white">resolution.</text>
<text text-anchor="middle" x="184.03" y="-300" font-family="Helvetica,sans-Serif" font-size="10.00" fill="white">create_algebra</text>
</g>
<!-- ncpol3sdpa_resolution_algebra&#45;&gt;ncpol3sdpa_resolution_create_algebra -->
<g id="edge11" class="edge">
<title>ncpol3sdpa_resolution_algebra&#45;&gt;ncpol3sdpa_resolution_create_algebra</title><style>.edge>path:hover{stroke-width:8}</style>
<path fill="none" stroke="black" d="M467.34,-446.83C454.69,-436.49 439.23,-423.41 426.03,-411 407.71,-393.77 408.62,-382.9 387.03,-370 341.16,-342.59 281.43,-328.38 238.66,-321.24"/>
<polygon fill="blue" stroke="black" points="239.14,-317.77 228.72,-319.65 238.04,-324.68 239.14,-317.77"/>
</g>
<!-- ncpol3sdpa_resolution_algebra_sdp_complex&#45;&gt;ncpol3sdpa_resolution_create_algebra -->
<g id="edge12" class="edge">
<title>ncpol3sdpa_resolution_algebra_sdp_complex&#45;&gt;ncpol3sdpa_resolution_create_algebra</title><style>.edge>path:hover{stroke-width:8}</style>
<path fill="none" stroke="black" d="M282.44,-369.99C265.79,-360.6 245.64,-349.24 227.93,-339.25"/>
<polygon fill="blue" stroke="black" points="229.35,-336.04 218.92,-334.17 225.91,-342.13 229.35,-336.04"/>
</g>
<!-- ncpol3sdpa_resolution_algebra_sdp_nc_complex&#45;&gt;ncpol3sdpa_resolution_create_algebra -->
<g id="edge13" class="edge">
<title>ncpol3sdpa_resolution_algebra_sdp_nc_complex&#45;&gt;ncpol3sdpa_resolution_create_algebra</title><style>.edge>path:hover{stroke-width:8}</style>
<path fill="none" stroke="black" d="M434.98,-373.13C375.94,-359.34 292.64,-339.88 238.49,-327.22"/>
<polygon fill="blue" stroke="black" points="239.27,-323.81 228.73,-324.94 237.67,-330.63 239.27,-323.81"/>
</g>
<!-- ncpol3sdpa_resolution_algebra_sdp_nc_real&#45;&gt;ncpol3sdpa_resolution_create_algebra -->
<g id="edge14" class="edge">
<title>ncpol3sdpa_resolution_algebra_sdp_nc_real&#45;&gt;ncpol3sdpa_resolution_create_algebra</title><style>.edge>path:hover{stroke-width:8}</style>
<path fill="none" stroke="black" d="M630.8,-378.19C615.6,-375.38 599.22,-372.46 584.03,-370 461.01,-350.05 315.96,-331.05 238.8,-321.29"/>
<polygon fill="blue" stroke="black" points="239.18,-317.81 228.82,-320.04 238.31,-324.76 239.18,-317.81"/>
</g>
<!-- ncpol3sdpa_resolution_algebra_sdp_real&#45;&gt;ncpol3sdpa_resolution_create_algebra -->
<g id="edge15" class="edge">
<title>ncpol3sdpa_resolution_algebra_sdp_real&#45;&gt;ncpol3sdpa_resolution_create_algebra</title><style>.edge>path:hover{stroke-width:8}</style>
<path fill="none" stroke="black" d="M186.24,-369.79C185.93,-361.96 185.56,-352.77 185.22,-344.16"/>
<polygon fill="blue" stroke="black" points="188.71,-343.93 184.82,-334.07 181.72,-344.21 188.71,-343.93"/>
</g>
<!-- ncpol3sdpa_resolution_constraints -->
<g id="node10" class="node">
<title>ncpol3sdpa_resolution_constraints</title><style>.edge>path:hover{stroke-width:8}</style>
<ellipse fill="#cc3333" stroke="black" cx="613.03" cy="-552.99" rx="53.07" ry="28.98"/>
<text text-anchor="middle" x="613.03" y="-561.49" font-family="Helvetica,sans-Serif" font-size="10.00" fill="#ffffff">ncpol3sdpa.</text>
<text text-anchor="middle" x="613.03" y="-550.49" font-family="Helvetica,sans-Serif" font-size="10.00" fill="#ffffff">resolution.</text>
<text text-anchor="middle" x="613.03" y="-539.49" font-family="Helvetica,sans-Serif" font-size="10.00" fill="#ffffff">constraints</text>
</g>
<!-- ncpol3sdpa_resolution_constraints&#45;&gt;ncpol3sdpa_resolution -->
<g id="edge16" class="edge">
<title>ncpol3sdpa_resolution_constraints&#45;&gt;ncpol3sdpa_resolution</title><style>.edge>path:hover{stroke-width:8}</style>
<path fill="none" stroke="black" d="M645.87,-530.2C697.14,-494.86 788.98,-425.58 775.03,-391.5"/>
<path fill="none" stroke="black" d="M775.03,-389.5C762.61,-356.02 717.81,-369.4 650.03,-314.5"/>
</g>
<!-- ncpol3sdpa_resolution_constraints&#45;&gt;ncpol3sdpa_resolution_algebra -->
<g id="edge17" class="edge">
<title>ncpol3sdpa_resolution_constraints&#45;&gt;ncpol3sdpa_resolution_algebra</title><style>.edge>path:hover{stroke-width:8}</style>
<path fill="none" stroke="black" d="M580.92,-529.84C564.95,-518.81 545.55,-505.43 528.96,-493.98"/>
<polygon fill="#cc3333" stroke="black" points="530.79,-490.99 520.57,-488.19 526.81,-496.75 530.79,-490.99"/>
</g>
<!-- ncpol3sdpa_resolution_create_algebra&#45;&gt;ncpol3sdpa_resolution -->
<g id="edge18" class="edge">
<title>ncpol3sdpa_resolution_create_algebra&#45;&gt;ncpol3sdpa_resolution</title><style>.edge>path:hover{stroke-width:8}</style>
<path fill="none" stroke="black" d="M228.25,-292.99C252.51,-282.29 282.56,-269.03 307.21,-258.16"/>
<polygon fill="blue" stroke="black" points="308.63,-261.36 316.37,-254.12 305.81,-254.95 308.63,-261.36"/>
</g>
<!-- ncpol3sdpa_resolution_monomial -->
<g id="node12" class="node">
<title>ncpol3sdpa_resolution_monomial</title><style>.edge>path:hover{stroke-width:8}</style>
<ellipse fill="#c24747" stroke="black" cx="451.03" cy="-552.99" rx="53.07" ry="28.98"/>
<text text-anchor="middle" x="451.03" y="-561.49" font-family="Helvetica,sans-Serif" font-size="10.00" fill="#ffffff">ncpol3sdpa.</text>
<text text-anchor="middle" x="451.03" y="-550.49" font-family="Helvetica,sans-Serif" font-size="10.00" fill="#ffffff">resolution.</text>
<text text-anchor="middle" x="451.03" y="-539.49" font-family="Helvetica,sans-Serif" font-size="10.00" fill="#ffffff">monomial</text>
</g>
<!-- ncpol3sdpa_resolution_monomial&#45;&gt;ncpol3sdpa_resolution_algebra -->
<g id="edge19" class="edge">
<title>ncpol3sdpa_resolution_monomial&#45;&gt;ncpol3sdpa_resolution_algebra</title><style>.edge>path:hover{stroke-width:8}</style>
<path fill="none" stroke="black" d="M464.46,-524.65C468.75,-515.92 473.5,-506.23 477.84,-497.39"/>
<polygon fill="#c24747" stroke="black" points="481.08,-498.74 482.35,-488.22 474.8,-495.66 481.08,-498.74"/>
</g>
<!-- ncpol3sdpa_resolution_rules -->
<g id="node13" class="node">
<title>ncpol3sdpa_resolution_rules</title><style>.edge>path:hover{stroke-width:8}</style>
<polygon fill="blue" stroke="black" points="217.53,-573.49 142.53,-573.49 142.53,-532.49 217.53,-532.49 217.53,-573.49"/>
<text text-anchor="middle" x="180.03" y="-561.49" font-family="Helvetica,sans-Serif" font-size="10.00" fill="white">ncpol3sdpa.</text>
<text text-anchor="middle" x="180.03" y="-550.49" font-family="Helvetica,sans-Serif" font-size="10.00" fill="white">resolution.</text>
<text text-anchor="middle" x="180.03" y="-539.49" font-family="Helvetica,sans-Serif" font-size="10.00" fill="white">rules</text>
</g>
<!-- ncpol3sdpa_resolution_rules&#45;&gt;ncpol3sdpa_resolution -->
<g id="edge20" class="edge">
<title>ncpol3sdpa_resolution_rules&#45;&gt;ncpol3sdpa_resolution</title><style>.edge>path:hover{stroke-width:8}</style>
<path fill="none" stroke="black" d="M161.72,-532.09C136.82,-502.57 96.71,-444.94 109.03,-391.5"/>
<path fill="none" stroke="black" d="M109.03,-389.5C115.29,-346.06 99.44,-324.48 130.03,-293 154.2,-268.13 248.11,-251.52 306.39,-243.37"/>
<polygon fill="blue" stroke="black" points="307.04,-246.81 316.48,-241.99 306.09,-239.87 307.04,-246.81"/>
</g>
<!-- ncpol3sdpa_resolution_rules&#45;&gt;ncpol3sdpa_resolution_algebra -->
<g id="edge21" class="edge">
<title>ncpol3sdpa_resolution_rules&#45;&gt;ncpol3sdpa_resolution_algebra</title><style>.edge>path:hover{stroke-width:8}</style>
<path fill="none" stroke="black" d="M217.67,-541.92C274.47,-526.72 382.08,-497.92 444.31,-481.27"/>
<polygon fill="blue" stroke="black" points="445.51,-484.57 454.27,-478.61 443.7,-477.81 445.51,-484.57"/>
</g>
<!-- ncpol3sdpa_resolution_rules&#45;&gt;ncpol3sdpa_resolution_create_algebra -->
<g id="edge22" class="edge">
<title>ncpol3sdpa_resolution_rules&#45;&gt;ncpol3sdpa_resolution_create_algebra</title><style>.edge>path:hover{stroke-width:8}</style>
<path fill="none" stroke="black" d="M109.03,-389.5C113.61,-369.64 128.26,-352.93 143.4,-340.36"/>
<polygon fill="blue" stroke="black" points="145.6,-343.09 151.32,-334.17 141.29,-337.57 145.6,-343.09"/>
</g>
<!-- ncpol3sdpa_resolution_rules_rules -->
<g id="node14" class="node">
<title>ncpol3sdpa_resolution_rules_rules</title><style>.edge>path:hover{stroke-width:8}</style>
<ellipse fill="#c24747" stroke="black" cx="53.03" cy="-654.75" rx="53.07" ry="36.54"/>
<text text-anchor="middle" x="53.03" y="-668.75" font-family="Helvetica,sans-Serif" font-size="10.00" fill="#ffffff">ncpol3sdpa.</text>
<text text-anchor="middle" x="53.03" y="-657.75" font-family="Helvetica,sans-Serif" font-size="10.00" fill="#ffffff">resolution.</text>
<text text-anchor="middle" x="53.03" y="-646.75" font-family="Helvetica,sans-Serif" font-size="10.00" fill="#ffffff">rules.</text>
<text text-anchor="middle" x="53.03" y="-635.75" font-family="Helvetica,sans-Serif" font-size="10.00" fill="#ffffff">rules</text>
</g>
<!-- ncpol3sdpa_resolution_rules_rules&#45;&gt;ncpol3sdpa_resolution_rules -->
<g id="edge23" class="edge">
<title>ncpol3sdpa_resolution_rules_rules&#45;&gt;ncpol3sdpa_resolution_rules</title><style>.edge>path:hover{stroke-width:8}</style>
<path fill="none" stroke="black" d="M87.74,-626.49C106.21,-611.98 128.8,-594.24 147.01,-579.93"/>
<polygon fill="#c24747" stroke="black" points="149.33,-582.56 155.04,-573.63 145.01,-577.05 149.33,-582.56"/>
</g>
<!-- ncpol3sdpa_resolution_rules_rules_commutative -->
<g id="node15" class="node">
<title>ncpol3sdpa_resolution_rules_rules_commutative</title><style>.edge>path:hover{stroke-width:8}</style>
<polygon fill="blue" stroke="black" points="235.53,-680.75 124.53,-680.75 124.53,-628.75 235.53,-628.75 235.53,-680.75"/>
<text text-anchor="middle" x="180.03" y="-668.75" font-family="Helvetica,sans-Serif" font-size="10.00" fill="white">ncpol3sdpa.</text>
<text text-anchor="middle" x="180.03" y="-657.75" font-family="Helvetica,sans-Serif" font-size="10.00" fill="white">resolution.</text>
<text text-anchor="middle" x="180.03" y="-646.75" font-family="Helvetica,sans-Serif" font-size="10.00" fill="white">rules.</text>
<text text-anchor="middle" x="180.03" y="-635.75" font-family="Helvetica,sans-Serif" font-size="10.00" fill="white">rules_commutative</text>
</g>
<!-- ncpol3sdpa_resolution_rules_rules_commutative&#45;&gt;ncpol3sdpa_resolution_rules -->
<g id="edge24" class="edge">
<title>ncpol3sdpa_resolution_rules_rules_commutative&#45;&gt;ncpol3sdpa_resolution_rules</title><style>.edge>path:hover{stroke-width:8}</style>
<path fill="none" stroke="black" d="M180.03,-628.58C180.03,-614.96 180.03,-598.06 180.03,-583.79"/>
<polygon fill="blue" stroke="black" points="183.53,-583.49 180.03,-573.49 176.53,-583.49 183.53,-583.49"/>
</g>
<!-- ncpol3sdpa_resolution_rules_rules_noncommutative -->
<g id="node16" class="node">
<title>ncpol3sdpa_resolution_rules_rules_noncommutative</title><style>.edge>path:hover{stroke-width:8}</style>
<polygon fill="blue" stroke="black" points="382.53,-680.75 253.53,-680.75 253.53,-628.75 382.53,-628.75 382.53,-680.75"/>
<text text-anchor="middle" x="318.03" y="-668.75" font-family="Helvetica,sans-Serif" font-size="10.00" fill="white">ncpol3sdpa.</text>
<text text-anchor="middle" x="318.03" y="-657.75" font-family="Helvetica,sans-Serif" font-size="10.00" fill="white">resolution.</text>
<text text-anchor="middle" x="318.03" y="-646.75" font-family="Helvetica,sans-Serif" font-size="10.00" fill="white">rules.</text>
<text text-anchor="middle" x="318.03" y="-635.75" font-family="Helvetica,sans-Serif" font-size="10.00" fill="white">rules_noncommutative</text>
</g>
<!-- ncpol3sdpa_resolution_rules_rules_noncommutative&#45;&gt;ncpol3sdpa_resolution_rules -->
<g id="edge25" class="edge">
<title>ncpol3sdpa_resolution_rules_rules_noncommutative&#45;&gt;ncpol3sdpa_resolution_rules</title><style>.edge>path:hover{stroke-width:8}</style>
<path fill="none" stroke="black" d="M283.21,-628.58C262.44,-613.56 236.14,-594.55 215.29,-579.48"/>
<polygon fill="blue" stroke="black" points="217.16,-576.51 207.01,-573.49 213.06,-582.19 217.16,-576.51"/>
</g>
<!-- ncpol3sdpa_resolution_utils -->
<g id="node17" class="node">
<title>ncpol3sdpa_resolution_utils</title><style>.edge>path:hover{stroke-width:8}</style>
<ellipse fill="#f91010" stroke="black" cx="573.03" cy="-654.75" rx="53.07" ry="28.98"/>
<text text-anchor="middle" x="573.03" y="-663.25" font-family="Helvetica,sans-Serif" font-size="10.00" fill="#ffffff">ncpol3sdpa.</text>
<text text-anchor="middle" x="573.03" y="-652.25" font-family="Helvetica,sans-Serif" font-size="10.00" fill="#ffffff">resolution.</text>
<text text-anchor="middle" x="573.03" y="-641.25" font-family="Helvetica,sans-Serif" font-size="10.00" fill="#ffffff">utils</text>
</g>
<!-- ncpol3sdpa_resolution_utils&#45;&gt;ncpol3sdpa_resolution -->
<g id="edge26" class="edge">
<title>ncpol3sdpa_resolution_utils&#45;&gt;ncpol3sdpa_resolution</title><style>.edge>path:hover{stroke-width:8}</style>
<path fill="none" stroke="black" d="M775.03,-466.5C773.52,-433.2 786.63,-422.75 775.03,-391.5"/>
</g>
<!-- ncpol3sdpa_resolution_utils&#45;&gt;ncpol3sdpa_resolution_algebra -->
<g id="edge27" class="edge">
<title>ncpol3sdpa_resolution_utils&#45;&gt;ncpol3sdpa_resolution_algebra</title><style>.edge>path:hover{stroke-width:8}</style>
<path fill="none" stroke="black" d="M561.08,-626.42C546,-591.92 520.16,-532.83 504.73,-497.54"/>
<polygon fill="#f91010" stroke="black" points="507.89,-496.02 500.67,-488.26 501.47,-498.83 507.89,-496.02"/>
</g>
<!-- ncpol3sdpa_resolution_utils&#45;&gt;ncpol3sdpa_resolution_algebra_sdp_complex -->
<g id="edge28" class="edge">
<title>ncpol3sdpa_resolution_utils&#45;&gt;ncpol3sdpa_resolution_algebra_sdp_complex</title><style>.edge>path:hover{stroke-width:8}</style>
<path fill="none" stroke="black" d="M317.03,-466.5C311.83,-452.27 311.36,-435.49 312.39,-421.41"/>
<polygon fill="#f91010" stroke="black" points="315.89,-421.55 313.42,-411.25 308.93,-420.85 315.89,-421.55"/>
</g>
<!-- ncpol3sdpa_resolution_utils&#45;&gt;ncpol3sdpa_resolution_algebra_sdp_nc_complex -->
<g id="edge29" class="edge">
<title>ncpol3sdpa_resolution_utils&#45;&gt;ncpol3sdpa_resolution_algebra_sdp_nc_complex</title><style>.edge>path:hover{stroke-width:8}</style>
<path fill="none" stroke="black" d="M618.89,-640.08C658.15,-625.66 712.16,-598.69 737.03,-553.99"/>
<path fill="none" stroke="black" d="M737.03,-551.99C776.62,-480.84 666.96,-434.42 585.19,-410.61"/>
<polygon fill="#f91010" stroke="black" points="585.95,-407.19 575.37,-407.82 584.03,-413.92 585.95,-407.19"/>
</g>
<!-- ncpol3sdpa_resolution_utils&#45;&gt;ncpol3sdpa_resolution_algebra_sdp_nc_real -->
<g id="edge30" class="edge">
<title>ncpol3sdpa_resolution_utils&#45;&gt;ncpol3sdpa_resolution_algebra_sdp_nc_real</title><style>.edge>path:hover{stroke-width:8}</style>
<path fill="none" stroke="black" d="M737.03,-551.99C757.58,-516.78 776.89,-509.23 775.03,-468.5"/>
<path fill="none" stroke="black" d="M775.03,-466.5C774.07,-445.41 759.01,-428.88 741.75,-416.77"/>
<polygon fill="#f91010" stroke="black" points="743.45,-413.7 733.16,-411.18 739.63,-419.57 743.45,-413.7"/>
</g>
<!-- ncpol3sdpa_resolution_utils&#45;&gt;ncpol3sdpa_resolution_algebra_sdp_real -->
<g id="edge31" class="edge">
<title>ncpol3sdpa_resolution_utils&#45;&gt;ncpol3sdpa_resolution_algebra_sdp_real</title><style>.edge>path:hover{stroke-width:8}</style>
<path fill="none" stroke="black" d="M523.74,-643.53C483.96,-633.31 428.35,-614.34 389.03,-581.98 342.91,-544.02 337.55,-524.6 317.03,-468.5"/>
<path fill="none" stroke="black" d="M317.03,-466.5C299.97,-441.9 272.04,-424.28 246.43,-412.32"/>
<polygon fill="#f91010" stroke="black" points="247.69,-409.05 237.13,-408.17 244.84,-415.44 247.69,-409.05"/>
</g>
<!-- ncpol3sdpa_resolution_utils&#45;&gt;ncpol3sdpa_resolution_constraints -->
<g id="edge32" class="edge">
<title>ncpol3sdpa_resolution_utils&#45;&gt;ncpol3sdpa_resolution_constraints</title><style>.edge>path:hover{stroke-width:8}</style>
<path fill="none" stroke="black" d="M584.07,-626.23C588.44,-615.32 593.53,-602.62 598.22,-590.94"/>
<polygon fill="#f91010" stroke="black" points="601.56,-592.01 602.03,-581.43 595.06,-589.4 601.56,-592.01"/>
</g>
<!-- ncpol3sdpa_sdp_repr -->
<g id="node18" class="node">
<title>ncpol3sdpa_sdp_repr</title><style>.edge>path:hover{stroke-width:8}</style>
<ellipse fill="#db0505" stroke="black" cx="920.03" cy="-552.99" rx="53.07" ry="21.43"/>
<text text-anchor="middle" x="920.03" y="-555.99" font-family="Helvetica,sans-Serif" font-size="10.00" fill="#ffffff">ncpol3sdpa.</text>
<text text-anchor="middle" x="920.03" y="-544.99" font-family="Helvetica,sans-Serif" font-size="10.00" fill="#ffffff">sdp_repr</text>
</g>
<!-- ncpol3sdpa_sdp_repr&#45;&gt;ncpol3sdpa_algebra_to_SDP -->
<g id="edge33" class="edge">
<title>ncpol3sdpa_sdp_repr&#45;&gt;ncpol3sdpa_algebra_to_SDP</title><style>.edge>path:hover{stroke-width:8}</style>
<path fill="none" stroke="black" d="M907.13,-532.39C897.21,-516.07 884.33,-491.8 879.03,-468.5"/>
<path fill="none" stroke="black" d="M879.03,-466.5C875.78,-452.2 799.15,-380.62 789.03,-370 765.3,-345.08 744.68,-347.54 735.03,-314.5"/>
<path fill="none" stroke="black" d="M735.03,-312.5C721.09,-262.95 683.22,-215.59 657.76,-187.92"/>
<polygon fill="#db0505" stroke="black" points="660.01,-185.2 650.61,-180.31 654.91,-190 660.01,-185.2"/>
</g>
<!-- ncpol3sdpa_solvers_cvxpy_solver -->
<g id="node24" class="node">
<title>ncpol3sdpa_solvers_cvxpy_solver</title><style>.edge>path:hover{stroke-width:8}</style>
<polygon fill="blue" stroke="black" points="985.53,-334 904.53,-334 904.53,-293 985.53,-293 985.53,-334"/>
<text text-anchor="middle" x="945.03" y="-322" font-family="Helvetica,sans-Serif" font-size="10.00" fill="white">ncpol3sdpa.</text>
<text text-anchor="middle" x="945.03" y="-311" font-family="Helvetica,sans-Serif" font-size="10.00" fill="white">solvers.</text>
<text text-anchor="middle" x="945.03" y="-300" font-family="Helvetica,sans-Serif" font-size="10.00" fill="white">cvxpy_solver</text>
</g>
<!-- ncpol3sdpa_sdp_repr&#45;&gt;ncpol3sdpa_solvers_cvxpy_solver -->
<g id="edge34" class="edge">
<title>ncpol3sdpa_sdp_repr&#45;&gt;ncpol3sdpa_solvers_cvxpy_solver</title><style>.edge>path:hover{stroke-width:8}</style>
<path fill="none" stroke="black" d="M945.03,-389.5C945.98,-374.74 946.09,-358.3 945.91,-344.59"/>
<polygon fill="#db0505" stroke="black" points="949.41,-344.19 945.72,-334.26 942.41,-344.32 949.41,-344.19"/>
</g>
<!-- ncpol3sdpa_solvers_mosek_solver -->
<g id="node25" class="node">
<title>ncpol3sdpa_solvers_mosek_solver</title><style>.edge>path:hover{stroke-width:8}</style>
<polygon fill="blue" stroke="black" points="886.53,-334 801.53,-334 801.53,-293 886.53,-293 886.53,-334"/>
<text text-anchor="middle" x="844.03" y="-322" font-family="Helvetica,sans-Serif" font-size="10.00" fill="white">ncpol3sdpa.</text>
<text text-anchor="middle" x="844.03" y="-311" font-family="Helvetica,sans-Serif" font-size="10.00" fill="white">solvers.</text>
<text text-anchor="middle" x="844.03" y="-300" font-family="Helvetica,sans-Serif" font-size="10.00" fill="white">mosek_solver</text>
</g>
<!-- ncpol3sdpa_sdp_repr&#45;&gt;ncpol3sdpa_solvers_mosek_solver -->
<g id="edge35" class="edge">
<title>ncpol3sdpa_sdp_repr&#45;&gt;ncpol3sdpa_solvers_mosek_solver</title><style>.edge>path:hover{stroke-width:8}</style>
<path fill="none" stroke="black" d="M879.03,-466.5C869.19,-423.2 942.19,-435.81 945.03,-391.5"/>
<path fill="none" stroke="black" d="M945.03,-389.5C945.98,-374.81 917.94,-354.81 891.17,-339.15"/>
<polygon fill="#db0505" stroke="black" points="892.6,-335.94 882.18,-334.02 889.13,-342.02 892.6,-335.94"/>
</g>
<!-- ncpol3sdpa_solvers_solver -->
<g id="node26" class="node">
<title>ncpol3sdpa_solvers_solver</title><style>.edge>path:hover{stroke-width:8}</style>
<polygon fill="blue" stroke="black" points="916.53,-411 841.53,-411 841.53,-370 916.53,-370 916.53,-411"/>
<text text-anchor="middle" x="879.03" y="-399" font-family="Helvetica,sans-Serif" font-size="10.00" fill="white">ncpol3sdpa.</text>
<text text-anchor="middle" x="879.03" y="-388" font-family="Helvetica,sans-Serif" font-size="10.00" fill="white">solvers.</text>
<text text-anchor="middle" x="879.03" y="-377" font-family="Helvetica,sans-Serif" font-size="10.00" fill="white">solver</text>
</g>
<!-- ncpol3sdpa_sdp_repr&#45;&gt;ncpol3sdpa_solvers_solver -->
<g id="edge36" class="edge">
<title>ncpol3sdpa_sdp_repr&#45;&gt;ncpol3sdpa_solvers_solver</title><style>.edge>path:hover{stroke-width:8}</style>
<path fill="none" stroke="black" d="M879.03,-466.5C875.7,-451.83 875.37,-435.12 876.02,-421.21"/>
<polygon fill="#db0505" stroke="black" points="879.52,-421.4 876.67,-411.19 872.53,-420.94 879.52,-421.4"/>
</g>
<!-- ncpol3sdpa_solvers_solver_registry -->
<g id="node27" class="node">
<title>ncpol3sdpa_solvers_solver_registry</title><style>.edge>path:hover{stroke-width:8}</style>
<polygon fill="blue" stroke="black" points="852.53,-257 763.53,-257 763.53,-216 852.53,-216 852.53,-257"/>
<text text-anchor="middle" x="808.03" y="-245" font-family="Helvetica,sans-Serif" font-size="10.00" fill="white">ncpol3sdpa.</text>
<text text-anchor="middle" x="808.03" y="-234" font-family="Helvetica,sans-Serif" font-size="10.00" fill="white">solvers.</text>
<text text-anchor="middle" x="808.03" y="-223" font-family="Helvetica,sans-Serif" font-size="10.00" fill="white">solver_registry</text>
</g>
<!-- ncpol3sdpa_sdp_repr&#45;&gt;ncpol3sdpa_solvers_solver_registry -->
<g id="edge37" class="edge">
<title>ncpol3sdpa_sdp_repr&#45;&gt;ncpol3sdpa_solvers_solver_registry</title><style>.edge>path:hover{stroke-width:8}</style>
<path fill="none" stroke="black" d="M735.03,-312.5C729.25,-292.71 742.93,-275.74 759.95,-262.96"/>
<polygon fill="#db0505" stroke="black" points="762.28,-265.61 768.51,-257.04 758.3,-259.86 762.28,-265.61"/>
</g>
<!-- ncpol3sdpa_sos -->
<g id="node28" class="node">
<title>ncpol3sdpa_sos</title><style>.edge>path:hover{stroke-width:8}</style>
<ellipse fill="#ac4949" stroke="black" cx="961.03" cy="-467.5" rx="54.31" ry="18"/>
<text text-anchor="middle" x="961.03" y="-465" font-family="Helvetica,sans-Serif" font-size="10.00" fill="#ffffff">ncpol3sdpa.sos</text>
</g>
<!-- ncpol3sdpa_sdp_repr&#45;&gt;ncpol3sdpa_sos -->
<g id="edge38" class="edge">
<title>ncpol3sdpa_sdp_repr&#45;&gt;ncpol3sdpa_sos</title><style>.edge>path:hover{stroke-width:8}</style>
<path fill="none" stroke="black" d="M929.96,-531.78C935.46,-520.58 942.35,-506.54 948.25,-494.53"/>
<polygon fill="#db0505" stroke="black" points="951.45,-495.95 952.72,-485.43 945.17,-492.86 951.45,-495.95"/>
</g>
<!-- ncpol3sdpa_sdp_repr_eq_constraint -->
<g id="node19" class="node">
<title>ncpol3sdpa_sdp_repr_eq_constraint</title><style>.edge>path:hover{stroke-width:8}</style>
<ellipse fill="#ce3b3b" stroke="black" cx="734.03" cy="-756.51" rx="58.88" ry="28.98"/>
<text text-anchor="middle" x="734.03" y="-765.01" font-family="Helvetica,sans-Serif" font-size="10.00" fill="#ffffff">ncpol3sdpa.</text>
<text text-anchor="middle" x="734.03" y="-754.01" font-family="Helvetica,sans-Serif" font-size="10.00" fill="#ffffff">sdp_repr.</text>
<text text-anchor="middle" x="734.03" y="-743.01" font-family="Helvetica,sans-Serif" font-size="10.00" fill="#ffffff">eq_constraint</text>
</g>
<!-- ncpol3sdpa_sdp_repr_eq_constraint&#45;&gt;ncpol3sdpa_sdp_repr -->
<g id="edge39" class="edge">
<title>ncpol3sdpa_sdp_repr_eq_constraint&#45;&gt;ncpol3sdpa_sdp_repr</title><style>.edge>path:hover{stroke-width:8}</style>
<path fill="none" stroke="black" d="M755.47,-729.27C778.77,-701.1 817.44,-655.37 853.03,-617.98 865.32,-605.08 879.51,-591.37 891.66,-579.96"/>
<polygon fill="#ce3b3b" stroke="black" points="894.39,-582.2 899.31,-572.82 889.61,-577.08 894.39,-582.2"/>
</g>
<!-- ncpol3sdpa_sdp_repr_problem_SDP -->
<g id="node22" class="node">
<title>ncpol3sdpa_sdp_repr_problem_SDP</title><style>.edge>path:hover{stroke-width:8}</style>
<ellipse fill="#b03a3a" stroke="black" cx="920.03" cy="-654.75" rx="57.97" ry="28.98"/>
<text text-anchor="middle" x="920.03" y="-663.25" font-family="Helvetica,sans-Serif" font-size="10.00" fill="#ffffff">ncpol3sdpa.</text>
<text text-anchor="middle" x="920.03" y="-652.25" font-family="Helvetica,sans-Serif" font-size="10.00" fill="#ffffff">sdp_repr.</text>
<text text-anchor="middle" x="920.03" y="-641.25" font-family="Helvetica,sans-Serif" font-size="10.00" fill="#ffffff">problem_SDP</text>
</g>
<!-- ncpol3sdpa_sdp_repr_eq_constraint&#45;&gt;ncpol3sdpa_sdp_repr_problem_SDP -->
<g id="edge40" class="edge">
<title>ncpol3sdpa_sdp_repr_eq_constraint&#45;&gt;ncpol3sdpa_sdp_repr_problem_SDP</title><style>.edge>path:hover{stroke-width:8}</style>
<path fill="none" stroke="black" d="M773.02,-734.6C802.01,-719.05 841.72,-697.76 872.56,-681.22"/>
<polygon fill="#ce3b3b" stroke="black" points="874.25,-684.28 881.41,-676.47 870.94,-678.11 874.25,-684.28"/>
</g>
<!-- ncpol3sdpa_sdp_repr_inequality_scalar_constraint -->
<g id="node20" class="node">
<title>ncpol3sdpa_sdp_repr_inequality_scalar_constraint</title><style>.edge>path:hover{stroke-width:8}</style>
<ellipse fill="#ce3b3b" stroke="black" cx="920.03" cy="-756.51" rx="108.79" ry="28.98"/>
<text text-anchor="middle" x="920.03" y="-765.01" font-family="Helvetica,sans-Serif" font-size="10.00" fill="#ffffff">ncpol3sdpa.</text>
<text text-anchor="middle" x="920.03" y="-754.01" font-family="Helvetica,sans-Serif" font-size="10.00" fill="#ffffff">sdp_repr.</text>
<text text-anchor="middle" x="920.03" y="-743.01" font-family="Helvetica,sans-Serif" font-size="10.00" fill="#ffffff">inequality_scalar_constraint</text>
</g>
<!-- ncpol3sdpa_sdp_repr_inequality_scalar_constraint&#45;&gt;ncpol3sdpa_sdp_repr -->
<g id="edge41" class="edge">
<title>ncpol3sdpa_sdp_repr_inequality_scalar_constraint&#45;&gt;ncpol3sdpa_sdp_repr</title><style>.edge>path:hover{stroke-width:8}</style>
<path fill="none" stroke="black" d="M998.26,-736.06C1040.04,-720.85 1080.71,-695.48 1069.03,-655.75"/>
<path fill="none" stroke="black" d="M1069.03,-653.75C1056.26,-610.3 1009.87,-584.01 972.21,-569.42"/>
<polygon fill="#ce3b3b" stroke="black" points="972.95,-565.96 962.35,-565.78 970.52,-572.53 972.95,-565.96"/>
</g>
<!-- ncpol3sdpa_sdp_repr_inequality_scalar_constraint&#45;&gt;ncpol3sdpa_sdp_repr_problem_SDP -->
<g id="edge42" class="edge">
<title>ncpol3sdpa_sdp_repr_inequality_scalar_constraint&#45;&gt;ncpol3sdpa_sdp_repr_problem_SDP</title><style>.edge>path:hover{stroke-width:8}</style>
<path fill="none" stroke="black" d="M920.03,-727.46C920.03,-717.15 920.03,-705.3 920.03,-694.23"/>
<polygon fill="#ce3b3b" stroke="black" points="923.53,-693.94 920.03,-683.94 916.53,-693.94 923.53,-693.94"/>
</g>
<!-- ncpol3sdpa_sdp_repr_moment_matrix_SDP -->
<g id="node21" class="node">
<title>ncpol3sdpa_sdp_repr_moment_matrix_SDP</title><style>.edge>path:hover{stroke-width:8}</style>
<ellipse fill="#ce3b3b" stroke="black" cx="1132.03" cy="-756.51" rx="84.71" ry="28.98"/>
<text text-anchor="middle" x="1132.03" y="-765.01" font-family="Helvetica,sans-Serif" font-size="10.00" fill="#ffffff">ncpol3sdpa.</text>
<text text-anchor="middle" x="1132.03" y="-754.01" font-family="Helvetica,sans-Serif" font-size="10.00" fill="#ffffff">sdp_repr.</text>
<text text-anchor="middle" x="1132.03" y="-743.01" font-family="Helvetica,sans-Serif" font-size="10.00" fill="#ffffff">moment_matrix_SDP</text>
</g>
<!-- ncpol3sdpa_sdp_repr_moment_matrix_SDP&#45;&gt;ncpol3sdpa_sdp_repr -->
<g id="edge43" class="edge">
<title>ncpol3sdpa_sdp_repr_moment_matrix_SDP&#45;&gt;ncpol3sdpa_sdp_repr</title><style>.edge>path:hover{stroke-width:8}</style>
<path fill="none" stroke="black" d="M1108.98,-728.34C1094.43,-709.35 1076.95,-682.68 1069.03,-655.75"/>
</g>
<!-- ncpol3sdpa_sdp_repr_moment_matrix_SDP&#45;&gt;ncpol3sdpa_sdp_repr_problem_SDP -->
<g id="edge44" class="edge">
<title>ncpol3sdpa_sdp_repr_moment_matrix_SDP&#45;&gt;ncpol3sdpa_sdp_repr_problem_SDP</title><style>.edge>path:hover{stroke-width:8}</style>
<path fill="none" stroke="black" d="M1083.4,-732.63C1049.65,-716.75 1004.81,-695.64 970.64,-679.57"/>
<polygon fill="#ce3b3b" stroke="black" points="971.84,-676.26 961.3,-675.17 968.86,-682.6 971.84,-676.26"/>
</g>
<!-- ncpol3sdpa_sdp_repr_problem_SDP&#45;&gt;ncpol3sdpa_sdp_repr -->
<g id="edge45" class="edge">
<title>ncpol3sdpa_sdp_repr_problem_SDP&#45;&gt;ncpol3sdpa_sdp_repr</title><style>.edge>path:hover{stroke-width:8}</style>
<path fill="none" stroke="black" d="M920.03,-625.7C920.03,-612.78 920.03,-597.44 920.03,-584.26"/>
<polygon fill="#b03a3a" stroke="black" points="923.53,-584.25 920.03,-574.25 916.53,-584.25 923.53,-584.25"/>
</g>
<!-- ncpol3sdpa_solvers -->
<g id="node23" class="node">
<title>ncpol3sdpa_solvers</title><style>.edge>path:hover{stroke-width:8}</style>
<polygon fill="blue" stroke="black" points="772.53,-180 697.53,-180 697.53,-144 772.53,-144 772.53,-180"/>
<text text-anchor="middle" x="735.03" y="-165" font-family="Helvetica,sans-Serif" font-size="10.00" fill="white">ncpol3sdpa.</text>
<text text-anchor="middle" x="735.03" y="-154" font-family="Helvetica,sans-Serif" font-size="10.00" fill="white">solvers</text>
</g>
<!-- ncpol3sdpa_solvers&#45;&gt;ncpol3sdpa -->
<g id="edge46" class="edge">
<title>ncpol3sdpa_solvers&#45;&gt;ncpol3sdpa</title><style>.edge>path:hover{stroke-width:8}</style>
<path fill="none" stroke="black" d="M724.12,-143.86C712.33,-125.64 692.7,-96.16 674.03,-72 666.73,-62.55 658.28,-52.57 650.63,-43.85"/>
<polygon fill="blue" stroke="black" points="653.14,-41.4 643.88,-36.24 647.9,-46.05 653.14,-41.4"/>
</g>
<!-- ncpol3sdpa_solvers&#45;&gt;ncpol3sdpa_problem -->
<g id="edge47" class="edge">
<title>ncpol3sdpa_solvers&#45;&gt;ncpol3sdpa_problem</title><style>.edge>path:hover{stroke-width:8}</style>
<path fill="none" stroke="black" d="M708.86,-143.88C695,-134.81 677.79,-123.55 662.82,-113.76"/>
<polygon fill="blue" stroke="black" points="664.59,-110.74 654.31,-108.19 660.76,-116.59 664.59,-110.74"/>
</g>
<!-- ncpol3sdpa_solvers_cvxpy_solver&#45;&gt;ncpol3sdpa_solvers_solver_registry -->
<g id="edge48" class="edge">
<title>ncpol3sdpa_solvers_cvxpy_solver&#45;&gt;ncpol3sdpa_solvers_solver_registry</title><style>.edge>path:hover{stroke-width:8}</style>
<path fill="none" stroke="black" d="M909.4,-292.99C892.09,-283.52 871.12,-272.03 852.75,-261.98"/>
<polygon fill="blue" stroke="black" points="854.42,-258.9 843.97,-257.17 851.06,-265.04 854.42,-258.9"/>
</g>
<!-- ncpol3sdpa_solvers_mosek_solver&#45;&gt;ncpol3sdpa_solvers_solver_registry -->
<g id="edge49" class="edge">
<title>ncpol3sdpa_solvers_mosek_solver&#45;&gt;ncpol3sdpa_solvers_solver_registry</title><style>.edge>path:hover{stroke-width:8}</style>
<path fill="none" stroke="black" d="M834.57,-292.79C830.69,-284.7 826.11,-275.16 821.86,-266.31"/>
<polygon fill="blue" stroke="black" points="824.91,-264.57 817.43,-257.07 818.6,-267.6 824.91,-264.57"/>
</g>
<!-- ncpol3sdpa_solvers_solver&#45;&gt;ncpol3sdpa_solvers -->
<g id="edge50" class="edge">
<title>ncpol3sdpa_solvers_solver&#45;&gt;ncpol3sdpa_solvers</title><style>.edge>path:hover{stroke-width:8}</style>
<path fill="none" stroke="black" d="M841.41,-373.96C817.1,-361.72 787.43,-342.08 773.03,-314.5"/>
<path fill="none" stroke="black" d="M773.03,-312.5C752.31,-272.79 742.44,-221.14 738.09,-190.11"/>
<polygon fill="blue" stroke="black" points="741.54,-189.51 736.78,-180.05 734.6,-190.42 741.54,-189.51"/>
</g>
<!-- ncpol3sdpa_solvers_solver&#45;&gt;ncpol3sdpa_solvers_cvxpy_solver -->
<g id="edge51" class="edge">
<title>ncpol3sdpa_solvers_solver&#45;&gt;ncpol3sdpa_solvers_cvxpy_solver</title><style>.edge>path:hover{stroke-width:8}</style>
<path fill="none" stroke="black" d="M896.37,-369.79C903.95,-361.18 912.97,-350.94 921.16,-341.62"/>
<polygon fill="blue" stroke="black" points="923.83,-343.89 927.81,-334.07 918.57,-339.27 923.83,-343.89"/>
</g>
<!-- ncpol3sdpa_solvers_solver&#45;&gt;ncpol3sdpa_solvers_mosek_solver -->
<g id="edge52" class="edge">
<title>ncpol3sdpa_solvers_solver&#45;&gt;ncpol3sdpa_solvers_mosek_solver</title><style>.edge>path:hover{stroke-width:8}</style>
<path fill="none" stroke="black" d="M869.84,-369.79C866.06,-361.7 861.61,-352.16 857.48,-343.31"/>
<polygon fill="blue" stroke="black" points="860.57,-341.66 853.17,-334.07 854.22,-344.62 860.57,-341.66"/>
</g>
<!-- ncpol3sdpa_solvers_solver&#45;&gt;ncpol3sdpa_solvers_solver_registry -->
<g id="edge53" class="edge">
<title>ncpol3sdpa_solvers_solver&#45;&gt;ncpol3sdpa_solvers_solver_registry</title><style>.edge>path:hover{stroke-width:8}</style>
<path fill="none" stroke="black" d="M773.03,-312.5C764.97,-297.06 772.39,-279.43 782.44,-265.14"/>
<polygon fill="blue" stroke="black" points="785.25,-267.22 788.56,-257.16 779.7,-262.96 785.25,-267.22"/>
</g>
<!-- ncpol3sdpa_solvers_solver_registry&#45;&gt;ncpol3sdpa_solvers -->
<g id="edge54" class="edge">
<title>ncpol3sdpa_solvers_solver_registry&#45;&gt;ncpol3sdpa_solvers</title><style>.edge>path:hover{stroke-width:8}</style>
<path fill="none" stroke="black" d="M788.09,-215.69C779.29,-206.96 768.87,-196.61 759.6,-187.4"/>
<polygon fill="blue" stroke="black" points="762.03,-184.88 752.47,-180.32 757.1,-189.85 762.03,-184.88"/>
</g>
</g>
</svg>
