<?xml version="1.0" encoding="UTF-8" standalone="no"?>
<!DOCTYPE svg PUBLIC "-//W3C//DTD SVG 1.1//EN"
 "http://www.w3.org/Graphics/SVG/1.1/DTD/svg11.dtd">
<!-- Generated by graphviz version 2.43.0 (0)
 -->
<!-- Title: G Pages: 1 -->
<svg width="598pt" height="430pt"
 viewBox="0.00 0.00 598.46 429.71" xmlns="http://www.w3.org/2000/svg" xmlns:xlink="http://www.w3.org/1999/xlink">
<g id="graph0" class="graph" transform="scale(1 1) rotate(0) translate(4 425.71)">
<title>G</title><style>.edge>path:hover{stroke-width:8}</style>
<polygon fill="white" stroke="transparent" points="-4,4 -4,-425.71 594.46,-425.71 594.46,4 -4,4"/>
<!-- cvxpy -->
<g id="node1" class="node">
<title>cvxpy</title><style>.edge>path:hover{stroke-width:8}</style>
<polygon fill="#c04040" stroke="black" points="475.31,-274.49 472.31,-278.49 451.31,-278.49 448.31,-274.49 421.31,-274.49 421.31,-238.49 475.31,-238.49 475.31,-274.49"/>
<text text-anchor="middle" x="448.31" y="-253.99" font-family="Helvetica,sans-Serif" font-size="10.00" fill="#ffffff">cvxpy</text>
</g>
<!-- ncpol3sdpa_solver -->
<g id="node10" class="node">
<title>ncpol3sdpa_solver</title><style>.edge>path:hover{stroke-width:8}</style>
<ellipse fill="#33995c" stroke="black" cx="413.31" cy="-99.64" rx="53.07" ry="21.43"/>
<text text-anchor="middle" x="413.31" y="-102.64" font-family="Helvetica,sans-Serif" font-size="10.00" fill="#ffffff">ncpol3sdpa.</text>
<text text-anchor="middle" x="413.31" y="-91.64" font-family="Helvetica,sans-Serif" font-size="10.00" fill="#ffffff">solver</text>
</g>
<!-- cvxpy&#45;&gt;ncpol3sdpa_solver -->
<g id="edge1" class="edge">
<title>cvxpy&#45;&gt;ncpol3sdpa_solver</title><style>.edge>path:hover{stroke-width:8}</style>
<path fill="none" stroke="black" d="M438.11,-238.27C429.76,-223.22 418.53,-200.48 413.31,-179.07"/>
</g>
<!-- mosek -->
<g id="node2" class="node">
<title>mosek</title><style>.edge>path:hover{stroke-width:8}</style>
<polygon fill="#a6c040" stroke="black" points="547.31,-274.49 544.31,-278.49 523.31,-278.49 520.31,-274.49 493.31,-274.49 493.31,-238.49 547.31,-238.49 547.31,-274.49"/>
<text text-anchor="middle" x="520.31" y="-253.99" font-family="Helvetica,sans-Serif" font-size="10.00" fill="#000000">mosek</text>
</g>
<!-- mosek&#45;&gt;ncpol3sdpa_solver -->
<g id="edge2" class="edge">
<title>mosek&#45;&gt;ncpol3sdpa_solver</title><style>.edge>path:hover{stroke-width:8}</style>
<path fill="none" stroke="black" d="M492.93,-240.39C474.93,-229.9 451.28,-215.02 432.31,-199.28 422.81,-191.41 416.23,-191.04 413.31,-179.07"/>
</g>
<!-- ncpol3sdpa_algebra -->
<g id="node3" class="node">
<title>ncpol3sdpa_algebra</title><style>.edge>path:hover{stroke-width:8}</style>
<ellipse fill="#35a160" stroke="black" cx="193.31" cy="-99.64" rx="53.07" ry="21.43"/>
<text text-anchor="middle" x="193.31" y="-102.64" font-family="Helvetica,sans-Serif" font-size="10.00" fill="#ffffff">ncpol3sdpa.</text>
<text text-anchor="middle" x="193.31" y="-91.64" font-family="Helvetica,sans-Serif" font-size="10.00" fill="#ffffff">algebra</text>
</g>
<!-- ncpol3sdpa_problem -->
<g id="node7" class="node">
<title>ncpol3sdpa_problem</title><style>.edge>path:hover{stroke-width:8}</style>
<ellipse fill="#347950" stroke="black" cx="365.31" cy="-21.21" rx="53.07" ry="21.43"/>
<text text-anchor="middle" x="365.31" y="-24.21" font-family="Helvetica,sans-Serif" font-size="10.00" fill="#ffffff">ncpol3sdpa.</text>
<text text-anchor="middle" x="365.31" y="-13.21" font-family="Helvetica,sans-Serif" font-size="10.00" fill="#ffffff">problem</text>
</g>
<!-- ncpol3sdpa_algebra&#45;&gt;ncpol3sdpa_problem -->
<g id="edge3" class="edge">
<title>ncpol3sdpa_algebra&#45;&gt;ncpol3sdpa_problem</title><style>.edge>path:hover{stroke-width:8}</style>
<path fill="none" stroke="black" d="M227.7,-83.36C254.77,-71.33 292.66,-54.49 321.83,-41.53"/>
<polygon fill="#35a160" stroke="black" points="323.25,-44.73 330.97,-37.47 320.41,-38.33 323.25,-44.73"/>
</g>
<!-- ncpol3sdpa_constraints -->
<g id="node4" class="node">
<title>ncpol3sdpa_constraints</title><style>.edge>path:hover{stroke-width:8}</style>
<ellipse fill="#26d96e" stroke="black" cx="274.31" cy="-256.49" rx="53.07" ry="21.43"/>
<text text-anchor="middle" x="274.31" y="-259.49" font-family="Helvetica,sans-Serif" font-size="10.00" fill="#000000">ncpol3sdpa.</text>
<text text-anchor="middle" x="274.31" y="-248.49" font-family="Helvetica,sans-Serif" font-size="10.00" fill="#000000">constraints</text>
</g>
<!-- ncpol3sdpa_constraints&#45;&gt;ncpol3sdpa_algebra -->
<g id="edge4" class="edge">
<title>ncpol3sdpa_constraints&#45;&gt;ncpol3sdpa_algebra</title><style>.edge>path:hover{stroke-width:8}</style>
<path fill="none" stroke="black" d="M293.11,-236.65C305.5,-222.07 319.13,-200.76 317.31,-179.07"/>
<path fill="none" stroke="black" d="M317.31,-177.07C314.48,-143.38 280.8,-124.04 249.25,-113.24"/>
<polygon fill="#26d96e" stroke="black" points="250.16,-109.86 239.57,-110.16 248.03,-116.53 250.16,-109.86"/>
</g>
<!-- ncpol3sdpa_constraints&#45;&gt;ncpol3sdpa_problem -->
<g id="edge5" class="edge">
<title>ncpol3sdpa_constraints&#45;&gt;ncpol3sdpa_problem</title><style>.edge>path:hover{stroke-width:8}</style>
<path fill="none" stroke="black" d="M317.31,-177.07C314.46,-143.22 302.54,-131.23 317.31,-100.64"/>
</g>
<!-- ncpol3sdpa_rules -->
<g id="node8" class="node">
<title>ncpol3sdpa_rules</title><style>.edge>path:hover{stroke-width:8}</style>
<ellipse fill="#2fbc67" stroke="black" cx="193.31" cy="-178.07" rx="53.07" ry="21.43"/>
<text text-anchor="middle" x="193.31" y="-181.07" font-family="Helvetica,sans-Serif" font-size="10.00" fill="#000000">ncpol3sdpa.</text>
<text text-anchor="middle" x="193.31" y="-170.07" font-family="Helvetica,sans-Serif" font-size="10.00" fill="#000000">rules</text>
</g>
<!-- ncpol3sdpa_constraints&#45;&gt;ncpol3sdpa_rules -->
<g id="edge6" class="edge">
<title>ncpol3sdpa_constraints&#45;&gt;ncpol3sdpa_rules</title><style>.edge>path:hover{stroke-width:8}</style>
<path fill="none" stroke="black" d="M254.28,-236.6C244.16,-227.05 231.72,-215.31 220.72,-204.93"/>
<polygon fill="#26d96e" stroke="black" points="223.05,-202.32 213.38,-198.01 218.25,-207.41 223.05,-202.32"/>
</g>
<!-- ncpol3sdpa_funs -->
<g id="node5" class="node">
<title>ncpol3sdpa_funs</title><style>.edge>path:hover{stroke-width:8}</style>
<ellipse fill="#4cb375" stroke="black" cx="150.31" cy="-256.49" rx="53.07" ry="21.43"/>
<text text-anchor="middle" x="150.31" y="-259.49" font-family="Helvetica,sans-Serif" font-size="10.00" fill="#000000">ncpol3sdpa.</text>
<text text-anchor="middle" x="150.31" y="-248.49" font-family="Helvetica,sans-Serif" font-size="10.00" fill="#000000">funs</text>
</g>
<!-- ncpol3sdpa_monomial -->
<g id="node6" class="node">
<title>ncpol3sdpa_monomial</title><style>.edge>path:hover{stroke-width:8}</style>
<ellipse fill="#40c073" stroke="black" cx="69.31" cy="-178.07" rx="53.07" ry="21.43"/>
<text text-anchor="middle" x="69.31" y="-181.07" font-family="Helvetica,sans-Serif" font-size="10.00" fill="#000000">ncpol3sdpa.</text>
<text text-anchor="middle" x="69.31" y="-170.07" font-family="Helvetica,sans-Serif" font-size="10.00" fill="#000000">monomial</text>
</g>
<!-- ncpol3sdpa_monomial&#45;&gt;ncpol3sdpa_algebra -->
<g id="edge7" class="edge">
<title>ncpol3sdpa_monomial&#45;&gt;ncpol3sdpa_algebra</title><style>.edge>path:hover{stroke-width:8}</style>
<path fill="none" stroke="black" d="M97.13,-159.91C114.76,-149.05 137.75,-134.88 156.84,-123.12"/>
<polygon fill="#40c073" stroke="black" points="158.89,-125.96 165.57,-117.73 155.22,-120 158.89,-125.96"/>
</g>
<!-- ncpol3sdpa_rules&#45;&gt;ncpol3sdpa_algebra -->
<g id="edge8" class="edge">
<title>ncpol3sdpa_rules&#45;&gt;ncpol3sdpa_algebra</title><style>.edge>path:hover{stroke-width:8}</style>
<path fill="none" stroke="black" d="M193.31,-156.59C193.31,-148.73 193.31,-139.58 193.31,-130.99"/>
<polygon fill="#2fbc67" stroke="black" points="196.81,-130.91 193.31,-120.91 189.81,-130.91 196.81,-130.91"/>
</g>
<!-- ncpol3sdpa_rules&#45;&gt;ncpol3sdpa_problem -->
<g id="edge9" class="edge">
<title>ncpol3sdpa_rules&#45;&gt;ncpol3sdpa_problem</title><style>.edge>path:hover{stroke-width:8}</style>
<path fill="none" stroke="black" d="M234.96,-164.69C264.47,-153.38 301.53,-133.32 317.31,-100.64"/>
<path fill="none" stroke="black" d="M317.31,-98.64C325.3,-82.09 336.04,-64.66 345.34,-50.63"/>
<polygon fill="#2fbc67" stroke="black" points="348.51,-52.19 351.2,-41.95 342.71,-48.28 348.51,-52.19"/>
</g>
<!-- ncpol3sdpa_sdp_repr -->
<g id="node9" class="node">
<title>ncpol3sdpa_sdp_repr</title><style>.edge>path:hover{stroke-width:8}</style>
<ellipse fill="#31c46c" stroke="black" cx="494.31" cy="-178.07" rx="53.07" ry="21.43"/>
<text text-anchor="middle" x="494.31" y="-181.07" font-family="Helvetica,sans-Serif" font-size="10.00" fill="#000000">ncpol3sdpa.</text>
<text text-anchor="middle" x="494.31" y="-170.07" font-family="Helvetica,sans-Serif" font-size="10.00" fill="#000000">sdp_repr</text>
</g>
<!-- ncpol3sdpa_sdp_repr&#45;&gt;ncpol3sdpa_problem -->
<g id="edge10" class="edge">
<title>ncpol3sdpa_sdp_repr&#45;&gt;ncpol3sdpa_problem</title><style>.edge>path:hover{stroke-width:8}</style>
<path fill="none" stroke="black" d="M530.1,-162.39C556.34,-149.14 585.71,-127.61 575.31,-100.64"/>
<path fill="none" stroke="black" d="M575.31,-98.64C563.82,-68.87 480.4,-45.81 422.22,-33.12"/>
<polygon fill="#31c46c" stroke="black" points="422.91,-29.69 412.4,-31.02 421.45,-36.53 422.91,-29.69"/>
</g>
<!-- ncpol3sdpa_sdp_repr&#45;&gt;ncpol3sdpa_solver -->
<g id="edge11" class="edge">
<title>ncpol3sdpa_sdp_repr&#45;&gt;ncpol3sdpa_solver</title><style>.edge>path:hover{stroke-width:8}</style>
<path fill="none" stroke="black" d="M474.28,-158.17C464.16,-148.62 451.72,-136.88 440.72,-126.5"/>
<polygon fill="#31c46c" stroke="black" points="443.05,-123.9 433.38,-119.58 438.25,-128.99 443.05,-123.9"/>
</g>
<!-- ncpol3sdpa_solver&#45;&gt;ncpol3sdpa_problem -->
<g id="edge12" class="edge">
<title>ncpol3sdpa_solver&#45;&gt;ncpol3sdpa_problem</title><style>.edge>path:hover{stroke-width:8}</style>
<path fill="none" stroke="black" d="M400.94,-78.96C395.56,-70.38 389.13,-60.15 383.24,-50.76"/>
<polygon fill="#33995c" stroke="black" points="386.07,-48.7 377.79,-42.09 380.15,-52.42 386.07,-48.7"/>
</g>
<!-- numpy -->
<g id="node11" class="node">
<title>numpy</title><style>.edge>path:hover{stroke-width:8}</style>
<polygon fill="blue" stroke="black" points="511.31,-349.71 508.31,-353.71 487.31,-353.71 484.31,-349.71 457.31,-349.71 457.31,-313.71 511.31,-313.71 511.31,-349.71"/>
<text text-anchor="middle" x="484.31" y="-329.21" font-family="Helvetica,sans-Serif" font-size="10.00" fill="white">numpy</text>
</g>
<!-- numpy&#45;&gt;ncpol3sdpa_problem -->
<g id="edge13" class="edge">
<title>numpy&#45;&gt;ncpol3sdpa_problem</title><style>.edge>path:hover{stroke-width:8}</style>
<path fill="none" stroke="black" d="M575.31,-255.49C589.09,-188.06 600.09,-164.85 575.31,-100.64"/>
</g>
<!-- numpy&#45;&gt;ncpol3sdpa_sdp_repr -->
<g id="edge14" class="edge">
<title>numpy&#45;&gt;ncpol3sdpa_sdp_repr</title><style>.edge>path:hover{stroke-width:8}</style>
<path fill="none" stroke="black" d="M511.75,-320.32C536.15,-309.15 568.93,-288.68 575.31,-257.49"/>
<path fill="none" stroke="black" d="M575.31,-255.49C580.28,-231.19 559.91,-212.04 538.36,-199"/>
<polygon fill="blue" stroke="black" points="539.88,-195.83 529.45,-193.95 536.43,-201.93 539.88,-195.83"/>
</g>
<!-- numpy&#45;&gt;ncpol3sdpa_solver -->
<g id="edge15" class="edge">
<title>numpy&#45;&gt;ncpol3sdpa_solver</title><style>.edge>path:hover{stroke-width:8}</style>
<path fill="none" stroke="black" d="M457.23,-318.71C440.98,-309.92 421.69,-296.27 412.31,-277.71 392.52,-238.58 423.69,-221.66 413.31,-179.07"/>
<path fill="none" stroke="black" d="M413.31,-177.07C409.34,-162.37 408.93,-145.49 409.68,-131.34"/>
<polygon fill="blue" stroke="black" points="413.19,-131.37 410.45,-121.13 406.21,-130.84 413.19,-131.37"/>
</g>
<!-- sympy -->
<g id="node12" class="node">
<title>sympy</title><style>.edge>path:hover{stroke-width:8}</style>
<polygon fill="#c806f9" stroke="black" points="239.31,-421.71 236.31,-425.71 215.31,-425.71 212.31,-421.71 185.31,-421.71 185.31,-385.71 239.31,-385.71 239.31,-421.71"/>
<text text-anchor="middle" x="212.31" y="-401.21" font-family="Helvetica,sans-Serif" font-size="10.00" fill="#ffffff">sympy</text>
</g>
<!-- sympy&#45;&gt;ncpol3sdpa_algebra -->
<g id="edge16" class="edge">
<title>sympy&#45;&gt;ncpol3sdpa_algebra</title><style>.edge>path:hover{stroke-width:8}</style>
<path fill="none" stroke="black" d="M212.31,-385.45C212.31,-371.28 212.31,-350.69 212.31,-332.71"/>
<path fill="none" stroke="black" d="M212.31,-330.71C212.31,-259.3 100.55,-321.69 69.31,-257.49"/>
<path fill="none" stroke="black" d="M69.31,-255.49C53.03,-222.05 22.38,-233.28 7.31,-199.28 -0.33,-182.04 -3.94,-171.99 7.31,-156.85 35.26,-119.19 87.72,-105.86 129.81,-101.54"/>
<polygon fill="#c806f9" stroke="black" points="130.34,-105 139.99,-100.64 129.73,-98.03 130.34,-105"/>
</g>
<!-- sympy&#45;&gt;ncpol3sdpa_constraints -->
<g id="edge17" class="edge">
<title>sympy&#45;&gt;ncpol3sdpa_constraints</title><style>.edge>path:hover{stroke-width:8}</style>
<path fill="none" stroke="black" d="M212.31,-330.71C212.31,-311.17 225.32,-294.17 239.42,-281.48"/>
<polygon fill="#c806f9" stroke="black" points="241.87,-283.99 247.29,-274.88 237.38,-278.62 241.87,-283.99"/>
</g>
<!-- sympy&#45;&gt;ncpol3sdpa_funs -->
<g id="edge18" class="edge">
<title>sympy&#45;&gt;ncpol3sdpa_funs</title><style>.edge>path:hover{stroke-width:8}</style>
<path fill="none" stroke="black" d="M212.31,-330.71C212.31,-311.17 199.29,-294.17 185.19,-281.48"/>
<polygon fill="#c806f9" stroke="black" points="187.23,-278.62 177.32,-274.88 182.74,-283.99 187.23,-278.62"/>
</g>
<!-- sympy&#45;&gt;ncpol3sdpa_monomial -->
<g id="edge19" class="edge">
<title>sympy&#45;&gt;ncpol3sdpa_monomial</title><style>.edge>path:hover{stroke-width:8}</style>
<path fill="none" stroke="black" d="M69.31,-255.49C62.44,-241.38 61.92,-223.99 63.34,-209.37"/>
<polygon fill="#c806f9" stroke="black" points="66.83,-209.66 64.66,-199.29 59.89,-208.76 66.83,-209.66"/>
</g>
<!-- sympy&#45;&gt;ncpol3sdpa_problem -->
<g id="edge20" class="edge">
<title>sympy&#45;&gt;ncpol3sdpa_problem</title><style>.edge>path:hover{stroke-width:8}</style>
<path fill="none" stroke="black" d="M212.31,-330.71C212.31,-270.77 303.29,-327.73 336.31,-277.71 342.87,-267.76 335.6,-184.52 331.31,-156.85 327.36,-131.41 306.11,-123.83 317.31,-100.64"/>
</g>
<!-- sympy&#45;&gt;ncpol3sdpa_rules -->
<g id="edge21" class="edge">
<title>sympy&#45;&gt;ncpol3sdpa_rules</title><style>.edge>path:hover{stroke-width:8}</style>
<path fill="none" stroke="black" d="M69.31,-255.49C60.76,-237.94 107.64,-213.75 146.19,-197.33"/>
<polygon fill="#c806f9" stroke="black" points="147.89,-200.41 155.77,-193.32 145.19,-193.95 147.89,-200.41"/>
</g>
</g>
</svg>
