<?xml version="1.0" encoding="UTF-8" standalone="no"?>
<!DOCTYPE svg PUBLIC "-//W3C//DTD SVG 1.1//EN"
 "http://www.w3.org/Graphics/SVG/1.1/DTD/svg11.dtd">
<!-- Generated by graphviz version 2.43.0 (0)
 -->
<!-- Title: G Pages: 1 -->
<svg width="966pt" height="598pt"
 viewBox="0.00 0.00 965.72 598.23" xmlns="http://www.w3.org/2000/svg" xmlns:xlink="http://www.w3.org/1999/xlink">
<g id="graph0" class="graph" transform="scale(1 1) rotate(0) translate(4 594.23)">
<title>G</title><style>.edge>path:hover{stroke-width:8}</style>
<polygon fill="white" stroke="transparent" points="-4,4 -4,-594.23 961.72,-594.23 961.72,4 -4,4"/>
<!-- cvxpy -->
<g id="node1" class="node">
<title>cvxpy</title><style>.edge>path:hover{stroke-width:8}</style>
<polygon fill="blue" stroke="black" points="514.69,-391.81 511.69,-395.81 490.69,-395.81 487.69,-391.81 460.69,-391.81 460.69,-355.81 514.69,-355.81 514.69,-391.81"/>
<text text-anchor="middle" x="487.69" y="-371.31" font-family="Helvetica,sans-Serif" font-size="10.00" fill="white">cvxpy</text>
</g>
<!-- ncpol3sdpa_solver -->
<g id="node14" class="node">
<title>ncpol3sdpa_solver</title><style>.edge>path:hover{stroke-width:8}</style>
<ellipse fill="#2e8a52" stroke="black" cx="454.69" cy="-99.64" rx="53.07" ry="21.43"/>
<text text-anchor="middle" x="454.69" y="-102.64" font-family="Helvetica,sans-Serif" font-size="10.00" fill="#ffffff">ncpol3sdpa.</text>
<text text-anchor="middle" x="454.69" y="-91.64" font-family="Helvetica,sans-Serif" font-size="10.00" fill="#ffffff">solver</text>
</g>
<!-- cvxpy&#45;&gt;ncpol3sdpa_solver -->
<g id="edge1" class="edge">
<title>cvxpy&#45;&gt;ncpol3sdpa_solver</title><style>.edge>path:hover{stroke-width:8}</style>
<path fill="none" stroke="black" d="M454.69,-184.84C444.5,-169.09 444.52,-147.97 447.09,-130.82"/>
<polygon fill="blue" stroke="black" points="450.57,-131.2 448.94,-120.74 443.69,-129.94 450.57,-131.2"/>
</g>
<!-- ncpol3sdpa_sos -->
<g id="node15" class="node">
<title>ncpol3sdpa_sos</title><style>.edge>path:hover{stroke-width:8}</style>
<ellipse fill="#3a8859" stroke="black" cx="70.69" cy="-99.64" rx="54.31" ry="18"/>
<text text-anchor="middle" x="70.69" y="-97.14" font-family="Helvetica,sans-Serif" font-size="10.00" fill="#ffffff">ncpol3sdpa.sos</text>
</g>
<!-- cvxpy&#45;&gt;ncpol3sdpa_sos -->
<g id="edge2" class="edge">
<title>cvxpy&#45;&gt;ncpol3sdpa_sos</title><style>.edge>path:hover{stroke-width:8}</style>
<path fill="none" stroke="black" d="M488.87,-355.58C490.4,-320.74 489.52,-240.66 454.69,-186.84"/>
<path fill="none" stroke="black" d="M454.69,-184.84C412.6,-137.7 230.44,-114.7 132.91,-105.58"/>
<polygon fill="blue" stroke="black" points="133.15,-102.09 122.88,-104.67 132.52,-109.06 133.15,-102.09"/>
</g>
<!-- mosek -->
<g id="node2" class="node">
<title>mosek</title><style>.edge>path:hover{stroke-width:8}</style>
<polygon fill="#a6c040" stroke="black" points="624.69,-297.83 621.69,-301.83 600.69,-301.83 597.69,-297.83 570.69,-297.83 570.69,-261.83 624.69,-261.83 624.69,-297.83"/>
<text text-anchor="middle" x="597.69" y="-277.33" font-family="Helvetica,sans-Serif" font-size="10.00" fill="#000000">mosek</text>
</g>
<!-- mosek&#45;&gt;ncpol3sdpa_solver -->
<g id="edge3" class="edge">
<title>mosek&#45;&gt;ncpol3sdpa_solver</title><style>.edge>path:hover{stroke-width:8}</style>
<path fill="none" stroke="black" d="M587.36,-261.53C576.32,-243.03 558.29,-212.85 542.69,-186.84"/>
</g>
<!-- ncpol3sdpa_funs -->
<g id="node3" class="node">
<title>ncpol3sdpa_funs</title><style>.edge>path:hover{stroke-width:8}</style>
<ellipse fill="#4cb375" stroke="black" cx="742.69" cy="-460.01" rx="53.07" ry="21.43"/>
<text text-anchor="middle" x="742.69" y="-463.01" font-family="Helvetica,sans-Serif" font-size="10.00" fill="#000000">ncpol3sdpa.</text>
<text text-anchor="middle" x="742.69" y="-452.01" font-family="Helvetica,sans-Serif" font-size="10.00" fill="#000000">funs</text>
</g>
<!-- ncpol3sdpa_problem -->
<g id="node4" class="node">
<title>ncpol3sdpa_problem</title><style>.edge>path:hover{stroke-width:8}</style>
<ellipse fill="#3a8859" stroke="black" cx="454.69" cy="-21.21" rx="53.07" ry="21.43"/>
<text text-anchor="middle" x="454.69" y="-24.21" font-family="Helvetica,sans-Serif" font-size="10.00" fill="#ffffff">ncpol3sdpa.</text>
<text text-anchor="middle" x="454.69" y="-13.21" font-family="Helvetica,sans-Serif" font-size="10.00" fill="#ffffff">problem</text>
</g>
<!-- ncpol3sdpa_resolution -->
<g id="node5" class="node">
<title>ncpol3sdpa_resolution</title><style>.edge>path:hover{stroke-width:8}</style>
<ellipse fill="#3ab069" stroke="black" cx="661.69" cy="-99.64" rx="53.07" ry="21.43"/>
<text text-anchor="middle" x="661.69" y="-102.64" font-family="Helvetica,sans-Serif" font-size="10.00" fill="#000000">ncpol3sdpa.</text>
<text text-anchor="middle" x="661.69" y="-91.64" font-family="Helvetica,sans-Serif" font-size="10.00" fill="#000000">resolution</text>
</g>
<!-- ncpol3sdpa_resolution&#45;&gt;ncpol3sdpa_problem -->
<g id="edge4" class="edge">
<title>ncpol3sdpa_resolution&#45;&gt;ncpol3sdpa_problem</title><style>.edge>path:hover{stroke-width:8}</style>
<path fill="none" stroke="black" d="M623.72,-84.62C589.44,-71.96 538.85,-53.29 501.96,-39.67"/>
<polygon fill="#3ab069" stroke="black" points="503.01,-36.32 492.42,-36.14 500.59,-42.89 503.01,-36.32"/>
</g>
<!-- ncpol3sdpa_resolution_algebra -->
<g id="node6" class="node">
<title>ncpol3sdpa_resolution_algebra</title><style>.edge>path:hover{stroke-width:8}</style>
<ellipse fill="#38a865" stroke="black" cx="661.69" cy="-185.84" rx="53.07" ry="28.98"/>
<text text-anchor="middle" x="661.69" y="-194.34" font-family="Helvetica,sans-Serif" font-size="10.00" fill="#ffffff">ncpol3sdpa.</text>
<text text-anchor="middle" x="661.69" y="-183.34" font-family="Helvetica,sans-Serif" font-size="10.00" fill="#ffffff">resolution.</text>
<text text-anchor="middle" x="661.69" y="-172.34" font-family="Helvetica,sans-Serif" font-size="10.00" fill="#ffffff">algebra</text>
</g>
<!-- ncpol3sdpa_resolution_algebra&#45;&gt;ncpol3sdpa_resolution -->
<g id="edge5" class="edge">
<title>ncpol3sdpa_resolution_algebra&#45;&gt;ncpol3sdpa_resolution</title><style>.edge>path:hover{stroke-width:8}</style>
<path fill="none" stroke="black" d="M661.69,-156.81C661.69,-148.6 661.69,-139.58 661.69,-131.23"/>
<polygon fill="#38a865" stroke="black" points="665.19,-131.1 661.69,-121.1 658.19,-131.1 665.19,-131.1"/>
</g>
<!-- ncpol3sdpa_resolution_constraints -->
<g id="node7" class="node">
<title>ncpol3sdpa_resolution_constraints</title><style>.edge>path:hover{stroke-width:8}</style>
<ellipse fill="#26d96e" stroke="black" cx="823.69" cy="-373.81" rx="53.07" ry="28.98"/>
<text text-anchor="middle" x="823.69" y="-382.31" font-family="Helvetica,sans-Serif" font-size="10.00" fill="#000000">ncpol3sdpa.</text>
<text text-anchor="middle" x="823.69" y="-371.31" font-family="Helvetica,sans-Serif" font-size="10.00" fill="#000000">resolution.</text>
<text text-anchor="middle" x="823.69" y="-360.31" font-family="Helvetica,sans-Serif" font-size="10.00" fill="#000000">constraints</text>
</g>
<!-- ncpol3sdpa_resolution_constraints&#45;&gt;ncpol3sdpa_resolution -->
<g id="edge6" class="edge">
<title>ncpol3sdpa_resolution_constraints&#45;&gt;ncpol3sdpa_resolution</title><style>.edge>path:hover{stroke-width:8}</style>
<path fill="none" stroke="black" d="M823.69,-278.83C809.46,-240.5 851.39,-216.91 823.69,-186.84"/>
<path fill="none" stroke="black" d="M823.69,-184.84C793.56,-152.13 747.79,-129.98 712.58,-116.64"/>
<polygon fill="#26d96e" stroke="black" points="713.55,-113.27 702.95,-113.12 711.14,-119.84 713.55,-113.27"/>
</g>
<!-- ncpol3sdpa_resolution_constraints&#45;&gt;ncpol3sdpa_resolution_algebra -->
<g id="edge7" class="edge">
<title>ncpol3sdpa_resolution_constraints&#45;&gt;ncpol3sdpa_resolution_algebra</title><style>.edge>path:hover{stroke-width:8}</style>
<path fill="none" stroke="black" d="M828.68,-344.54C830.78,-325.87 831.25,-301.19 823.69,-280.83"/>
<path fill="none" stroke="black" d="M823.69,-278.83C807.77,-235.97 760.05,-212.4 720.49,-199.88"/>
<polygon fill="#26d96e" stroke="black" points="721.48,-196.52 710.89,-197.01 719.47,-203.23 721.48,-196.52"/>
</g>
<!-- ncpol3sdpa_resolution_rules -->
<g id="node9" class="node">
<title>ncpol3sdpa_resolution_rules</title><style>.edge>path:hover{stroke-width:8}</style>
<ellipse fill="#31c46c" stroke="black" cx="904.69" cy="-279.83" rx="53.07" ry="28.98"/>
<text text-anchor="middle" x="904.69" y="-288.33" font-family="Helvetica,sans-Serif" font-size="10.00" fill="#000000">ncpol3sdpa.</text>
<text text-anchor="middle" x="904.69" y="-277.33" font-family="Helvetica,sans-Serif" font-size="10.00" fill="#000000">resolution.</text>
<text text-anchor="middle" x="904.69" y="-266.33" font-family="Helvetica,sans-Serif" font-size="10.00" fill="#000000">rules</text>
</g>
<!-- ncpol3sdpa_resolution_constraints&#45;&gt;ncpol3sdpa_resolution_rules -->
<g id="edge8" class="edge">
<title>ncpol3sdpa_resolution_constraints&#45;&gt;ncpol3sdpa_resolution_rules</title><style>.edge>path:hover{stroke-width:8}</style>
<path fill="none" stroke="black" d="M846.25,-347.19C855.29,-336.92 865.83,-324.96 875.44,-314.04"/>
<polygon fill="#26d96e" stroke="black" points="878.27,-316.13 882.25,-306.31 873.01,-311.5 878.27,-316.13"/>
</g>
<!-- ncpol3sdpa_resolution_monomial -->
<g id="node8" class="node">
<title>ncpol3sdpa_resolution_monomial</title><style>.edge>path:hover{stroke-width:8}</style>
<ellipse fill="#40c073" stroke="black" cx="742.69" cy="-279.83" rx="53.07" ry="28.98"/>
<text text-anchor="middle" x="742.69" y="-288.33" font-family="Helvetica,sans-Serif" font-size="10.00" fill="#000000">ncpol3sdpa.</text>
<text text-anchor="middle" x="742.69" y="-277.33" font-family="Helvetica,sans-Serif" font-size="10.00" fill="#000000">resolution.</text>
<text text-anchor="middle" x="742.69" y="-266.33" font-family="Helvetica,sans-Serif" font-size="10.00" fill="#000000">monomial</text>
</g>
<!-- ncpol3sdpa_resolution_monomial&#45;&gt;ncpol3sdpa_resolution_algebra -->
<g id="edge9" class="edge">
<title>ncpol3sdpa_resolution_monomial&#45;&gt;ncpol3sdpa_resolution_algebra</title><style>.edge>path:hover{stroke-width:8}</style>
<path fill="none" stroke="black" d="M720.13,-253.2C711.09,-242.94 700.55,-230.98 690.94,-220.06"/>
<polygon fill="#40c073" stroke="black" points="693.37,-217.52 684.13,-212.33 688.12,-222.15 693.37,-217.52"/>
</g>
<!-- ncpol3sdpa_resolution_rules&#45;&gt;ncpol3sdpa_resolution -->
<g id="edge10" class="edge">
<title>ncpol3sdpa_resolution_rules&#45;&gt;ncpol3sdpa_resolution</title><style>.edge>path:hover{stroke-width:8}</style>
<path fill="none" stroke="black" d="M882.64,-253.18C866.52,-234.57 844.02,-208.91 823.69,-186.84"/>
</g>
<!-- ncpol3sdpa_resolution_rules&#45;&gt;ncpol3sdpa_resolution_algebra -->
<g id="edge11" class="edge">
<title>ncpol3sdpa_resolution_rules&#45;&gt;ncpol3sdpa_resolution_algebra</title><style>.edge>path:hover{stroke-width:8}</style>
<path fill="none" stroke="black" d="M863.71,-261.35C855.14,-257.8 846.15,-254.14 837.69,-250.84 796.86,-234.89 750.22,-217.99 715.21,-205.57"/>
<polygon fill="#31c46c" stroke="black" points="716.26,-202.22 705.66,-202.19 713.92,-208.82 716.26,-202.22"/>
</g>
<!-- ncpol3sdpa_sdp_repr -->
<g id="node10" class="node">
<title>ncpol3sdpa_sdp_repr</title><style>.edge>path:hover{stroke-width:8}</style>
<ellipse fill="#23c865" stroke="black" cx="296.69" cy="-185.84" rx="53.07" ry="21.43"/>
<text text-anchor="middle" x="296.69" y="-188.84" font-family="Helvetica,sans-Serif" font-size="10.00" fill="#000000">ncpol3sdpa.</text>
<text text-anchor="middle" x="296.69" y="-177.84" font-family="Helvetica,sans-Serif" font-size="10.00" fill="#000000">sdp_repr</text>
</g>
<!-- ncpol3sdpa_sdp_repr&#45;&gt;ncpol3sdpa_problem -->
<g id="edge12" class="edge">
<title>ncpol3sdpa_sdp_repr&#45;&gt;ncpol3sdpa_problem</title><style>.edge>path:hover{stroke-width:8}</style>
<path fill="none" stroke="black" d="M313.13,-165.48C331.82,-143.73 363.52,-107.67 392.69,-78.43 403.08,-68.02 414.94,-57.05 425.49,-47.6"/>
<polygon fill="#23c865" stroke="black" points="428.1,-49.96 433.25,-40.7 423.45,-44.72 428.1,-49.96"/>
</g>
<!-- ncpol3sdpa_sdp_repr&#45;&gt;ncpol3sdpa_solver -->
<g id="edge13" class="edge">
<title>ncpol3sdpa_sdp_repr&#45;&gt;ncpol3sdpa_solver</title><style>.edge>path:hover{stroke-width:8}</style>
<path fill="none" stroke="black" d="M327.53,-168.41C352.54,-155.08 387.97,-136.2 415.08,-121.75"/>
<polygon fill="#23c865" stroke="black" points="416.75,-124.83 423.93,-117.03 413.46,-118.65 416.75,-124.83"/>
</g>
<!-- ncpol3sdpa_sdp_repr&#45;&gt;ncpol3sdpa_sos -->
<g id="edge14" class="edge">
<title>ncpol3sdpa_sdp_repr&#45;&gt;ncpol3sdpa_sos</title><style>.edge>path:hover{stroke-width:8}</style>
<path fill="none" stroke="black" d="M259.12,-170.84C219.41,-156.05 156.83,-132.74 114.81,-117.08"/>
<polygon fill="#23c865" stroke="black" points="115.98,-113.78 105.38,-113.57 113.53,-120.34 115.98,-113.78"/>
</g>
<!-- ncpol3sdpa_sdp_repr_eq_constraint -->
<g id="node11" class="node">
<title>ncpol3sdpa_sdp_repr_eq_constraint</title><style>.edge>path:hover{stroke-width:8}</style>
<ellipse fill="#31c46c" stroke="black" cx="383.69" cy="-373.81" rx="58.88" ry="28.98"/>
<text text-anchor="middle" x="383.69" y="-382.31" font-family="Helvetica,sans-Serif" font-size="10.00" fill="#000000">ncpol3sdpa.</text>
<text text-anchor="middle" x="383.69" y="-371.31" font-family="Helvetica,sans-Serif" font-size="10.00" fill="#000000">sdp_repr.</text>
<text text-anchor="middle" x="383.69" y="-360.31" font-family="Helvetica,sans-Serif" font-size="10.00" fill="#000000">eq_constraint</text>
</g>
<!-- ncpol3sdpa_sdp_repr_eq_constraint&#45;&gt;ncpol3sdpa_sdp_repr -->
<g id="edge15" class="edge">
<title>ncpol3sdpa_sdp_repr_eq_constraint&#45;&gt;ncpol3sdpa_sdp_repr</title><style>.edge>path:hover{stroke-width:8}</style>
<path fill="none" stroke="black" d="M384.06,-344.57C383.27,-318.76 379.21,-280.25 363.69,-250.84 355.69,-235.66 342.73,-222.03 330.33,-211.28"/>
<polygon fill="#31c46c" stroke="black" points="332.25,-208.33 322.32,-204.65 327.79,-213.72 332.25,-208.33"/>
</g>
<!-- ncpol3sdpa_sdp_repr_problem_SDP -->
<g id="node13" class="node">
<title>ncpol3sdpa_sdp_repr_problem_SDP</title><style>.edge>path:hover{stroke-width:8}</style>
<ellipse fill="#38a865" stroke="black" cx="296.69" cy="-279.83" rx="57.97" ry="28.98"/>
<text text-anchor="middle" x="296.69" y="-288.33" font-family="Helvetica,sans-Serif" font-size="10.00" fill="#ffffff">ncpol3sdpa.</text>
<text text-anchor="middle" x="296.69" y="-277.33" font-family="Helvetica,sans-Serif" font-size="10.00" fill="#ffffff">sdp_repr.</text>
<text text-anchor="middle" x="296.69" y="-266.33" font-family="Helvetica,sans-Serif" font-size="10.00" fill="#ffffff">problem_SDP</text>
</g>
<!-- ncpol3sdpa_sdp_repr_eq_constraint&#45;&gt;ncpol3sdpa_sdp_repr_problem_SDP -->
<g id="edge16" class="edge">
<title>ncpol3sdpa_sdp_repr_eq_constraint&#45;&gt;ncpol3sdpa_sdp_repr_problem_SDP</title><style>.edge>path:hover{stroke-width:8}</style>
<path fill="none" stroke="black" d="M359.46,-347.19C349.65,-336.82 338.21,-324.73 327.8,-313.72"/>
<polygon fill="#31c46c" stroke="black" points="330.21,-311.17 320.8,-306.31 325.12,-315.98 330.21,-311.17"/>
</g>
<!-- ncpol3sdpa_sdp_repr_moment_matrix_SDP -->
<g id="node12" class="node">
<title>ncpol3sdpa_sdp_repr_moment_matrix_SDP</title><style>.edge>path:hover{stroke-width:8}</style>
<ellipse fill="#3bce76" stroke="black" cx="183.69" cy="-373.81" rx="84.71" ry="28.98"/>
<text text-anchor="middle" x="183.69" y="-382.31" font-family="Helvetica,sans-Serif" font-size="10.00" fill="#000000">ncpol3sdpa.</text>
<text text-anchor="middle" x="183.69" y="-371.31" font-family="Helvetica,sans-Serif" font-size="10.00" fill="#000000">sdp_repr.</text>
<text text-anchor="middle" x="183.69" y="-360.31" font-family="Helvetica,sans-Serif" font-size="10.00" fill="#000000">moment_matrix_SDP</text>
</g>
<!-- ncpol3sdpa_sdp_repr_moment_matrix_SDP&#45;&gt;ncpol3sdpa_sdp_repr -->
<g id="edge17" class="edge">
<title>ncpol3sdpa_sdp_repr_moment_matrix_SDP&#45;&gt;ncpol3sdpa_sdp_repr</title><style>.edge>path:hover{stroke-width:8}</style>
<path fill="none" stroke="black" d="M190.41,-344.74C197.47,-318.88 210.27,-280.19 229.69,-250.84 239.3,-236.31 252.77,-222.62 265.11,-211.67"/>
<polygon fill="#3bce76" stroke="black" points="267.71,-214.05 273.01,-204.88 263.14,-208.74 267.71,-214.05"/>
</g>
<!-- ncpol3sdpa_sdp_repr_moment_matrix_SDP&#45;&gt;ncpol3sdpa_sdp_repr_problem_SDP -->
<g id="edge18" class="edge">
<title>ncpol3sdpa_sdp_repr_moment_matrix_SDP&#45;&gt;ncpol3sdpa_sdp_repr_problem_SDP</title><style>.edge>path:hover{stroke-width:8}</style>
<path fill="none" stroke="black" d="M215.77,-346.7C229.19,-335.77 244.88,-323 258.86,-311.62"/>
<polygon fill="#3bce76" stroke="black" points="261.31,-314.14 266.86,-305.11 256.89,-308.71 261.31,-314.14"/>
</g>
<!-- ncpol3sdpa_sdp_repr_problem_SDP&#45;&gt;ncpol3sdpa_sdp_repr -->
<g id="edge19" class="edge">
<title>ncpol3sdpa_sdp_repr_problem_SDP&#45;&gt;ncpol3sdpa_sdp_repr</title><style>.edge>path:hover{stroke-width:8}</style>
<path fill="none" stroke="black" d="M296.69,-250.73C296.69,-240.19 296.69,-228.16 296.69,-217.41"/>
<polygon fill="#38a865" stroke="black" points="300.19,-217.18 296.69,-207.18 293.19,-217.18 300.19,-217.18"/>
</g>
<!-- ncpol3sdpa_solver&#45;&gt;ncpol3sdpa_problem -->
<g id="edge20" class="edge">
<title>ncpol3sdpa_solver&#45;&gt;ncpol3sdpa_problem</title><style>.edge>path:hover{stroke-width:8}</style>
<path fill="none" stroke="black" d="M454.69,-78.16C454.69,-70.3 454.69,-61.16 454.69,-52.57"/>
<polygon fill="#2e8a52" stroke="black" points="458.19,-52.49 454.69,-42.49 451.19,-52.49 458.19,-52.49"/>
</g>
<!-- numpy -->
<g id="node16" class="node">
<title>numpy</title><style>.edge>path:hover{stroke-width:8}</style>
<polygon fill="blue" stroke="black" points="410.69,-590.23 407.69,-594.23 386.69,-594.23 383.69,-590.23 356.69,-590.23 356.69,-554.23 410.69,-554.23 410.69,-590.23"/>
<text text-anchor="middle" x="383.69" y="-569.73" font-family="Helvetica,sans-Serif" font-size="10.00" fill="white">numpy</text>
</g>
<!-- numpy&#45;&gt;cvxpy -->
<g id="edge21" class="edge">
<title>numpy&#45;&gt;cvxpy</title><style>.edge>path:hover{stroke-width:8}</style>
<path fill="none" stroke="black" d="M383.69,-459.01C383.32,-456.64 426.76,-422.25 457.6,-398.17"/>
<polygon fill="blue" stroke="black" points="459.8,-400.89 465.53,-391.98 455.49,-395.37 459.8,-400.89"/>
</g>
<!-- numpy&#45;&gt;ncpol3sdpa_problem -->
<g id="edge22" class="edge">
<title>numpy&#45;&gt;ncpol3sdpa_problem</title><style>.edge>path:hover{stroke-width:8}</style>
<path fill="none" stroke="black" d="M385.29,-553.93C386.93,-532.12 388.63,-493.55 383.69,-461.01"/>
<path fill="none" stroke="black" d="M383.69,-459.01C359.18,-328.26 178.88,-501.51 89.69,-402.8 25.09,-331.31 91.9,-280.83 70.69,-186.84"/>
<path fill="none" stroke="black" d="M70.69,-184.84C62.32,-145.82 22.82,-157.78 7.69,-120.85 0.54,-103.4 -4.78,-92.57 7.69,-78.43 32.71,-50.06 275.08,-32.47 392.09,-25.56"/>
<polygon fill="blue" stroke="black" points="392.55,-29.04 402.33,-24.97 392.14,-22.06 392.55,-29.04"/>
</g>
<!-- numpy&#45;&gt;ncpol3sdpa_sdp_repr_eq_constraint -->
<g id="edge23" class="edge">
<title>numpy&#45;&gt;ncpol3sdpa_sdp_repr_eq_constraint</title><style>.edge>path:hover{stroke-width:8}</style>
<path fill="none" stroke="black" d="M383.69,-459.01C381.38,-444.13 380.93,-427.6 381.22,-413.15"/>
<polygon fill="blue" stroke="black" points="384.72,-413.15 381.54,-403.04 377.72,-412.93 384.72,-413.15"/>
</g>
<!-- numpy&#45;&gt;ncpol3sdpa_sdp_repr_problem_SDP -->
<g id="edge24" class="edge">
<title>numpy&#45;&gt;ncpol3sdpa_sdp_repr_problem_SDP</title><style>.edge>path:hover{stroke-width:8}</style>
<path fill="none" stroke="black" d="M383.69,-459.01C377.68,-420.27 335.08,-436.88 315.69,-402.8 301.22,-377.37 296.78,-344.38 295.79,-319.13"/>
<polygon fill="blue" stroke="black" points="299.28,-318.74 295.56,-308.82 292.28,-318.9 299.28,-318.74"/>
</g>
<!-- numpy&#45;&gt;ncpol3sdpa_solver -->
<g id="edge25" class="edge">
<title>numpy&#45;&gt;ncpol3sdpa_solver</title><style>.edge>path:hover{stroke-width:8}</style>
<path fill="none" stroke="black" d="M383.69,-459.01C374.19,-392.64 483.74,-456.65 523.69,-402.8 552.4,-364.11 567.47,-228.16 542.69,-186.84"/>
<path fill="none" stroke="black" d="M542.69,-184.84C528.01,-161.65 505.6,-140.33 487.06,-124.95"/>
<polygon fill="blue" stroke="black" points="489.1,-122.1 479.13,-118.52 484.7,-127.54 489.1,-122.1"/>
</g>
<!-- numpy&#45;&gt;ncpol3sdpa_sos -->
<g id="edge26" class="edge">
<title>numpy&#45;&gt;ncpol3sdpa_sos</title><style>.edge>path:hover{stroke-width:8}</style>
<path fill="none" stroke="black" d="M70.69,-184.84C66.47,-166.13 66.57,-144.47 67.68,-127.81"/>
<polygon fill="blue" stroke="black" points="71.18,-127.91 68.52,-117.66 64.21,-127.34 71.18,-127.91"/>
</g>
<!-- sympy -->
<g id="node17" class="node">
<title>sympy</title><style>.edge>path:hover{stroke-width:8}</style>
<polygon fill="#c806f9" stroke="black" points="769.69,-590.23 766.69,-594.23 745.69,-594.23 742.69,-590.23 715.69,-590.23 715.69,-554.23 769.69,-554.23 769.69,-590.23"/>
<text text-anchor="middle" x="742.69" y="-569.73" font-family="Helvetica,sans-Serif" font-size="10.00" fill="#ffffff">sympy</text>
</g>
<!-- sympy&#45;&gt;ncpol3sdpa_funs -->
<g id="edge27" class="edge">
<title>sympy&#45;&gt;ncpol3sdpa_funs</title><style>.edge>path:hover{stroke-width:8}</style>
<path fill="none" stroke="black" d="M742.69,-517.23C742.69,-508.86 742.69,-499.78 742.69,-491.42"/>
<polygon fill="#c806f9" stroke="black" points="746.19,-491.31 742.69,-481.31 739.19,-491.31 746.19,-491.31"/>
</g>
<!-- sympy&#45;&gt;ncpol3sdpa_problem -->
<g id="edge28" class="edge">
<title>sympy&#45;&gt;ncpol3sdpa_problem</title><style>.edge>path:hover{stroke-width:8}</style>
<path fill="none" stroke="black" d="M742.69,-554.04C742.69,-543.67 742.69,-530.19 742.69,-518.23"/>
<path fill="none" stroke="black" d="M742.69,-517.23C742.69,-485.36 697.88,-508.06 680.69,-481.23 632.44,-405.89 679.77,-368.45 661.69,-280.83"/>
<path fill="none" stroke="black" d="M661.69,-278.83C653.69,-240.04 623.91,-246.17 599.69,-214.84 556.29,-158.69 561.89,-133.14 516.69,-78.43 507.55,-67.36 496.23,-56.46 485.77,-47.25"/>
<polygon fill="#c806f9" stroke="black" points="487.86,-44.43 477.99,-40.56 483.29,-49.73 487.86,-44.43"/>
</g>
<!-- sympy&#45;&gt;ncpol3sdpa_resolution_algebra -->
<g id="edge29" class="edge">
<title>sympy&#45;&gt;ncpol3sdpa_resolution_algebra</title><style>.edge>path:hover{stroke-width:8}</style>
<path fill="none" stroke="black" d="M661.69,-278.83C658.12,-261.51 657.64,-241.96 658.24,-225.35"/>
<polygon fill="#c806f9" stroke="black" points="661.76,-225.08 658.77,-214.92 654.77,-224.72 661.76,-225.08"/>
</g>
<!-- sympy&#45;&gt;ncpol3sdpa_resolution_constraints -->
<g id="edge30" class="edge">
<title>sympy&#45;&gt;ncpol3sdpa_resolution_constraints</title><style>.edge>path:hover{stroke-width:8}</style>
<path fill="none" stroke="black" d="M823.69,-459.01C830.87,-445.08 832.04,-428.04 830.97,-412.94"/>
<polygon fill="#c806f9" stroke="black" points="834.43,-412.45 829.91,-402.87 827.47,-413.18 834.43,-412.45"/>
</g>
<!-- sympy&#45;&gt;ncpol3sdpa_resolution_monomial -->
<g id="edge31" class="edge">
<title>sympy&#45;&gt;ncpol3sdpa_resolution_monomial</title><style>.edge>path:hover{stroke-width:8}</style>
<path fill="none" stroke="black" d="M742.69,-517.23C742.69,-485.36 779.74,-501.04 804.69,-481.23 814.35,-473.56 818.04,-471.97 823.69,-461.01"/>
<path fill="none" stroke="black" d="M823.69,-459.01C829.34,-448.05 813.66,-447.27 804.69,-438.8 786.57,-421.69 773.95,-424.5 761.69,-402.8 747.35,-377.41 742.89,-344.55 741.85,-319.34"/>
<polygon fill="#c806f9" stroke="black" points="745.34,-318.96 741.6,-309.05 738.35,-319.13 745.34,-318.96"/>
</g>
<!-- sympy&#45;&gt;ncpol3sdpa_resolution_rules -->
<g id="edge32" class="edge">
<title>sympy&#45;&gt;ncpol3sdpa_resolution_rules</title><style>.edge>path:hover{stroke-width:8}</style>
<path fill="none" stroke="black" d="M823.69,-459.01C841.37,-426.29 868.04,-435.54 885.69,-402.8 899.53,-377.13 904.02,-344.29 905.2,-319.16"/>
<polygon fill="#c806f9" stroke="black" points="908.71,-319 905.52,-308.9 901.71,-318.79 908.71,-319"/>
</g>
</g>
</svg>
