<?xml version="1.0" encoding="UTF-8" standalone="no"?>
<!DOCTYPE svg PUBLIC "-//W3C//DTD SVG 1.1//EN"
 "http://www.w3.org/Graphics/SVG/1.1/DTD/svg11.dtd">
<!-- Generated by graphviz version 2.43.0 (0)
 -->
<!-- Title: G Pages: 1 -->
<svg width="615pt" height="736pt"
 viewBox="0.00 0.00 614.72 736.34" xmlns="http://www.w3.org/2000/svg" xmlns:xlink="http://www.w3.org/1999/xlink">
<g id="graph0" class="graph" transform="scale(1 1) rotate(0) translate(4 732.34)">
<title>G</title><style>.edge>path:hover{stroke-width:8}</style>
<polygon fill="white" stroke="transparent" points="-4,4 -4,-732.34 610.72,-732.34 610.72,4 -4,4"/>
<!-- ncpol3sdpa -->
<g id="node1" class="node">
<title>ncpol3sdpa</title><style>.edge>path:hover{stroke-width:8}</style>
<polygon fill="blue" stroke="black" points="216.03,-36 144.03,-36 144.03,0 216.03,0 216.03,-36"/>
<text text-anchor="middle" x="180.03" y="-15.5" font-family="Helvetica,sans-Serif" font-size="10.00" fill="white">ncpol3sdpa</text>
</g>
<!-- ncpol3sdpa_algebra_to_SDP -->
<g id="node2" class="node">
<title>ncpol3sdpa_algebra_to_SDP</title><style>.edge>path:hover{stroke-width:8}</style>
<polygon fill="blue" stroke="black" points="231.53,-180 138.53,-180 138.53,-144 231.53,-144 231.53,-180"/>
<text text-anchor="middle" x="185.03" y="-165" font-family="Helvetica,sans-Serif" font-size="10.00" fill="white">ncpol3sdpa.</text>
<text text-anchor="middle" x="185.03" y="-154" font-family="Helvetica,sans-Serif" font-size="10.00" fill="white">algebra_to_SDP</text>
</g>
<!-- ncpol3sdpa_problem -->
<g id="node3" class="node">
<title>ncpol3sdpa_problem</title><style>.edge>path:hover{stroke-width:8}</style>
<polygon fill="blue" stroke="black" points="217.53,-108 142.53,-108 142.53,-72 217.53,-72 217.53,-108"/>
<text text-anchor="middle" x="180.03" y="-93" font-family="Helvetica,sans-Serif" font-size="10.00" fill="white">ncpol3sdpa.</text>
<text text-anchor="middle" x="180.03" y="-82" font-family="Helvetica,sans-Serif" font-size="10.00" fill="white">problem</text>
</g>
<!-- ncpol3sdpa_algebra_to_SDP&#45;&gt;ncpol3sdpa_problem -->
<g id="edge1" class="edge">
<title>ncpol3sdpa_algebra_to_SDP&#45;&gt;ncpol3sdpa_problem</title><style>.edge>path:hover{stroke-width:8}</style>
<path fill="none" stroke="black" d="M183.8,-143.7C183.25,-135.98 182.58,-126.71 181.97,-118.11"/>
<polygon fill="blue" stroke="black" points="185.46,-117.83 181.25,-108.1 178.48,-118.33 185.46,-117.83"/>
</g>
<!-- ncpol3sdpa_problem&#45;&gt;ncpol3sdpa -->
<g id="edge2" class="edge">
<title>ncpol3sdpa_problem&#45;&gt;ncpol3sdpa</title><style>.edge>path:hover{stroke-width:8}</style>
<path fill="none" stroke="black" d="M180.03,-71.7C180.03,-63.98 180.03,-54.71 180.03,-46.11"/>
<polygon fill="blue" stroke="black" points="183.53,-46.1 180.03,-36.1 176.53,-46.1 183.53,-46.1"/>
</g>
<!-- ncpol3sdpa_resolution -->
<g id="node4" class="node">
<title>ncpol3sdpa_resolution</title><style>.edge>path:hover{stroke-width:8}</style>
<ellipse fill="#bf2121" stroke="black" cx="172.03" cy="-237.21" rx="53.07" ry="21.43"/>
<text text-anchor="middle" x="172.03" y="-240.21" font-family="Helvetica,sans-Serif" font-size="10.00" fill="#ffffff">ncpol3sdpa.</text>
<text text-anchor="middle" x="172.03" y="-229.21" font-family="Helvetica,sans-Serif" font-size="10.00" fill="#ffffff">resolution</text>
</g>
<!-- ncpol3sdpa_resolution&#45;&gt;ncpol3sdpa -->
<g id="edge3" class="edge">
<title>ncpol3sdpa_resolution&#45;&gt;ncpol3sdpa</title><style>.edge>path:hover{stroke-width:8}</style>
<path fill="none" stroke="black" d="M146.39,-218.44C130.55,-205.32 112.75,-185.82 110.03,-163"/>
<path fill="none" stroke="black" d="M110.03,-161C105.2,-120.43 113.84,-108.06 133.03,-72 138.52,-61.69 146.4,-51.74 154.15,-43.3"/>
<polygon fill="#bf2121" stroke="black" points="156.75,-45.64 161.15,-36 151.7,-40.8 156.75,-45.64"/>
</g>
<!-- ncpol3sdpa_resolution&#45;&gt;ncpol3sdpa_algebra_to_SDP -->
<g id="edge4" class="edge">
<title>ncpol3sdpa_resolution&#45;&gt;ncpol3sdpa_algebra_to_SDP</title><style>.edge>path:hover{stroke-width:8}</style>
<path fill="none" stroke="black" d="M175.65,-215.82C177.06,-207.88 178.7,-198.66 180.21,-190.17"/>
<polygon fill="#bf2121" stroke="black" points="183.66,-190.77 181.96,-180.31 176.76,-189.54 183.66,-190.77"/>
</g>
<!-- ncpol3sdpa_resolution&#45;&gt;ncpol3sdpa_problem -->
<g id="edge5" class="edge">
<title>ncpol3sdpa_resolution&#45;&gt;ncpol3sdpa_problem</title><style>.edge>path:hover{stroke-width:8}</style>
<path fill="none" stroke="black" d="M110.03,-161C107.73,-141.67 121.17,-125.74 136.87,-113.99"/>
<polygon fill="#bf2121" stroke="black" points="138.97,-116.79 145.21,-108.23 134.99,-111.03 138.97,-116.79"/>
</g>
<!-- ncpol3sdpa_resolution_algebra -->
<g id="node5" class="node">
<title>ncpol3sdpa_resolution_algebra</title><style>.edge>path:hover{stroke-width:8}</style>
<ellipse fill="#a83838" stroke="black" cx="147.03" cy="-323.42" rx="53.07" ry="28.98"/>
<text text-anchor="middle" x="147.03" y="-331.92" font-family="Helvetica,sans-Serif" font-size="10.00" fill="#ffffff">ncpol3sdpa.</text>
<text text-anchor="middle" x="147.03" y="-320.92" font-family="Helvetica,sans-Serif" font-size="10.00" fill="#ffffff">resolution.</text>
<text text-anchor="middle" x="147.03" y="-309.92" font-family="Helvetica,sans-Serif" font-size="10.00" fill="#ffffff">algebra</text>
</g>
<!-- ncpol3sdpa_resolution_algebra&#45;&gt;ncpol3sdpa_resolution -->
<g id="edge6" class="edge">
<title>ncpol3sdpa_resolution_algebra&#45;&gt;ncpol3sdpa_resolution</title><style>.edge>path:hover{stroke-width:8}</style>
<path fill="none" stroke="black" d="M155.36,-294.38C157.87,-285.92 160.63,-276.6 163.18,-268.03"/>
<polygon fill="#a83838" stroke="black" points="166.55,-268.99 166.04,-258.41 159.83,-267 166.55,-268.99"/>
</g>
<!-- ncpol3sdpa_resolution_constraints -->
<g id="node6" class="node">
<title>ncpol3sdpa_resolution_constraints</title><style>.edge>path:hover{stroke-width:8}</style>
<ellipse fill="#db2f2f" stroke="black" cx="215.03" cy="-605.37" rx="53.07" ry="28.98"/>
<text text-anchor="middle" x="215.03" y="-613.87" font-family="Helvetica,sans-Serif" font-size="10.00" fill="#ffffff">ncpol3sdpa.</text>
<text text-anchor="middle" x="215.03" y="-602.87" font-family="Helvetica,sans-Serif" font-size="10.00" fill="#ffffff">resolution.</text>
<text text-anchor="middle" x="215.03" y="-591.87" font-family="Helvetica,sans-Serif" font-size="10.00" fill="#ffffff">constraints</text>
</g>
<!-- ncpol3sdpa_resolution_constraints&#45;&gt;ncpol3sdpa_resolution -->
<g id="edge7" class="edge">
<title>ncpol3sdpa_resolution_constraints&#45;&gt;ncpol3sdpa_resolution</title><style>.edge>path:hover{stroke-width:8}</style>
<path fill="none" stroke="black" d="M244.48,-581.12C256.48,-570.07 269.31,-555.88 277.03,-540.37 301.49,-491.26 284.95,-472.13 296.03,-418.4"/>
</g>
<!-- ncpol3sdpa_resolution_constraints&#45;&gt;ncpol3sdpa_resolution_algebra -->
<g id="edge8" class="edge">
<title>ncpol3sdpa_resolution_constraints&#45;&gt;ncpol3sdpa_resolution_algebra</title><style>.edge>path:hover{stroke-width:8}</style>
<path fill="none" stroke="black" d="M185.58,-581.12C173.59,-570.07 160.76,-555.88 153.03,-540.37 128.57,-491.26 141.4,-472.77 134.03,-418.4"/>
<path fill="none" stroke="black" d="M134.03,-416.4C131.14,-398.6 133.26,-378.81 136.55,-362.15"/>
<polygon fill="#db2f2f" stroke="black" points="140.01,-362.75 138.73,-352.24 133.17,-361.26 140.01,-362.75"/>
</g>
<!-- ncpol3sdpa_resolution_rules -->
<g id="node8" class="node">
<title>ncpol3sdpa_resolution_rules</title><style>.edge>path:hover{stroke-width:8}</style>
<ellipse fill="#d92626" stroke="black" cx="215.03" cy="-511.38" rx="53.07" ry="28.98"/>
<text text-anchor="middle" x="215.03" y="-519.88" font-family="Helvetica,sans-Serif" font-size="10.00" fill="#ffffff">ncpol3sdpa.</text>
<text text-anchor="middle" x="215.03" y="-508.88" font-family="Helvetica,sans-Serif" font-size="10.00" fill="#ffffff">resolution.</text>
<text text-anchor="middle" x="215.03" y="-497.88" font-family="Helvetica,sans-Serif" font-size="10.00" fill="#ffffff">rules</text>
</g>
<!-- ncpol3sdpa_resolution_constraints&#45;&gt;ncpol3sdpa_resolution_rules -->
<g id="edge9" class="edge">
<title>ncpol3sdpa_resolution_constraints&#45;&gt;ncpol3sdpa_resolution_rules</title><style>.edge>path:hover{stroke-width:8}</style>
<path fill="none" stroke="black" d="M215.03,-576.27C215.03,-568.23 215.03,-559.33 215.03,-550.79"/>
<polygon fill="#db2f2f" stroke="black" points="218.53,-550.63 215.03,-540.63 211.53,-550.63 218.53,-550.63"/>
</g>
<!-- ncpol3sdpa_resolution_monomial -->
<g id="node7" class="node">
<title>ncpol3sdpa_resolution_monomial</title><style>.edge>path:hover{stroke-width:8}</style>
<ellipse fill="#c24747" stroke="black" cx="53.03" cy="-417.4" rx="53.07" ry="28.98"/>
<text text-anchor="middle" x="53.03" y="-425.9" font-family="Helvetica,sans-Serif" font-size="10.00" fill="#ffffff">ncpol3sdpa.</text>
<text text-anchor="middle" x="53.03" y="-414.9" font-family="Helvetica,sans-Serif" font-size="10.00" fill="#ffffff">resolution.</text>
<text text-anchor="middle" x="53.03" y="-403.9" font-family="Helvetica,sans-Serif" font-size="10.00" fill="#ffffff">monomial</text>
</g>
<!-- ncpol3sdpa_resolution_monomial&#45;&gt;ncpol3sdpa_resolution_algebra -->
<g id="edge10" class="edge">
<title>ncpol3sdpa_resolution_monomial&#45;&gt;ncpol3sdpa_resolution_algebra</title><style>.edge>path:hover{stroke-width:8}</style>
<path fill="none" stroke="black" d="M78.22,-391.75C89.39,-380.82 102.67,-367.83 114.57,-356.18"/>
<polygon fill="#c24747" stroke="black" points="117.07,-358.63 121.77,-349.14 112.18,-353.63 117.07,-358.63"/>
</g>
<!-- ncpol3sdpa_resolution_rules&#45;&gt;ncpol3sdpa_resolution -->
<g id="edge11" class="edge">
<title>ncpol3sdpa_resolution_rules&#45;&gt;ncpol3sdpa_resolution</title><style>.edge>path:hover{stroke-width:8}</style>
<path fill="none" stroke="black" d="M247.02,-488.1C267.03,-471.64 290.1,-447.16 296.03,-418.4"/>
<path fill="none" stroke="black" d="M296.03,-416.4C304.29,-376.36 307.26,-363.73 296.03,-324.42"/>
</g>
<!-- ncpol3sdpa_resolution_rules&#45;&gt;ncpol3sdpa_resolution_algebra -->
<g id="edge12" class="edge">
<title>ncpol3sdpa_resolution_rules&#45;&gt;ncpol3sdpa_resolution_algebra</title><style>.edge>path:hover{stroke-width:8}</style>
<path fill="none" stroke="black" d="M181.78,-488.32C161.21,-471.95 137.98,-447.5 134.03,-418.4"/>
</g>
<!-- ncpol3sdpa_resolution_utils -->
<g id="node9" class="node">
<title>ncpol3sdpa_resolution_utils</title><style>.edge>path:hover{stroke-width:8}</style>
<ellipse fill="#cc3333" stroke="black" cx="215.03" cy="-417.4" rx="53.07" ry="28.98"/>
<text text-anchor="middle" x="215.03" y="-425.9" font-family="Helvetica,sans-Serif" font-size="10.00" fill="#ffffff">ncpol3sdpa.</text>
<text text-anchor="middle" x="215.03" y="-414.9" font-family="Helvetica,sans-Serif" font-size="10.00" fill="#ffffff">resolution.</text>
<text text-anchor="middle" x="215.03" y="-403.9" font-family="Helvetica,sans-Serif" font-size="10.00" fill="#ffffff">utils</text>
</g>
<!-- ncpol3sdpa_resolution_rules&#45;&gt;ncpol3sdpa_resolution_utils -->
<g id="edge13" class="edge">
<title>ncpol3sdpa_resolution_rules&#45;&gt;ncpol3sdpa_resolution_utils</title><style>.edge>path:hover{stroke-width:8}</style>
<path fill="none" stroke="black" d="M215.03,-482.29C215.03,-474.25 215.03,-465.35 215.03,-456.8"/>
<polygon fill="#d92626" stroke="black" points="218.53,-456.64 215.03,-446.64 211.53,-456.64 218.53,-456.64"/>
</g>
<!-- ncpol3sdpa_resolution_utils&#45;&gt;ncpol3sdpa_resolution -->
<g id="edge14" class="edge">
<title>ncpol3sdpa_resolution_utils&#45;&gt;ncpol3sdpa_resolution</title><style>.edge>path:hover{stroke-width:8}</style>
<path fill="none" stroke="black" d="M252.03,-396.42C277.21,-379.83 304.54,-354.19 296.03,-324.42"/>
<path fill="none" stroke="black" d="M296.03,-322.42C286.46,-288.89 252.93,-267.39 223.15,-254.51"/>
<polygon fill="#cc3333" stroke="black" points="224.23,-251.17 213.65,-250.63 221.59,-257.65 224.23,-251.17"/>
</g>
<!-- ncpol3sdpa_resolution_utils&#45;&gt;ncpol3sdpa_resolution_algebra -->
<g id="edge15" class="edge">
<title>ncpol3sdpa_resolution_utils&#45;&gt;ncpol3sdpa_resolution_algebra</title><style>.edge>path:hover{stroke-width:8}</style>
<path fill="none" stroke="black" d="M195.73,-390.29C188.48,-380.48 180.13,-369.18 172.41,-358.74"/>
<polygon fill="#cc3333" stroke="black" points="175.14,-356.56 166.39,-350.6 169.52,-360.72 175.14,-356.56"/>
</g>
<!-- ncpol3sdpa_sdp_repr -->
<g id="node10" class="node">
<title>ncpol3sdpa_sdp_repr</title><style>.edge>path:hover{stroke-width:8}</style>
<ellipse fill="#e50505" stroke="black" cx="465.03" cy="-511.38" rx="53.07" ry="21.43"/>
<text text-anchor="middle" x="465.03" y="-514.38" font-family="Helvetica,sans-Serif" font-size="10.00" fill="#ffffff">ncpol3sdpa.</text>
<text text-anchor="middle" x="465.03" y="-503.38" font-family="Helvetica,sans-Serif" font-size="10.00" fill="#ffffff">sdp_repr</text>
</g>
<!-- ncpol3sdpa_sdp_repr&#45;&gt;ncpol3sdpa_algebra_to_SDP -->
<g id="edge16" class="edge">
<title>ncpol3sdpa_sdp_repr&#45;&gt;ncpol3sdpa_algebra_to_SDP</title><style>.edge>path:hover{stroke-width:8}</style>
<path fill="none" stroke="black" d="M453.5,-490.33C443.71,-472.19 430.28,-444.41 424.03,-418.4"/>
<path fill="none" stroke="black" d="M424.03,-416.4C415.85,-382.34 398.44,-380.88 378.03,-352.41 369.13,-339.98 365.38,-337.83 358.03,-324.42"/>
<path fill="none" stroke="black" d="M358.03,-322.42C334.5,-279.49 316.36,-277.41 287.03,-238.21"/>
<path fill="none" stroke="black" d="M287.03,-236.21C271.45,-215.39 248.23,-198.07 227.88,-185.51"/>
<polygon fill="#e50505" stroke="black" points="229.45,-182.37 219.06,-180.25 225.86,-188.38 229.45,-182.37"/>
</g>
<!-- ncpol3sdpa_solvers -->
<g id="node14" class="node">
<title>ncpol3sdpa_solvers</title><style>.edge>path:hover{stroke-width:8}</style>
<polygon fill="blue" stroke="black" points="324.53,-180 249.53,-180 249.53,-144 324.53,-144 324.53,-180"/>
<text text-anchor="middle" x="287.03" y="-165" font-family="Helvetica,sans-Serif" font-size="10.00" fill="white">ncpol3sdpa.</text>
<text text-anchor="middle" x="287.03" y="-154" font-family="Helvetica,sans-Serif" font-size="10.00" fill="white">solvers</text>
</g>
<!-- ncpol3sdpa_sdp_repr&#45;&gt;ncpol3sdpa_solvers -->
<g id="edge17" class="edge">
<title>ncpol3sdpa_sdp_repr&#45;&gt;ncpol3sdpa_solvers</title><style>.edge>path:hover{stroke-width:8}</style>
<path fill="none" stroke="black" d="M287.03,-236.21C277.41,-223.36 277.29,-205.36 279.63,-190.43"/>
<polygon fill="#e50505" stroke="black" points="283.14,-190.7 281.67,-180.21 276.28,-189.33 283.14,-190.7"/>
</g>
<!-- ncpol3sdpa_solvers_cvxpy_solver -->
<g id="node15" class="node">
<title>ncpol3sdpa_solvers_cvxpy_solver</title><style>.edge>path:hover{stroke-width:8}</style>
<polygon fill="blue" stroke="black" points="499.53,-257.71 418.53,-257.71 418.53,-216.71 499.53,-216.71 499.53,-257.71"/>
<text text-anchor="middle" x="459.03" y="-245.71" font-family="Helvetica,sans-Serif" font-size="10.00" fill="white">ncpol3sdpa.</text>
<text text-anchor="middle" x="459.03" y="-234.71" font-family="Helvetica,sans-Serif" font-size="10.00" fill="white">solvers.</text>
<text text-anchor="middle" x="459.03" y="-223.71" font-family="Helvetica,sans-Serif" font-size="10.00" fill="white">cvxpy_solver</text>
</g>
<!-- ncpol3sdpa_sdp_repr&#45;&gt;ncpol3sdpa_solvers_cvxpy_solver -->
<g id="edge18" class="edge">
<title>ncpol3sdpa_sdp_repr&#45;&gt;ncpol3sdpa_solvers_cvxpy_solver</title><style>.edge>path:hover{stroke-width:8}</style>
<path fill="none" stroke="black" d="M424.03,-416.4C420.96,-401.68 434.19,-400.57 443.03,-388.41 454.95,-372.02 464.45,-371.58 471.03,-352.41 480.56,-324.65 475.16,-291.05 468.85,-267.51"/>
<polygon fill="#e50505" stroke="black" points="472.18,-266.41 466.04,-257.77 465.45,-268.35 472.18,-266.41"/>
</g>
<!-- ncpol3sdpa_solvers_mosek_solver -->
<g id="node16" class="node">
<title>ncpol3sdpa_solvers_mosek_solver</title><style>.edge>path:hover{stroke-width:8}</style>
<polygon fill="blue" stroke="black" points="400.53,-257.71 315.53,-257.71 315.53,-216.71 400.53,-216.71 400.53,-257.71"/>
<text text-anchor="middle" x="358.03" y="-245.71" font-family="Helvetica,sans-Serif" font-size="10.00" fill="white">ncpol3sdpa.</text>
<text text-anchor="middle" x="358.03" y="-234.71" font-family="Helvetica,sans-Serif" font-size="10.00" fill="white">solvers.</text>
<text text-anchor="middle" x="358.03" y="-223.71" font-family="Helvetica,sans-Serif" font-size="10.00" fill="white">mosek_solver</text>
</g>
<!-- ncpol3sdpa_sdp_repr&#45;&gt;ncpol3sdpa_solvers_mosek_solver -->
<g id="edge19" class="edge">
<title>ncpol3sdpa_sdp_repr&#45;&gt;ncpol3sdpa_solvers_mosek_solver</title><style>.edge>path:hover{stroke-width:8}</style>
<path fill="none" stroke="black" d="M358.03,-322.42C349.01,-305.96 349.04,-284.84 351.31,-267.87"/>
<polygon fill="#e50505" stroke="black" points="354.77,-268.35 352.95,-257.91 347.87,-267.21 354.77,-268.35"/>
</g>
<!-- ncpol3sdpa_solvers_solver -->
<g id="node17" class="node">
<title>ncpol3sdpa_solvers_solver</title><style>.edge>path:hover{stroke-width:8}</style>
<polygon fill="blue" stroke="black" points="461.53,-343.92 386.53,-343.92 386.53,-302.92 461.53,-302.92 461.53,-343.92"/>
<text text-anchor="middle" x="424.03" y="-331.92" font-family="Helvetica,sans-Serif" font-size="10.00" fill="white">ncpol3sdpa.</text>
<text text-anchor="middle" x="424.03" y="-320.92" font-family="Helvetica,sans-Serif" font-size="10.00" fill="white">solvers.</text>
<text text-anchor="middle" x="424.03" y="-309.92" font-family="Helvetica,sans-Serif" font-size="10.00" fill="white">solver</text>
</g>
<!-- ncpol3sdpa_sdp_repr&#45;&gt;ncpol3sdpa_solvers_solver -->
<g id="edge20" class="edge">
<title>ncpol3sdpa_sdp_repr&#45;&gt;ncpol3sdpa_solvers_solver</title><style>.edge>path:hover{stroke-width:8}</style>
<path fill="none" stroke="black" d="M424.03,-416.4C419.75,-395.88 419.86,-372.23 420.98,-354.04"/>
<polygon fill="#e50505" stroke="black" points="424.48,-354.27 421.74,-344.04 417.5,-353.74 424.48,-354.27"/>
</g>
<!-- ncpol3sdpa_sos -->
<g id="node18" class="node">
<title>ncpol3sdpa_sos</title><style>.edge>path:hover{stroke-width:8}</style>
<ellipse fill="#ac4949" stroke="black" cx="506.03" cy="-417.4" rx="54.31" ry="18"/>
<text text-anchor="middle" x="506.03" y="-414.9" font-family="Helvetica,sans-Serif" font-size="10.00" fill="#ffffff">ncpol3sdpa.sos</text>
</g>
<!-- ncpol3sdpa_sdp_repr&#45;&gt;ncpol3sdpa_sos -->
<g id="edge21" class="edge">
<title>ncpol3sdpa_sdp_repr&#45;&gt;ncpol3sdpa_sos</title><style>.edge>path:hover{stroke-width:8}</style>
<path fill="none" stroke="black" d="M473.93,-490.42C479.9,-477.03 487.83,-459.24 494.31,-444.7"/>
<polygon fill="#e50505" stroke="black" points="497.65,-445.8 498.53,-435.24 491.26,-442.95 497.65,-445.8"/>
</g>
<!-- ncpol3sdpa_sdp_repr_eq_constraint -->
<g id="node11" class="node">
<title>ncpol3sdpa_sdp_repr_eq_constraint</title><style>.edge>path:hover{stroke-width:8}</style>
<ellipse fill="#ce3b3b" stroke="black" cx="548.03" cy="-699.35" rx="58.88" ry="28.98"/>
<text text-anchor="middle" x="548.03" y="-707.85" font-family="Helvetica,sans-Serif" font-size="10.00" fill="#ffffff">ncpol3sdpa.</text>
<text text-anchor="middle" x="548.03" y="-696.85" font-family="Helvetica,sans-Serif" font-size="10.00" fill="#ffffff">sdp_repr.</text>
<text text-anchor="middle" x="548.03" y="-685.85" font-family="Helvetica,sans-Serif" font-size="10.00" fill="#ffffff">eq_constraint</text>
</g>
<!-- ncpol3sdpa_sdp_repr_eq_constraint&#45;&gt;ncpol3sdpa_sdp_repr -->
<g id="edge22" class="edge">
<title>ncpol3sdpa_sdp_repr_eq_constraint&#45;&gt;ncpol3sdpa_sdp_repr</title><style>.edge>path:hover{stroke-width:8}</style>
<path fill="none" stroke="black" d="M549.52,-670.16C549.71,-644.39 547.01,-605.9 532.03,-576.37 524.27,-561.08 511.35,-547.42 498.92,-536.69"/>
<polygon fill="#ce3b3b" stroke="black" points="500.82,-533.73 490.87,-530.08 496.37,-539.13 500.82,-533.73"/>
</g>
<!-- ncpol3sdpa_sdp_repr_problem_SDP -->
<g id="node13" class="node">
<title>ncpol3sdpa_sdp_repr_problem_SDP</title><style>.edge>path:hover{stroke-width:8}</style>
<ellipse fill="#b83d3d" stroke="black" cx="465.03" cy="-605.37" rx="57.97" ry="28.98"/>
<text text-anchor="middle" x="465.03" y="-613.87" font-family="Helvetica,sans-Serif" font-size="10.00" fill="#ffffff">ncpol3sdpa.</text>
<text text-anchor="middle" x="465.03" y="-602.87" font-family="Helvetica,sans-Serif" font-size="10.00" fill="#ffffff">sdp_repr.</text>
<text text-anchor="middle" x="465.03" y="-591.87" font-family="Helvetica,sans-Serif" font-size="10.00" fill="#ffffff">problem_SDP</text>
</g>
<!-- ncpol3sdpa_sdp_repr_eq_constraint&#45;&gt;ncpol3sdpa_sdp_repr_problem_SDP -->
<g id="edge23" class="edge">
<title>ncpol3sdpa_sdp_repr_eq_constraint&#45;&gt;ncpol3sdpa_sdp_repr_problem_SDP</title><style>.edge>path:hover{stroke-width:8}</style>
<path fill="none" stroke="black" d="M524.47,-672.24C515.37,-662.15 504.84,-650.48 495.2,-639.8"/>
<polygon fill="#ce3b3b" stroke="black" points="497.66,-637.31 488.37,-632.23 492.47,-641.99 497.66,-637.31"/>
</g>
<!-- ncpol3sdpa_sdp_repr_moment_matrix_SDP -->
<g id="node12" class="node">
<title>ncpol3sdpa_sdp_repr_moment_matrix_SDP</title><style>.edge>path:hover{stroke-width:8}</style>
<ellipse fill="#ce3b3b" stroke="black" cx="384.03" cy="-699.35" rx="84.71" ry="28.98"/>
<text text-anchor="middle" x="384.03" y="-707.85" font-family="Helvetica,sans-Serif" font-size="10.00" fill="#ffffff">ncpol3sdpa.</text>
<text text-anchor="middle" x="384.03" y="-696.85" font-family="Helvetica,sans-Serif" font-size="10.00" fill="#ffffff">sdp_repr.</text>
<text text-anchor="middle" x="384.03" y="-685.85" font-family="Helvetica,sans-Serif" font-size="10.00" fill="#ffffff">moment_matrix_SDP</text>
</g>
<!-- ncpol3sdpa_sdp_repr_moment_matrix_SDP&#45;&gt;ncpol3sdpa_sdp_repr -->
<g id="edge24" class="edge">
<title>ncpol3sdpa_sdp_repr_moment_matrix_SDP&#45;&gt;ncpol3sdpa_sdp_repr</title><style>.edge>path:hover{stroke-width:8}</style>
<path fill="none" stroke="black" d="M381.98,-670.19C381.3,-644.43 383.33,-605.96 398.03,-576.37 405.67,-561.01 418.57,-547.35 431.02,-536.63"/>
<polygon fill="#ce3b3b" stroke="black" points="433.57,-539.07 439.08,-530.02 429.13,-533.65 433.57,-539.07"/>
</g>
<!-- ncpol3sdpa_sdp_repr_moment_matrix_SDP&#45;&gt;ncpol3sdpa_sdp_repr_problem_SDP -->
<g id="edge25" class="edge">
<title>ncpol3sdpa_sdp_repr_moment_matrix_SDP&#45;&gt;ncpol3sdpa_sdp_repr_problem_SDP</title><style>.edge>path:hover{stroke-width:8}</style>
<path fill="none" stroke="black" d="M407.9,-671.25C416.52,-661.45 426.37,-650.27 435.43,-639.98"/>
<polygon fill="#ce3b3b" stroke="black" points="438.19,-642.14 442.17,-632.33 432.94,-637.52 438.19,-642.14"/>
</g>
<!-- ncpol3sdpa_sdp_repr_problem_SDP&#45;&gt;ncpol3sdpa_sdp_repr -->
<g id="edge26" class="edge">
<title>ncpol3sdpa_sdp_repr_problem_SDP&#45;&gt;ncpol3sdpa_sdp_repr</title><style>.edge>path:hover{stroke-width:8}</style>
<path fill="none" stroke="black" d="M465.03,-576.27C465.03,-565.73 465.03,-553.7 465.03,-542.95"/>
<polygon fill="#b83d3d" stroke="black" points="468.53,-542.72 465.03,-532.72 461.53,-542.72 468.53,-542.72"/>
</g>
<!-- ncpol3sdpa_solvers&#45;&gt;ncpol3sdpa -->
<g id="edge27" class="edge">
<title>ncpol3sdpa_solvers&#45;&gt;ncpol3sdpa</title><style>.edge>path:hover{stroke-width:8}</style>
<path fill="none" stroke="black" d="M276.12,-143.86C264.33,-125.64 244.7,-96.16 226.03,-72 218.73,-62.55 210.28,-52.57 202.63,-43.85"/>
<polygon fill="blue" stroke="black" points="205.14,-41.4 195.88,-36.24 199.9,-46.05 205.14,-41.4"/>
</g>
<!-- ncpol3sdpa_solvers&#45;&gt;ncpol3sdpa_problem -->
<g id="edge28" class="edge">
<title>ncpol3sdpa_solvers&#45;&gt;ncpol3sdpa_problem</title><style>.edge>path:hover{stroke-width:8}</style>
<path fill="none" stroke="black" d="M260.86,-143.88C247,-134.81 229.79,-123.55 214.82,-113.76"/>
<polygon fill="blue" stroke="black" points="216.59,-110.74 206.31,-108.19 212.76,-116.59 216.59,-110.74"/>
</g>
<!-- ncpol3sdpa_solvers_cvxpy_solver&#45;&gt;ncpol3sdpa_solvers -->
<g id="edge29" class="edge">
<title>ncpol3sdpa_solvers_cvxpy_solver&#45;&gt;ncpol3sdpa_solvers</title><style>.edge>path:hover{stroke-width:8}</style>
<path fill="none" stroke="black" d="M418.27,-218.86C392.97,-208.09 360.36,-194.21 333.98,-182.98"/>
<polygon fill="blue" stroke="black" points="335.14,-179.67 324.56,-178.98 332.39,-186.11 335.14,-179.67"/>
</g>
<!-- ncpol3sdpa_solvers_mosek_solver&#45;&gt;ncpol3sdpa_solvers -->
<g id="edge30" class="edge">
<title>ncpol3sdpa_solvers_mosek_solver&#45;&gt;ncpol3sdpa_solvers</title><style>.edge>path:hover{stroke-width:8}</style>
<path fill="none" stroke="black" d="M339.01,-216.59C330.32,-207.64 319.94,-196.94 310.75,-187.46"/>
<polygon fill="blue" stroke="black" points="313.17,-184.92 303.69,-180.18 308.14,-189.8 313.17,-184.92"/>
</g>
<!-- ncpol3sdpa_solvers_solver&#45;&gt;ncpol3sdpa_solvers_cvxpy_solver -->
<g id="edge31" class="edge">
<title>ncpol3sdpa_solvers_solver&#45;&gt;ncpol3sdpa_solvers_cvxpy_solver</title><style>.edge>path:hover{stroke-width:8}</style>
<path fill="none" stroke="black" d="M432.15,-302.89C436.54,-292.34 442.04,-279.1 446.92,-267.35"/>
<polygon fill="blue" stroke="black" points="450.23,-268.51 450.84,-257.93 443.77,-265.82 450.23,-268.51"/>
</g>
<!-- ncpol3sdpa_solvers_solver&#45;&gt;ncpol3sdpa_solvers_mosek_solver -->
<g id="edge32" class="edge">
<title>ncpol3sdpa_solvers_solver&#45;&gt;ncpol3sdpa_solvers_mosek_solver</title><style>.edge>path:hover{stroke-width:8}</style>
<path fill="none" stroke="black" d="M408.73,-302.89C400.12,-291.91 389.25,-278.04 379.77,-265.95"/>
<polygon fill="blue" stroke="black" points="382.41,-263.64 373.49,-257.93 376.9,-267.96 382.41,-263.64"/>
</g>
</g>
</svg>
