<?xml version="1.0" encoding="UTF-8" standalone="no"?>
<!DOCTYPE svg PUBLIC "-//W3C//DTD SVG 1.1//EN"
 "http://www.w3.org/Graphics/SVG/1.1/DTD/svg11.dtd">
<!-- Generated by graphviz version 2.43.0 (0)
 -->
<!-- Title: G Pages: 1 -->
<svg width="742pt" height="795pt"
 viewBox="0.00 0.00 741.53 794.93" xmlns="http://www.w3.org/2000/svg" xmlns:xlink="http://www.w3.org/1999/xlink">
<g id="graph0" class="graph" transform="scale(1 1) rotate(0) translate(4 790.93)">
<title>G</title><style>.edge>path:hover{stroke-width:8}</style>
<polygon fill="white" stroke="transparent" points="-4,4 -4,-790.93 737.53,-790.93 737.53,4 -4,4"/>
<!-- ncpol3sdpa -->
<g id="node1" class="node">
<title>ncpol3sdpa</title><style>.edge>path:hover{stroke-width:8}</style>
<polygon fill="blue" stroke="black" points="422.03,-36 350.03,-36 350.03,0 422.03,0 422.03,-36"/>
<text text-anchor="middle" x="386.03" y="-15.5" font-family="Helvetica,sans-Serif" font-size="10.00" fill="white">ncpol3sdpa</text>
</g>
<!-- ncpol3sdpa_algebra_to_SDP -->
<g id="node2" class="node">
<title>ncpol3sdpa_algebra_to_SDP</title><style>.edge>path:hover{stroke-width:8}</style>
<polygon fill="blue" stroke="black" points="437.53,-180 344.53,-180 344.53,-144 437.53,-144 437.53,-180"/>
<text text-anchor="middle" x="391.03" y="-165" font-family="Helvetica,sans-Serif" font-size="10.00" fill="white">ncpol3sdpa.</text>
<text text-anchor="middle" x="391.03" y="-154" font-family="Helvetica,sans-Serif" font-size="10.00" fill="white">algebra_to_SDP</text>
</g>
<!-- ncpol3sdpa_problem -->
<g id="node3" class="node">
<title>ncpol3sdpa_problem</title><style>.edge>path:hover{stroke-width:8}</style>
<polygon fill="blue" stroke="black" points="423.53,-108 348.53,-108 348.53,-72 423.53,-72 423.53,-108"/>
<text text-anchor="middle" x="386.03" y="-93" font-family="Helvetica,sans-Serif" font-size="10.00" fill="white">ncpol3sdpa.</text>
<text text-anchor="middle" x="386.03" y="-82" font-family="Helvetica,sans-Serif" font-size="10.00" fill="white">problem</text>
</g>
<!-- ncpol3sdpa_algebra_to_SDP&#45;&gt;ncpol3sdpa_problem -->
<g id="edge1" class="edge">
<title>ncpol3sdpa_algebra_to_SDP&#45;&gt;ncpol3sdpa_problem</title><style>.edge>path:hover{stroke-width:8}</style>
<path fill="none" stroke="black" d="M389.8,-143.7C389.25,-135.98 388.58,-126.71 387.97,-118.11"/>
<polygon fill="blue" stroke="black" points="391.46,-117.83 387.25,-108.1 384.48,-118.33 391.46,-117.83"/>
</g>
<!-- ncpol3sdpa_problem&#45;&gt;ncpol3sdpa -->
<g id="edge2" class="edge">
<title>ncpol3sdpa_problem&#45;&gt;ncpol3sdpa</title><style>.edge>path:hover{stroke-width:8}</style>
<path fill="none" stroke="black" d="M386.03,-71.7C386.03,-63.98 386.03,-54.71 386.03,-46.11"/>
<polygon fill="blue" stroke="black" points="389.53,-46.1 386.03,-36.1 382.53,-46.1 389.53,-46.1"/>
</g>
<!-- ncpol3sdpa_resolution -->
<g id="node4" class="node">
<title>ncpol3sdpa_resolution</title><style>.edge>path:hover{stroke-width:8}</style>
<polygon fill="blue" stroke="black" points="256.53,-254.5 181.53,-254.5 181.53,-218.5 256.53,-218.5 256.53,-254.5"/>
<text text-anchor="middle" x="219.03" y="-239.5" font-family="Helvetica,sans-Serif" font-size="10.00" fill="white">ncpol3sdpa.</text>
<text text-anchor="middle" x="219.03" y="-228.5" font-family="Helvetica,sans-Serif" font-size="10.00" fill="white">resolution</text>
</g>
<!-- ncpol3sdpa_resolution&#45;&gt;ncpol3sdpa -->
<g id="edge3" class="edge">
<title>ncpol3sdpa_resolution&#45;&gt;ncpol3sdpa</title><style>.edge>path:hover{stroke-width:8}</style>
<path fill="none" stroke="black" d="M249.27,-218.38C270.16,-205.35 297.43,-185.81 316.03,-163"/>
<path fill="none" stroke="black" d="M316.03,-161C341.93,-129.25 320.78,-108.17 340.03,-72 345.47,-61.79 353.2,-51.86 360.77,-43.41"/>
<polygon fill="blue" stroke="black" points="363.34,-45.8 367.62,-36.1 358.23,-41.01 363.34,-45.8"/>
</g>
<!-- ncpol3sdpa_resolution&#45;&gt;ncpol3sdpa_algebra_to_SDP -->
<g id="edge4" class="edge">
<title>ncpol3sdpa_resolution&#45;&gt;ncpol3sdpa_algebra_to_SDP</title><style>.edge>path:hover{stroke-width:8}</style>
<path fill="none" stroke="black" d="M256.78,-219.59C281.64,-209.11 314.45,-195.28 341.41,-183.92"/>
<polygon fill="blue" stroke="black" points="342.82,-187.12 350.68,-180.01 340.1,-180.67 342.82,-187.12"/>
</g>
<!-- ncpol3sdpa_resolution&#45;&gt;ncpol3sdpa_problem -->
<g id="edge5" class="edge">
<title>ncpol3sdpa_resolution&#45;&gt;ncpol3sdpa_problem</title><style>.edge>path:hover{stroke-width:8}</style>
<path fill="none" stroke="black" d="M316.03,-161C329.2,-144.86 345.59,-128.31 359.2,-115.36"/>
<polygon fill="blue" stroke="black" points="361.95,-117.57 366.85,-108.18 357.16,-112.47 361.95,-117.57"/>
</g>
<!-- ncpol3sdpa_resolution_algebra -->
<g id="node5" class="node">
<title>ncpol3sdpa_resolution_algebra</title><style>.edge>path:hover{stroke-width:8}</style>
<ellipse fill="#ca1616" stroke="black" cx="200.03" cy="-475.99" rx="53.07" ry="28.98"/>
<text text-anchor="middle" x="200.03" y="-484.49" font-family="Helvetica,sans-Serif" font-size="10.00" fill="#ffffff">ncpol3sdpa.</text>
<text text-anchor="middle" x="200.03" y="-473.49" font-family="Helvetica,sans-Serif" font-size="10.00" fill="#ffffff">resolution.</text>
<text text-anchor="middle" x="200.03" y="-462.49" font-family="Helvetica,sans-Serif" font-size="10.00" fill="#ffffff">algebra</text>
</g>
<!-- ncpol3sdpa_resolution_algebra&#45;&gt;ncpol3sdpa_resolution -->
<g id="edge6" class="edge">
<title>ncpol3sdpa_resolution_algebra&#45;&gt;ncpol3sdpa_resolution</title><style>.edge>path:hover{stroke-width:8}</style>
<path fill="none" stroke="black" d="M169.29,-451.98C151.86,-436.93 131.66,-415.64 122.03,-391.5"/>
<path fill="none" stroke="black" d="M122.03,-389.5C108.19,-354.79 69.3,-348.84 84.03,-314.5"/>
</g>
<!-- ncpol3sdpa_resolution_algebra_sdp_complex -->
<g id="node6" class="node">
<title>ncpol3sdpa_resolution_algebra_sdp_complex</title><style>.edge>path:hover{stroke-width:8}</style>
<polygon fill="blue" stroke="black" points="391.53,-411 268.53,-411 268.53,-370 391.53,-370 391.53,-411"/>
<text text-anchor="middle" x="330.03" y="-399" font-family="Helvetica,sans-Serif" font-size="10.00" fill="white">ncpol3sdpa.</text>
<text text-anchor="middle" x="330.03" y="-388" font-family="Helvetica,sans-Serif" font-size="10.00" fill="white">resolution.</text>
<text text-anchor="middle" x="330.03" y="-377" font-family="Helvetica,sans-Serif" font-size="10.00" fill="white">algebra_sdp_complex</text>
</g>
<!-- ncpol3sdpa_resolution_algebra&#45;&gt;ncpol3sdpa_resolution_algebra_sdp_complex -->
<g id="edge7" class="edge">
<title>ncpol3sdpa_resolution_algebra&#45;&gt;ncpol3sdpa_resolution_algebra_sdp_complex</title><style>.edge>path:hover{stroke-width:8}</style>
<path fill="none" stroke="black" d="M233.51,-453.49C250.97,-442.28 272.42,-428.5 290.67,-416.78"/>
<polygon fill="#ca1616" stroke="black" points="292.82,-419.56 299.34,-411.21 289.04,-413.67 292.82,-419.56"/>
</g>
<!-- ncpol3sdpa_resolution_algebra_sdp_real -->
<g id="node7" class="node">
<title>ncpol3sdpa_resolution_algebra_sdp_real</title><style>.edge>path:hover{stroke-width:8}</style>
<polygon fill="blue" stroke="black" points="250.03,-411 150.03,-411 150.03,-370 250.03,-370 250.03,-411"/>
<text text-anchor="middle" x="200.03" y="-399" font-family="Helvetica,sans-Serif" font-size="10.00" fill="white">ncpol3sdpa.</text>
<text text-anchor="middle" x="200.03" y="-388" font-family="Helvetica,sans-Serif" font-size="10.00" fill="white">resolution.</text>
<text text-anchor="middle" x="200.03" y="-377" font-family="Helvetica,sans-Serif" font-size="10.00" fill="white">algebra_sdp_real</text>
</g>
<!-- ncpol3sdpa_resolution_algebra&#45;&gt;ncpol3sdpa_resolution_algebra_sdp_real -->
<g id="edge8" class="edge">
<title>ncpol3sdpa_resolution_algebra&#45;&gt;ncpol3sdpa_resolution_algebra_sdp_real</title><style>.edge>path:hover{stroke-width:8}</style>
<path fill="none" stroke="black" d="M200.03,-446.73C200.03,-438.48 200.03,-429.44 200.03,-421.11"/>
<polygon fill="#ca1616" stroke="black" points="203.53,-421.05 200.03,-411.05 196.53,-421.05 203.53,-421.05"/>
</g>
<!-- ncpol3sdpa_resolution_create_algebra -->
<g id="node9" class="node">
<title>ncpol3sdpa_resolution_create_algebra</title><style>.edge>path:hover{stroke-width:8}</style>
<polygon fill="blue" stroke="black" points="201.53,-334 112.53,-334 112.53,-293 201.53,-293 201.53,-334"/>
<text text-anchor="middle" x="157.03" y="-322" font-family="Helvetica,sans-Serif" font-size="10.00" fill="white">ncpol3sdpa.</text>
<text text-anchor="middle" x="157.03" y="-311" font-family="Helvetica,sans-Serif" font-size="10.00" fill="white">resolution.</text>
<text text-anchor="middle" x="157.03" y="-300" font-family="Helvetica,sans-Serif" font-size="10.00" fill="white">create_algebra</text>
</g>
<!-- ncpol3sdpa_resolution_algebra&#45;&gt;ncpol3sdpa_resolution_create_algebra -->
<g id="edge9" class="edge">
<title>ncpol3sdpa_resolution_algebra&#45;&gt;ncpol3sdpa_resolution_create_algebra</title><style>.edge>path:hover{stroke-width:8}</style>
<path fill="none" stroke="black" d="M122.03,-389.5C115.73,-373.7 122.75,-356.46 132.11,-342.51"/>
<polygon fill="#ca1616" stroke="black" points="135.05,-344.42 138.15,-334.28 129.41,-340.27 135.05,-344.42"/>
</g>
<!-- ncpol3sdpa_resolution_algebra_sdp_complex&#45;&gt;ncpol3sdpa_resolution_create_algebra -->
<g id="edge10" class="edge">
<title>ncpol3sdpa_resolution_algebra_sdp_complex&#45;&gt;ncpol3sdpa_resolution_create_algebra</title><style>.edge>path:hover{stroke-width:8}</style>
<path fill="none" stroke="black" d="M285.03,-369.99C262.4,-360.18 234.81,-348.22 211.05,-337.92"/>
<polygon fill="blue" stroke="black" points="212.38,-334.68 201.81,-333.91 209.59,-341.1 212.38,-334.68"/>
</g>
<!-- ncpol3sdpa_resolution_algebra_sdp_real&#45;&gt;ncpol3sdpa_resolution_create_algebra -->
<g id="edge11" class="edge">
<title>ncpol3sdpa_resolution_algebra_sdp_real&#45;&gt;ncpol3sdpa_resolution_create_algebra</title><style>.edge>path:hover{stroke-width:8}</style>
<path fill="none" stroke="black" d="M188.74,-369.79C184.04,-361.61 178.51,-351.96 173.39,-343.03"/>
<polygon fill="blue" stroke="black" points="176.27,-341.01 168.26,-334.07 170.19,-344.49 176.27,-341.01"/>
</g>
<!-- ncpol3sdpa_resolution_constraints -->
<g id="node8" class="node">
<title>ncpol3sdpa_resolution_constraints</title><style>.edge>path:hover{stroke-width:8}</style>
<ellipse fill="#db2f2f" stroke="black" cx="134.03" cy="-663.96" rx="53.07" ry="28.98"/>
<text text-anchor="middle" x="134.03" y="-672.46" font-family="Helvetica,sans-Serif" font-size="10.00" fill="#ffffff">ncpol3sdpa.</text>
<text text-anchor="middle" x="134.03" y="-661.46" font-family="Helvetica,sans-Serif" font-size="10.00" fill="#ffffff">resolution.</text>
<text text-anchor="middle" x="134.03" y="-650.46" font-family="Helvetica,sans-Serif" font-size="10.00" fill="#ffffff">constraints</text>
</g>
<!-- ncpol3sdpa_resolution_constraints&#45;&gt;ncpol3sdpa_resolution -->
<g id="edge12" class="edge">
<title>ncpol3sdpa_resolution_constraints&#45;&gt;ncpol3sdpa_resolution</title><style>.edge>path:hover{stroke-width:8}</style>
<path fill="none" stroke="black" d="M185.85,-657.65C255.36,-649.4 373.31,-631 401.03,-598.97 461.63,-528.96 430.14,-483.54 420.03,-391.5"/>
</g>
<!-- ncpol3sdpa_resolution_constraints&#45;&gt;ncpol3sdpa_resolution_algebra -->
<g id="edge13" class="edge">
<title>ncpol3sdpa_resolution_constraints&#45;&gt;ncpol3sdpa_resolution_algebra</title><style>.edge>path:hover{stroke-width:8}</style>
<path fill="none" stroke="black" d="M134.64,-634.81C136.06,-609.41 140.36,-571.46 153.03,-540.98 157.45,-530.36 163.98,-519.86 170.78,-510.54"/>
<polygon fill="#db2f2f" stroke="black" points="173.76,-512.41 177.04,-502.34 168.19,-508.16 173.76,-512.41"/>
</g>
<!-- ncpol3sdpa_resolution_rules -->
<g id="node11" class="node">
<title>ncpol3sdpa_resolution_rules</title><style>.edge>path:hover{stroke-width:8}</style>
<ellipse fill="#d92626" stroke="black" cx="53.03" cy="-569.97" rx="53.07" ry="28.98"/>
<text text-anchor="middle" x="53.03" y="-578.47" font-family="Helvetica,sans-Serif" font-size="10.00" fill="#ffffff">ncpol3sdpa.</text>
<text text-anchor="middle" x="53.03" y="-567.47" font-family="Helvetica,sans-Serif" font-size="10.00" fill="#ffffff">resolution.</text>
<text text-anchor="middle" x="53.03" y="-556.47" font-family="Helvetica,sans-Serif" font-size="10.00" fill="#ffffff">rules</text>
</g>
<!-- ncpol3sdpa_resolution_constraints&#45;&gt;ncpol3sdpa_resolution_rules -->
<g id="edge14" class="edge">
<title>ncpol3sdpa_resolution_constraints&#45;&gt;ncpol3sdpa_resolution_rules</title><style>.edge>path:hover{stroke-width:8}</style>
<path fill="none" stroke="black" d="M111.47,-637.33C102.43,-627.07 91.89,-615.11 82.28,-604.19"/>
<polygon fill="#db2f2f" stroke="black" points="84.71,-601.65 75.48,-596.46 79.46,-606.28 84.71,-601.65"/>
</g>
<!-- ncpol3sdpa_resolution_create_algebra&#45;&gt;ncpol3sdpa_resolution -->
<g id="edge15" class="edge">
<title>ncpol3sdpa_resolution_create_algebra&#45;&gt;ncpol3sdpa_resolution</title><style>.edge>path:hover{stroke-width:8}</style>
<path fill="none" stroke="black" d="M173.32,-292.79C180.95,-283.57 190.12,-272.48 198.23,-262.66"/>
<polygon fill="blue" stroke="black" points="201.08,-264.71 204.75,-254.78 195.68,-260.25 201.08,-264.71"/>
</g>
<!-- ncpol3sdpa_resolution_monomial -->
<g id="node10" class="node">
<title>ncpol3sdpa_resolution_monomial</title><style>.edge>path:hover{stroke-width:8}</style>
<ellipse fill="#c24747" stroke="black" cx="215.03" cy="-569.97" rx="53.07" ry="28.98"/>
<text text-anchor="middle" x="215.03" y="-578.47" font-family="Helvetica,sans-Serif" font-size="10.00" fill="#ffffff">ncpol3sdpa.</text>
<text text-anchor="middle" x="215.03" y="-567.47" font-family="Helvetica,sans-Serif" font-size="10.00" fill="#ffffff">resolution.</text>
<text text-anchor="middle" x="215.03" y="-556.47" font-family="Helvetica,sans-Serif" font-size="10.00" fill="#ffffff">monomial</text>
</g>
<!-- ncpol3sdpa_resolution_monomial&#45;&gt;ncpol3sdpa_resolution_algebra -->
<g id="edge16" class="edge">
<title>ncpol3sdpa_resolution_monomial&#45;&gt;ncpol3sdpa_resolution_algebra</title><style>.edge>path:hover{stroke-width:8}</style>
<path fill="none" stroke="black" d="M210.45,-540.88C209.11,-532.67 207.63,-523.57 206.21,-514.87"/>
<polygon fill="#c24747" stroke="black" points="209.65,-514.22 204.59,-504.92 202.74,-515.35 209.65,-514.22"/>
</g>
<!-- ncpol3sdpa_resolution_rules&#45;&gt;ncpol3sdpa_resolution -->
<g id="edge17" class="edge">
<title>ncpol3sdpa_resolution_rules&#45;&gt;ncpol3sdpa_resolution</title><style>.edge>path:hover{stroke-width:8}</style>
<path fill="none" stroke="black" d="M57.09,-540.84C62.35,-505.7 72.26,-443.83 84.03,-391.5"/>
<path fill="none" stroke="black" d="M84.03,-389.5C94.32,-357.79 70.89,-345.13 84.03,-314.5"/>
<path fill="none" stroke="black" d="M84.03,-312.5C99.07,-277.44 139.1,-258.19 171.69,-248"/>
<polygon fill="#d92626" stroke="black" points="172.91,-251.29 181.53,-245.12 170.95,-244.57 172.91,-251.29"/>
</g>
<!-- ncpol3sdpa_resolution_rules&#45;&gt;ncpol3sdpa_resolution_algebra -->
<g id="edge18" class="edge">
<title>ncpol3sdpa_resolution_rules&#45;&gt;ncpol3sdpa_resolution_algebra</title><style>.edge>path:hover{stroke-width:8}</style>
<path fill="none" stroke="black" d="M87.13,-547.64C108.02,-534.57 134.94,-517.72 157.25,-503.76"/>
<polygon fill="#d92626" stroke="black" points="159.25,-506.64 165.87,-498.37 155.54,-500.71 159.25,-506.64"/>
</g>
<!-- ncpol3sdpa_resolution_rules&#45;&gt;ncpol3sdpa_resolution_create_algebra -->
<g id="edge19" class="edge">
<title>ncpol3sdpa_resolution_rules&#45;&gt;ncpol3sdpa_resolution_create_algebra</title><style>.edge>path:hover{stroke-width:8}</style>
<path fill="none" stroke="black" d="M84.03,-389.5C88.44,-369.91 102.65,-353.25 117.38,-340.65"/>
<polygon fill="#d92626" stroke="black" points="119.96,-343.07 125.55,-334.07 115.57,-337.61 119.96,-343.07"/>
</g>
<!-- ncpol3sdpa_resolution_utils -->
<g id="node12" class="node">
<title>ncpol3sdpa_resolution_utils</title><style>.edge>path:hover{stroke-width:8}</style>
<ellipse fill="#e72222" stroke="black" cx="339.03" cy="-569.97" rx="53.07" ry="28.98"/>
<text text-anchor="middle" x="339.03" y="-578.47" font-family="Helvetica,sans-Serif" font-size="10.00" fill="#ffffff">ncpol3sdpa.</text>
<text text-anchor="middle" x="339.03" y="-567.47" font-family="Helvetica,sans-Serif" font-size="10.00" fill="#ffffff">resolution.</text>
<text text-anchor="middle" x="339.03" y="-556.47" font-family="Helvetica,sans-Serif" font-size="10.00" fill="#ffffff">utils</text>
</g>
<!-- ncpol3sdpa_resolution_utils&#45;&gt;ncpol3sdpa_resolution -->
<g id="edge20" class="edge">
<title>ncpol3sdpa_resolution_utils&#45;&gt;ncpol3sdpa_resolution</title><style>.edge>path:hover{stroke-width:8}</style>
<path fill="none" stroke="black" d="M382.03,-474.99C377.49,-434.48 415.58,-432.03 420.03,-391.5"/>
<path fill="none" stroke="black" d="M420.03,-389.5C428.51,-312.31 328.6,-269.08 266.53,-249.84"/>
<polygon fill="#e72222" stroke="black" points="267.5,-246.47 256.91,-246.95 265.49,-253.18 267.5,-246.47"/>
</g>
<!-- ncpol3sdpa_resolution_utils&#45;&gt;ncpol3sdpa_resolution_algebra -->
<g id="edge21" class="edge">
<title>ncpol3sdpa_resolution_utils&#45;&gt;ncpol3sdpa_resolution_algebra</title><style>.edge>path:hover{stroke-width:8}</style>
<path fill="none" stroke="black" d="M306.09,-547.18C286.84,-534.44 262.37,-518.24 241.78,-504.62"/>
<polygon fill="#e72222" stroke="black" points="243.49,-501.55 233.22,-498.95 239.63,-507.39 243.49,-501.55"/>
</g>
<!-- ncpol3sdpa_resolution_utils&#45;&gt;ncpol3sdpa_resolution_algebra_sdp_complex -->
<g id="edge22" class="edge">
<title>ncpol3sdpa_resolution_utils&#45;&gt;ncpol3sdpa_resolution_algebra_sdp_complex</title><style>.edge>path:hover{stroke-width:8}</style>
<path fill="none" stroke="black" d="M382.03,-474.99C379.7,-454.23 367.72,-434.24 355.85,-419.03"/>
<polygon fill="#e72222" stroke="black" points="358.38,-416.6 349.33,-411.1 352.98,-421.05 358.38,-416.6"/>
</g>
<!-- ncpol3sdpa_resolution_utils&#45;&gt;ncpol3sdpa_resolution_algebra_sdp_real -->
<g id="edge23" class="edge">
<title>ncpol3sdpa_resolution_utils&#45;&gt;ncpol3sdpa_resolution_algebra_sdp_real</title><style>.edge>path:hover{stroke-width:8}</style>
<path fill="none" stroke="black" d="M360.28,-542.99C372.4,-525.29 384.71,-500.82 382.03,-476.99"/>
<path fill="none" stroke="black" d="M382.03,-474.99C380.51,-461.41 312.22,-433.02 259.74,-413.14"/>
<polygon fill="#e72222" stroke="black" points="260.74,-409.77 250.14,-409.53 258.27,-416.32 260.74,-409.77"/>
</g>
<!-- ncpol3sdpa_sdp_repr -->
<g id="node13" class="node">
<title>ncpol3sdpa_sdp_repr</title><style>.edge>path:hover{stroke-width:8}</style>
<ellipse fill="#e50505" stroke="black" cx="544.03" cy="-569.97" rx="53.07" ry="21.43"/>
<text text-anchor="middle" x="544.03" y="-572.97" font-family="Helvetica,sans-Serif" font-size="10.00" fill="#ffffff">ncpol3sdpa.</text>
<text text-anchor="middle" x="544.03" y="-561.97" font-family="Helvetica,sans-Serif" font-size="10.00" fill="#ffffff">sdp_repr</text>
</g>
<!-- ncpol3sdpa_sdp_repr&#45;&gt;ncpol3sdpa_algebra_to_SDP -->
<g id="edge24" class="edge">
<title>ncpol3sdpa_sdp_repr&#45;&gt;ncpol3sdpa_algebra_to_SDP</title><style>.edge>path:hover{stroke-width:8}</style>
<path fill="none" stroke="black" d="M519.66,-551C505.94,-539.46 489.83,-523.24 481.03,-504.98 444.03,-428.16 458.86,-399.77 458.03,-314.5"/>
<path fill="none" stroke="black" d="M458.03,-312.5C458.08,-299.49 423.82,-228.69 404.28,-189.37"/>
<polygon fill="#e50505" stroke="black" points="407.26,-187.49 399.66,-180.1 400.99,-190.61 407.26,-187.49"/>
</g>
<!-- ncpol3sdpa_solvers_cvxpy_solver -->
<g id="node18" class="node">
<title>ncpol3sdpa_solvers_cvxpy_solver</title><style>.edge>path:hover{stroke-width:8}</style>
<polygon fill="blue" stroke="black" points="670.53,-334 589.53,-334 589.53,-293 670.53,-293 670.53,-334"/>
<text text-anchor="middle" x="630.03" y="-322" font-family="Helvetica,sans-Serif" font-size="10.00" fill="white">ncpol3sdpa.</text>
<text text-anchor="middle" x="630.03" y="-311" font-family="Helvetica,sans-Serif" font-size="10.00" fill="white">solvers.</text>
<text text-anchor="middle" x="630.03" y="-300" font-family="Helvetica,sans-Serif" font-size="10.00" fill="white">cvxpy_solver</text>
</g>
<!-- ncpol3sdpa_sdp_repr&#45;&gt;ncpol3sdpa_solvers_cvxpy_solver -->
<g id="edge25" class="edge">
<title>ncpol3sdpa_sdp_repr&#45;&gt;ncpol3sdpa_solvers_cvxpy_solver</title><style>.edge>path:hover{stroke-width:8}</style>
<path fill="none" stroke="black" d="M630.03,-389.5C625.7,-374.98 625.3,-358.17 626.16,-344.15"/>
<polygon fill="#e50505" stroke="black" points="629.66,-344.31 627.02,-334.05 622.69,-343.72 629.66,-344.31"/>
</g>
<!-- ncpol3sdpa_solvers_mosek_solver -->
<g id="node19" class="node">
<title>ncpol3sdpa_solvers_mosek_solver</title><style>.edge>path:hover{stroke-width:8}</style>
<polygon fill="blue" stroke="black" points="571.53,-334 486.53,-334 486.53,-293 571.53,-293 571.53,-334"/>
<text text-anchor="middle" x="529.03" y="-322" font-family="Helvetica,sans-Serif" font-size="10.00" fill="white">ncpol3sdpa.</text>
<text text-anchor="middle" x="529.03" y="-311" font-family="Helvetica,sans-Serif" font-size="10.00" fill="white">solvers.</text>
<text text-anchor="middle" x="529.03" y="-300" font-family="Helvetica,sans-Serif" font-size="10.00" fill="white">mosek_solver</text>
</g>
<!-- ncpol3sdpa_sdp_repr&#45;&gt;ncpol3sdpa_solvers_mosek_solver -->
<g id="edge26" class="edge">
<title>ncpol3sdpa_sdp_repr&#45;&gt;ncpol3sdpa_solvers_mosek_solver</title><style>.edge>path:hover{stroke-width:8}</style>
<path fill="none" stroke="black" d="M565.67,-550.43C584.78,-533.08 612.3,-505.61 630.03,-476.99"/>
<path fill="none" stroke="black" d="M630.03,-474.99C649.58,-443.45 640.65,-427.06 630.03,-391.5"/>
<path fill="none" stroke="black" d="M630.03,-389.5C622.84,-365.42 601.71,-347.84 580.62,-335.77"/>
<polygon fill="#e50505" stroke="black" points="582.1,-332.59 571.63,-330.94 578.78,-338.75 582.1,-332.59"/>
</g>
<!-- ncpol3sdpa_solvers_solver -->
<g id="node20" class="node">
<title>ncpol3sdpa_solvers_solver</title><style>.edge>path:hover{stroke-width:8}</style>
<polygon fill="blue" stroke="black" points="733.53,-411 658.53,-411 658.53,-370 733.53,-370 733.53,-411"/>
<text text-anchor="middle" x="696.03" y="-399" font-family="Helvetica,sans-Serif" font-size="10.00" fill="white">ncpol3sdpa.</text>
<text text-anchor="middle" x="696.03" y="-388" font-family="Helvetica,sans-Serif" font-size="10.00" fill="white">solvers.</text>
<text text-anchor="middle" x="696.03" y="-377" font-family="Helvetica,sans-Serif" font-size="10.00" fill="white">solver</text>
</g>
<!-- ncpol3sdpa_sdp_repr&#45;&gt;ncpol3sdpa_solvers_solver -->
<g id="edge27" class="edge">
<title>ncpol3sdpa_sdp_repr&#45;&gt;ncpol3sdpa_solvers_solver</title><style>.edge>path:hover{stroke-width:8}</style>
<path fill="none" stroke="black" d="M630.03,-474.99C642.3,-455.2 658.48,-434.66 671.76,-418.9"/>
<polygon fill="#e50505" stroke="black" points="674.56,-421.01 678.39,-411.13 669.24,-416.46 674.56,-421.01"/>
</g>
<!-- ncpol3sdpa_solvers_solver_registry -->
<g id="node21" class="node">
<title>ncpol3sdpa_solvers_solver_registry</title><style>.edge>path:hover{stroke-width:8}</style>
<polygon fill="blue" stroke="black" points="537.53,-257 448.53,-257 448.53,-216 537.53,-216 537.53,-257"/>
<text text-anchor="middle" x="493.03" y="-245" font-family="Helvetica,sans-Serif" font-size="10.00" fill="white">ncpol3sdpa.</text>
<text text-anchor="middle" x="493.03" y="-234" font-family="Helvetica,sans-Serif" font-size="10.00" fill="white">solvers.</text>
<text text-anchor="middle" x="493.03" y="-223" font-family="Helvetica,sans-Serif" font-size="10.00" fill="white">solver_registry</text>
</g>
<!-- ncpol3sdpa_sdp_repr&#45;&gt;ncpol3sdpa_solvers_solver_registry -->
<g id="edge28" class="edge">
<title>ncpol3sdpa_sdp_repr&#45;&gt;ncpol3sdpa_solvers_solver_registry</title><style>.edge>path:hover{stroke-width:8}</style>
<path fill="none" stroke="black" d="M458.03,-312.5C457.87,-296.04 464.87,-279.29 472.64,-265.81"/>
<polygon fill="#e50505" stroke="black" points="475.78,-267.39 478.07,-257.04 469.83,-263.7 475.78,-267.39"/>
</g>
<!-- ncpol3sdpa_sos -->
<g id="node22" class="node">
<title>ncpol3sdpa_sos</title><style>.edge>path:hover{stroke-width:8}</style>
<ellipse fill="#ac4949" stroke="black" cx="544.03" cy="-475.99" rx="54.31" ry="18"/>
<text text-anchor="middle" x="544.03" y="-473.49" font-family="Helvetica,sans-Serif" font-size="10.00" fill="#ffffff">ncpol3sdpa.sos</text>
</g>
<!-- ncpol3sdpa_sdp_repr&#45;&gt;ncpol3sdpa_sos -->
<g id="edge29" class="edge">
<title>ncpol3sdpa_sdp_repr&#45;&gt;ncpol3sdpa_sos</title><style>.edge>path:hover{stroke-width:8}</style>
<path fill="none" stroke="black" d="M544.03,-548.56C544.03,-535.57 544.03,-518.59 544.03,-504.43"/>
<polygon fill="#e50505" stroke="black" points="547.53,-504.26 544.03,-494.26 540.53,-504.26 547.53,-504.26"/>
</g>
<!-- ncpol3sdpa_sdp_repr_eq_constraint -->
<g id="node14" class="node">
<title>ncpol3sdpa_sdp_repr_eq_constraint</title><style>.edge>path:hover{stroke-width:8}</style>
<ellipse fill="#ce3b3b" stroke="black" cx="627.03" cy="-757.94" rx="58.88" ry="28.98"/>
<text text-anchor="middle" x="627.03" y="-766.44" font-family="Helvetica,sans-Serif" font-size="10.00" fill="#ffffff">ncpol3sdpa.</text>
<text text-anchor="middle" x="627.03" y="-755.44" font-family="Helvetica,sans-Serif" font-size="10.00" fill="#ffffff">sdp_repr.</text>
<text text-anchor="middle" x="627.03" y="-744.44" font-family="Helvetica,sans-Serif" font-size="10.00" fill="#ffffff">eq_constraint</text>
</g>
<!-- ncpol3sdpa_sdp_repr_eq_constraint&#45;&gt;ncpol3sdpa_sdp_repr -->
<g id="edge30" class="edge">
<title>ncpol3sdpa_sdp_repr_eq_constraint&#45;&gt;ncpol3sdpa_sdp_repr</title><style>.edge>path:hover{stroke-width:8}</style>
<path fill="none" stroke="black" d="M628.52,-728.75C628.71,-702.98 626.01,-664.49 611.03,-634.97 603.27,-619.67 590.35,-606.01 577.92,-595.28"/>
<polygon fill="#ce3b3b" stroke="black" points="579.82,-592.32 569.87,-588.67 575.37,-597.72 579.82,-592.32"/>
</g>
<!-- ncpol3sdpa_sdp_repr_problem_SDP -->
<g id="node16" class="node">
<title>ncpol3sdpa_sdp_repr_problem_SDP</title><style>.edge>path:hover{stroke-width:8}</style>
<ellipse fill="#b83d3d" stroke="black" cx="544.03" cy="-663.96" rx="57.97" ry="28.98"/>
<text text-anchor="middle" x="544.03" y="-672.46" font-family="Helvetica,sans-Serif" font-size="10.00" fill="#ffffff">ncpol3sdpa.</text>
<text text-anchor="middle" x="544.03" y="-661.46" font-family="Helvetica,sans-Serif" font-size="10.00" fill="#ffffff">sdp_repr.</text>
<text text-anchor="middle" x="544.03" y="-650.46" font-family="Helvetica,sans-Serif" font-size="10.00" fill="#ffffff">problem_SDP</text>
</g>
<!-- ncpol3sdpa_sdp_repr_eq_constraint&#45;&gt;ncpol3sdpa_sdp_repr_problem_SDP -->
<g id="edge31" class="edge">
<title>ncpol3sdpa_sdp_repr_eq_constraint&#45;&gt;ncpol3sdpa_sdp_repr_problem_SDP</title><style>.edge>path:hover{stroke-width:8}</style>
<path fill="none" stroke="black" d="M603.47,-730.83C594.37,-720.74 583.84,-709.07 574.2,-698.39"/>
<polygon fill="#ce3b3b" stroke="black" points="576.66,-695.9 567.37,-690.82 571.47,-700.59 576.66,-695.9"/>
</g>
<!-- ncpol3sdpa_sdp_repr_moment_matrix_SDP -->
<g id="node15" class="node">
<title>ncpol3sdpa_sdp_repr_moment_matrix_SDP</title><style>.edge>path:hover{stroke-width:8}</style>
<ellipse fill="#ce3b3b" stroke="black" cx="463.03" cy="-757.94" rx="84.71" ry="28.98"/>
<text text-anchor="middle" x="463.03" y="-766.44" font-family="Helvetica,sans-Serif" font-size="10.00" fill="#ffffff">ncpol3sdpa.</text>
<text text-anchor="middle" x="463.03" y="-755.44" font-family="Helvetica,sans-Serif" font-size="10.00" fill="#ffffff">sdp_repr.</text>
<text text-anchor="middle" x="463.03" y="-744.44" font-family="Helvetica,sans-Serif" font-size="10.00" fill="#ffffff">moment_matrix_SDP</text>
</g>
<!-- ncpol3sdpa_sdp_repr_moment_matrix_SDP&#45;&gt;ncpol3sdpa_sdp_repr -->
<g id="edge32" class="edge">
<title>ncpol3sdpa_sdp_repr_moment_matrix_SDP&#45;&gt;ncpol3sdpa_sdp_repr</title><style>.edge>path:hover{stroke-width:8}</style>
<path fill="none" stroke="black" d="M460.98,-728.78C460.3,-703.02 462.33,-664.55 477.03,-634.97 484.67,-619.61 497.57,-605.94 510.02,-595.22"/>
<polygon fill="#ce3b3b" stroke="black" points="512.57,-597.66 518.08,-588.61 508.13,-592.24 512.57,-597.66"/>
</g>
<!-- ncpol3sdpa_sdp_repr_moment_matrix_SDP&#45;&gt;ncpol3sdpa_sdp_repr_problem_SDP -->
<g id="edge33" class="edge">
<title>ncpol3sdpa_sdp_repr_moment_matrix_SDP&#45;&gt;ncpol3sdpa_sdp_repr_problem_SDP</title><style>.edge>path:hover{stroke-width:8}</style>
<path fill="none" stroke="black" d="M486.9,-729.84C495.52,-720.04 505.37,-708.86 514.43,-698.57"/>
<polygon fill="#ce3b3b" stroke="black" points="517.19,-700.73 521.17,-690.92 511.94,-696.11 517.19,-700.73"/>
</g>
<!-- ncpol3sdpa_sdp_repr_problem_SDP&#45;&gt;ncpol3sdpa_sdp_repr -->
<g id="edge34" class="edge">
<title>ncpol3sdpa_sdp_repr_problem_SDP&#45;&gt;ncpol3sdpa_sdp_repr</title><style>.edge>path:hover{stroke-width:8}</style>
<path fill="none" stroke="black" d="M544.03,-634.86C544.03,-624.32 544.03,-612.29 544.03,-601.54"/>
<polygon fill="#b83d3d" stroke="black" points="547.53,-601.31 544.03,-591.31 540.53,-601.31 547.53,-601.31"/>
</g>
<!-- ncpol3sdpa_solvers -->
<g id="node17" class="node">
<title>ncpol3sdpa_solvers</title><style>.edge>path:hover{stroke-width:8}</style>
<polygon fill="blue" stroke="black" points="530.53,-180 455.53,-180 455.53,-144 530.53,-144 530.53,-180"/>
<text text-anchor="middle" x="493.03" y="-165" font-family="Helvetica,sans-Serif" font-size="10.00" fill="white">ncpol3sdpa.</text>
<text text-anchor="middle" x="493.03" y="-154" font-family="Helvetica,sans-Serif" font-size="10.00" fill="white">solvers</text>
</g>
<!-- ncpol3sdpa_solvers&#45;&gt;ncpol3sdpa -->
<g id="edge35" class="edge">
<title>ncpol3sdpa_solvers&#45;&gt;ncpol3sdpa</title><style>.edge>path:hover{stroke-width:8}</style>
<path fill="none" stroke="black" d="M482.12,-143.86C470.33,-125.64 450.7,-96.16 432.03,-72 424.73,-62.55 416.28,-52.57 408.63,-43.85"/>
<polygon fill="blue" stroke="black" points="411.14,-41.4 401.88,-36.24 405.9,-46.05 411.14,-41.4"/>
</g>
<!-- ncpol3sdpa_solvers&#45;&gt;ncpol3sdpa_problem -->
<g id="edge36" class="edge">
<title>ncpol3sdpa_solvers&#45;&gt;ncpol3sdpa_problem</title><style>.edge>path:hover{stroke-width:8}</style>
<path fill="none" stroke="black" d="M466.86,-143.88C453,-134.81 435.79,-123.55 420.82,-113.76"/>
<polygon fill="blue" stroke="black" points="422.59,-110.74 412.31,-108.19 418.76,-116.59 422.59,-110.74"/>
</g>
<!-- ncpol3sdpa_solvers_cvxpy_solver&#45;&gt;ncpol3sdpa_solvers_solver_registry -->
<g id="edge37" class="edge">
<title>ncpol3sdpa_solvers_cvxpy_solver&#45;&gt;ncpol3sdpa_solvers_solver_registry</title><style>.edge>path:hover{stroke-width:8}</style>
<path fill="none" stroke="black" d="M594.4,-292.99C577.09,-283.52 556.12,-272.03 537.75,-261.98"/>
<polygon fill="blue" stroke="black" points="539.42,-258.9 528.97,-257.17 536.06,-265.04 539.42,-258.9"/>
</g>
<!-- ncpol3sdpa_solvers_mosek_solver&#45;&gt;ncpol3sdpa_solvers_solver_registry -->
<g id="edge38" class="edge">
<title>ncpol3sdpa_solvers_mosek_solver&#45;&gt;ncpol3sdpa_solvers_solver_registry</title><style>.edge>path:hover{stroke-width:8}</style>
<path fill="none" stroke="black" d="M519.57,-292.79C515.69,-284.7 511.11,-275.16 506.86,-266.31"/>
<polygon fill="blue" stroke="black" points="509.91,-264.57 502.43,-257.07 503.6,-267.6 509.91,-264.57"/>
</g>
<!-- ncpol3sdpa_solvers_solver&#45;&gt;ncpol3sdpa_solvers -->
<g id="edge39" class="edge">
<title>ncpol3sdpa_solvers_solver&#45;&gt;ncpol3sdpa_solvers</title><style>.edge>path:hover{stroke-width:8}</style>
<path fill="none" stroke="black" d="M699.03,-312.5C667.5,-246.36 590.39,-203.18 539.98,-180.97"/>
<polygon fill="blue" stroke="black" points="541.15,-177.66 530.58,-176.93 538.39,-184.09 541.15,-177.66"/>
</g>
<!-- ncpol3sdpa_solvers_solver&#45;&gt;ncpol3sdpa_solvers_cvxpy_solver -->
<g id="edge40" class="edge">
<title>ncpol3sdpa_solvers_solver&#45;&gt;ncpol3sdpa_solvers_cvxpy_solver</title><style>.edge>path:hover{stroke-width:8}</style>
<path fill="none" stroke="black" d="M678.69,-369.79C671.11,-361.18 662.1,-350.94 653.9,-341.62"/>
<polygon fill="blue" stroke="black" points="656.49,-339.27 647.26,-334.07 651.24,-343.89 656.49,-339.27"/>
</g>
<!-- ncpol3sdpa_solvers_solver&#45;&gt;ncpol3sdpa_solvers_mosek_solver -->
<g id="edge41" class="edge">
<title>ncpol3sdpa_solvers_solver&#45;&gt;ncpol3sdpa_solvers_mosek_solver</title><style>.edge>path:hover{stroke-width:8}</style>
<path fill="none" stroke="black" d="M658.14,-372.48C635.35,-362.25 606.04,-349.08 581.1,-337.88"/>
<polygon fill="blue" stroke="black" points="582.33,-334.6 571.78,-333.7 579.47,-340.99 582.33,-334.6"/>
</g>
<!-- ncpol3sdpa_solvers_solver&#45;&gt;ncpol3sdpa_solvers_solver_registry -->
<g id="edge42" class="edge">
<title>ncpol3sdpa_solvers_solver&#45;&gt;ncpol3sdpa_solvers_solver_registry</title><style>.edge>path:hover{stroke-width:8}</style>
<path fill="none" stroke="black" d="M701.69,-369.69C705.06,-353.95 707.28,-331.79 699.03,-314.5"/>
<path fill="none" stroke="black" d="M699.03,-312.5C672.92,-257.75 599.48,-242.1 547.76,-238.09"/>
<polygon fill="blue" stroke="black" points="547.94,-234.59 537.73,-237.43 547.48,-241.58 547.94,-234.59"/>
</g>
<!-- ncpol3sdpa_solvers_solver_registry&#45;&gt;ncpol3sdpa_solvers -->
<g id="edge43" class="edge">
<title>ncpol3sdpa_solvers_solver_registry&#45;&gt;ncpol3sdpa_solvers</title><style>.edge>path:hover{stroke-width:8}</style>
<path fill="none" stroke="black" d="M493.03,-215.69C493.03,-207.91 493.03,-198.84 493.03,-190.45"/>
<polygon fill="blue" stroke="black" points="496.53,-190.32 493.03,-180.32 489.53,-190.32 496.53,-190.32"/>
</g>
</g>
</svg>
