<?xml version="1.0" encoding="UTF-8" standalone="no"?>
<!DOCTYPE svg PUBLIC "-//W3C//DTD SVG 1.1//EN"
 "http://www.w3.org/Graphics/SVG/1.1/DTD/svg11.dtd">
<!-- Generated by graphviz version 2.43.0 (0)
 -->
<!-- Title: G Pages: 1 -->
<svg width="649pt" height="539pt"
 viewBox="0.00 0.00 648.81 538.71" xmlns="http://www.w3.org/2000/svg" xmlns:xlink="http://www.w3.org/1999/xlink">
<g id="graph0" class="graph" transform="scale(1 1) rotate(0) translate(4 534.71)">
<title>G</title><style>.edge>path:hover{stroke-width:8}</style>
<polygon fill="white" stroke="transparent" points="-4,4 -4,-534.71 644.81,-534.71 644.81,4 -4,4"/>
<!-- cvxpy -->
<g id="node1" class="node">
<title>cvxpy</title><style>.edge>path:hover{stroke-width:8}</style>
<polygon fill="blue" stroke="black" points="600.2,-349.71 597.2,-353.71 576.2,-353.71 573.2,-349.71 546.2,-349.71 546.2,-313.71 600.2,-313.71 600.2,-349.71"/>
<text text-anchor="middle" x="573.2" y="-329.21" font-family="Helvetica,sans-Serif" font-size="10.00" fill="white">cvxpy</text>
</g>
<!-- ncpol3sdpa_solver -->
<g id="node10" class="node">
<title>ncpol3sdpa_solver</title><style>.edge>path:hover{stroke-width:8}</style>
<ellipse fill="#2e8a52" stroke="black" cx="392.2" cy="-99.64" rx="53.07" ry="21.43"/>
<text text-anchor="middle" x="392.2" y="-102.64" font-family="Helvetica,sans-Serif" font-size="10.00" fill="#ffffff">ncpol3sdpa.</text>
<text text-anchor="middle" x="392.2" y="-91.64" font-family="Helvetica,sans-Serif" font-size="10.00" fill="#ffffff">solver</text>
</g>
<!-- cvxpy&#45;&gt;ncpol3sdpa_solver -->
<g id="edge1" class="edge">
<title>cvxpy&#45;&gt;ncpol3sdpa_solver</title><style>.edge>path:hover{stroke-width:8}</style>
<path fill="none" stroke="black" d="M576.37,-313.58C578.46,-298.39 579.73,-275.81 573.2,-257.49"/>
<path fill="none" stroke="black" d="M573.2,-255.49C553.84,-201.15 502.75,-233.37 456.2,-199.28 446.26,-191.99 444.18,-189.23 437.2,-179.07"/>
</g>
<!-- ncpol3sdpa_sos -->
<g id="node11" class="node">
<title>ncpol3sdpa_sos</title><style>.edge>path:hover{stroke-width:8}</style>
<ellipse fill="#3a8859" stroke="black" cx="555.2" cy="-99.64" rx="54.31" ry="18"/>
<text text-anchor="middle" x="555.2" y="-97.14" font-family="Helvetica,sans-Serif" font-size="10.00" fill="#ffffff">ncpol3sdpa.sos</text>
</g>
<!-- cvxpy&#45;&gt;ncpol3sdpa_sos -->
<g id="edge2" class="edge">
<title>cvxpy&#45;&gt;ncpol3sdpa_sos</title><style>.edge>path:hover{stroke-width:8}</style>
<path fill="none" stroke="black" d="M573.2,-255.49C565.62,-231.48 578.65,-224.41 580.2,-199.28 581.37,-180.46 584.12,-175.3 580.2,-156.85 578.03,-146.62 573.86,-135.98 569.54,-126.75"/>
<polygon fill="blue" stroke="black" points="572.64,-125.13 565.06,-117.72 566.37,-128.24 572.64,-125.13"/>
</g>
<!-- mosek -->
<g id="node2" class="node">
<title>mosek</title><style>.edge>path:hover{stroke-width:8}</style>
<polygon fill="#a6c040" stroke="black" points="464.2,-274.49 461.2,-278.49 440.2,-278.49 437.2,-274.49 410.2,-274.49 410.2,-238.49 464.2,-238.49 464.2,-274.49"/>
<text text-anchor="middle" x="437.2" y="-253.99" font-family="Helvetica,sans-Serif" font-size="10.00" fill="#000000">mosek</text>
</g>
<!-- mosek&#45;&gt;ncpol3sdpa_solver -->
<g id="edge3" class="edge">
<title>mosek&#45;&gt;ncpol3sdpa_solver</title><style>.edge>path:hover{stroke-width:8}</style>
<path fill="none" stroke="black" d="M442.35,-238.38C446.25,-221.73 449.14,-196.46 437.2,-179.07"/>
<path fill="none" stroke="black" d="M437.2,-177.07C426.77,-161.86 416.25,-144.16 408.01,-129.62"/>
<polygon fill="#a6c040" stroke="black" points="410.89,-127.59 402.94,-120.58 404.78,-131.01 410.89,-127.59"/>
</g>
<!-- ncpol3sdpa_algebra -->
<g id="node3" class="node">
<title>ncpol3sdpa_algebra</title><style>.edge>path:hover{stroke-width:8}</style>
<ellipse fill="#35a160" stroke="black" cx="106.2" cy="-99.64" rx="53.07" ry="21.43"/>
<text text-anchor="middle" x="106.2" y="-102.64" font-family="Helvetica,sans-Serif" font-size="10.00" fill="#ffffff">ncpol3sdpa.</text>
<text text-anchor="middle" x="106.2" y="-91.64" font-family="Helvetica,sans-Serif" font-size="10.00" fill="#ffffff">algebra</text>
</g>
<!-- ncpol3sdpa_problem -->
<g id="node7" class="node">
<title>ncpol3sdpa_problem</title><style>.edge>path:hover{stroke-width:8}</style>
<ellipse fill="#347950" stroke="black" cx="351.2" cy="-21.21" rx="53.07" ry="21.43"/>
<text text-anchor="middle" x="351.2" y="-24.21" font-family="Helvetica,sans-Serif" font-size="10.00" fill="#ffffff">ncpol3sdpa.</text>
<text text-anchor="middle" x="351.2" y="-13.21" font-family="Helvetica,sans-Serif" font-size="10.00" fill="#ffffff">problem</text>
</g>
<!-- ncpol3sdpa_algebra&#45;&gt;ncpol3sdpa_problem -->
<g id="edge4" class="edge">
<title>ncpol3sdpa_algebra&#45;&gt;ncpol3sdpa_problem</title><style>.edge>path:hover{stroke-width:8}</style>
<path fill="none" stroke="black" d="M146.94,-85.93C189.15,-72.77 255.2,-52.16 300.71,-37.97"/>
<polygon fill="#35a160" stroke="black" points="301.87,-41.27 310.38,-34.95 299.79,-34.59 301.87,-41.27"/>
</g>
<!-- ncpol3sdpa_constraints -->
<g id="node4" class="node">
<title>ncpol3sdpa_constraints</title><style>.edge>path:hover{stroke-width:8}</style>
<ellipse fill="#26d96e" stroke="black" cx="68.2" cy="-256.49" rx="53.07" ry="21.43"/>
<text text-anchor="middle" x="68.2" y="-259.49" font-family="Helvetica,sans-Serif" font-size="10.00" fill="#000000">ncpol3sdpa.</text>
<text text-anchor="middle" x="68.2" y="-248.49" font-family="Helvetica,sans-Serif" font-size="10.00" fill="#000000">constraints</text>
</g>
<!-- ncpol3sdpa_constraints&#45;&gt;ncpol3sdpa_algebra -->
<g id="edge5" class="edge">
<title>ncpol3sdpa_constraints&#45;&gt;ncpol3sdpa_algebra</title><style>.edge>path:hover{stroke-width:8}</style>
<path fill="none" stroke="black" d="M25.2,-177.07C24.91,-153.15 43.81,-134.51 63.42,-121.62"/>
<polygon fill="#26d96e" stroke="black" points="65.43,-124.49 72.12,-116.28 61.77,-118.53 65.43,-124.49"/>
</g>
<!-- ncpol3sdpa_constraints&#45;&gt;ncpol3sdpa_problem -->
<g id="edge6" class="edge">
<title>ncpol3sdpa_constraints&#45;&gt;ncpol3sdpa_problem</title><style>.edge>path:hover{stroke-width:8}</style>
<path fill="none" stroke="black" d="M50.38,-236.38C38.67,-221.83 25.47,-200.68 25.2,-179.07"/>
<path fill="none" stroke="black" d="M25.2,-177.07C24.65,-132.42 12.49,-109.85 44.2,-78.43 77.86,-45.08 208.82,-31.06 288.42,-25.52"/>
<polygon fill="#26d96e" stroke="black" points="289.08,-28.99 298.82,-24.83 288.61,-22 289.08,-28.99"/>
</g>
<!-- ncpol3sdpa_rules -->
<g id="node8" class="node">
<title>ncpol3sdpa_rules</title><style>.edge>path:hover{stroke-width:8}</style>
<ellipse fill="#2fbc67" stroke="black" cx="230.2" cy="-178.07" rx="53.07" ry="21.43"/>
<text text-anchor="middle" x="230.2" y="-181.07" font-family="Helvetica,sans-Serif" font-size="10.00" fill="#000000">ncpol3sdpa.</text>
<text text-anchor="middle" x="230.2" y="-170.07" font-family="Helvetica,sans-Serif" font-size="10.00" fill="#000000">rules</text>
</g>
<!-- ncpol3sdpa_constraints&#45;&gt;ncpol3sdpa_rules -->
<g id="edge7" class="edge">
<title>ncpol3sdpa_constraints&#45;&gt;ncpol3sdpa_rules</title><style>.edge>path:hover{stroke-width:8}</style>
<path fill="none" stroke="black" d="M101.38,-239.84C126.39,-228.04 160.87,-211.78 187.87,-199.04"/>
<polygon fill="#26d96e" stroke="black" points="189.52,-202.13 197.07,-194.7 186.54,-195.8 189.52,-202.13"/>
</g>
<!-- ncpol3sdpa_funs -->
<g id="node5" class="node">
<title>ncpol3sdpa_funs</title><style>.edge>path:hover{stroke-width:8}</style>
<ellipse fill="#4cb375" stroke="black" cx="230.2" cy="-256.49" rx="53.07" ry="21.43"/>
<text text-anchor="middle" x="230.2" y="-259.49" font-family="Helvetica,sans-Serif" font-size="10.00" fill="#000000">ncpol3sdpa.</text>
<text text-anchor="middle" x="230.2" y="-248.49" font-family="Helvetica,sans-Serif" font-size="10.00" fill="#000000">funs</text>
</g>
<!-- ncpol3sdpa_monomial -->
<g id="node6" class="node">
<title>ncpol3sdpa_monomial</title><style>.edge>path:hover{stroke-width:8}</style>
<ellipse fill="#40c073" stroke="black" cx="106.2" cy="-178.07" rx="53.07" ry="21.43"/>
<text text-anchor="middle" x="106.2" y="-181.07" font-family="Helvetica,sans-Serif" font-size="10.00" fill="#000000">ncpol3sdpa.</text>
<text text-anchor="middle" x="106.2" y="-170.07" font-family="Helvetica,sans-Serif" font-size="10.00" fill="#000000">monomial</text>
</g>
<!-- ncpol3sdpa_monomial&#45;&gt;ncpol3sdpa_algebra -->
<g id="edge8" class="edge">
<title>ncpol3sdpa_monomial&#45;&gt;ncpol3sdpa_algebra</title><style>.edge>path:hover{stroke-width:8}</style>
<path fill="none" stroke="black" d="M106.2,-156.59C106.2,-148.73 106.2,-139.58 106.2,-130.99"/>
<polygon fill="#40c073" stroke="black" points="109.7,-130.91 106.2,-120.91 102.7,-130.91 109.7,-130.91"/>
</g>
<!-- ncpol3sdpa_rules&#45;&gt;ncpol3sdpa_algebra -->
<g id="edge9" class="edge">
<title>ncpol3sdpa_rules&#45;&gt;ncpol3sdpa_algebra</title><style>.edge>path:hover{stroke-width:8}</style>
<path fill="none" stroke="black" d="M202.38,-159.91C184.75,-149.05 161.76,-134.88 142.67,-123.12"/>
<polygon fill="#2fbc67" stroke="black" points="144.29,-120 133.94,-117.73 140.62,-125.96 144.29,-120"/>
</g>
<!-- ncpol3sdpa_rules&#45;&gt;ncpol3sdpa_problem -->
<g id="edge10" class="edge">
<title>ncpol3sdpa_rules&#45;&gt;ncpol3sdpa_problem</title><style>.edge>path:hover{stroke-width:8}</style>
<path fill="none" stroke="black" d="M256.63,-159.63C275.12,-145.91 298.67,-125.07 311.2,-100.64"/>
<path fill="none" stroke="black" d="M311.2,-98.64C319.28,-82.9 328.42,-65.41 335.92,-51.14"/>
<polygon fill="#2fbc67" stroke="black" points="339.03,-52.76 340.59,-42.28 332.83,-49.5 339.03,-52.76"/>
</g>
<!-- ncpol3sdpa_sdp_repr -->
<g id="node9" class="node">
<title>ncpol3sdpa_sdp_repr</title><style>.edge>path:hover{stroke-width:8}</style>
<ellipse fill="#24d069" stroke="black" cx="518.2" cy="-178.07" rx="53.07" ry="21.43"/>
<text text-anchor="middle" x="518.2" y="-181.07" font-family="Helvetica,sans-Serif" font-size="10.00" fill="#000000">ncpol3sdpa.</text>
<text text-anchor="middle" x="518.2" y="-170.07" font-family="Helvetica,sans-Serif" font-size="10.00" fill="#000000">sdp_repr</text>
</g>
<!-- ncpol3sdpa_sdp_repr&#45;&gt;ncpol3sdpa_problem -->
<g id="edge11" class="edge">
<title>ncpol3sdpa_sdp_repr&#45;&gt;ncpol3sdpa_problem</title><style>.edge>path:hover{stroke-width:8}</style>
<path fill="none" stroke="black" d="M508.86,-156.82C498.12,-135.26 478.76,-101.18 454.2,-78.43 437.64,-63.08 416.11,-50.48 397.01,-41.13"/>
<polygon fill="#24d069" stroke="black" points="398.41,-37.91 387.87,-36.8 395.41,-44.24 398.41,-37.91"/>
</g>
<!-- ncpol3sdpa_sdp_repr&#45;&gt;ncpol3sdpa_solver -->
<g id="edge12" class="edge">
<title>ncpol3sdpa_sdp_repr&#45;&gt;ncpol3sdpa_solver</title><style>.edge>path:hover{stroke-width:8}</style>
<path fill="none" stroke="black" d="M489.93,-159.91C471.93,-149 448.44,-134.75 429,-122.96"/>
<polygon fill="#24d069" stroke="black" points="430.75,-119.93 420.39,-117.73 427.12,-125.91 430.75,-119.93"/>
</g>
<!-- ncpol3sdpa_sdp_repr&#45;&gt;ncpol3sdpa_sos -->
<g id="edge13" class="edge">
<title>ncpol3sdpa_sdp_repr&#45;&gt;ncpol3sdpa_sos</title><style>.edge>path:hover{stroke-width:8}</style>
<path fill="none" stroke="black" d="M527.93,-156.99C532.44,-147.67 537.85,-136.48 542.67,-126.54"/>
<polygon fill="#24d069" stroke="black" points="545.84,-128.01 547.05,-117.49 539.54,-124.96 545.84,-128.01"/>
</g>
<!-- ncpol3sdpa_solver&#45;&gt;ncpol3sdpa_problem -->
<g id="edge14" class="edge">
<title>ncpol3sdpa_solver&#45;&gt;ncpol3sdpa_problem</title><style>.edge>path:hover{stroke-width:8}</style>
<path fill="none" stroke="black" d="M381.43,-78.56C376.91,-70.13 371.57,-60.18 366.65,-51"/>
<polygon fill="#2e8a52" stroke="black" points="369.72,-49.32 361.9,-42.16 363.55,-52.63 369.72,-49.32"/>
</g>
<!-- numpy -->
<g id="node12" class="node">
<title>numpy</title><style>.edge>path:hover{stroke-width:8}</style>
<polygon fill="blue" stroke="black" points="600.2,-530.71 597.2,-534.71 576.2,-534.71 573.2,-530.71 546.2,-530.71 546.2,-494.71 600.2,-494.71 600.2,-530.71"/>
<text text-anchor="middle" x="573.2" y="-510.21" font-family="Helvetica,sans-Serif" font-size="10.00" fill="white">numpy</text>
</g>
<!-- numpy&#45;&gt;cvxpy -->
<g id="edge15" class="edge">
<title>numpy&#45;&gt;cvxpy</title><style>.edge>path:hover{stroke-width:8}</style>
<path fill="none" stroke="black" d="M573.2,-402.71C572.91,-388.66 572.88,-373.02 572.94,-360.09"/>
<polygon fill="blue" stroke="black" points="576.44,-359.99 573,-349.97 569.44,-359.95 576.44,-359.99"/>
</g>
<!-- numpy&#45;&gt;ncpol3sdpa_problem -->
<g id="edge16" class="edge">
<title>numpy&#45;&gt;ncpol3sdpa_problem</title><style>.edge>path:hover{stroke-width:8}</style>
<path fill="none" stroke="black" d="M637.2,-177.07C626.55,-133.71 649.5,-110.27 618.2,-78.43 590.12,-49.85 482.54,-34.49 412.81,-27.36"/>
<polygon fill="blue" stroke="black" points="413.11,-23.88 402.81,-26.37 412.42,-30.84 413.11,-23.88"/>
</g>
<!-- numpy&#45;&gt;ncpol3sdpa_sdp_repr -->
<g id="edge17" class="edge">
<title>numpy&#45;&gt;ncpol3sdpa_sdp_repr</title><style>.edge>path:hover{stroke-width:8}</style>
<path fill="none" stroke="black" d="M573.2,-402.71C572.61,-374.24 596.93,-375.4 609.2,-349.71 627.67,-311.06 648.42,-298.83 637.2,-257.49"/>
<path fill="none" stroke="black" d="M637.2,-255.49C630.65,-224.3 600.14,-205.09 571.66,-193.73"/>
<polygon fill="blue" stroke="black" points="572.7,-190.38 562.11,-190.17 570.26,-196.94 572.7,-190.38"/>
</g>
<!-- numpy&#45;&gt;ncpol3sdpa_solver -->
<g id="edge18" class="edge">
<title>numpy&#45;&gt;ncpol3sdpa_solver</title><style>.edge>path:hover{stroke-width:8}</style>
<path fill="none" stroke="black" d="M573.64,-494.65C574.08,-473.52 574.52,-436.44 573.2,-404.71"/>
<path fill="none" stroke="black" d="M573.2,-402.71C572.02,-374.25 552.17,-373.93 537.2,-349.71 506.58,-300.13 503.15,-285.26 473.2,-235.28 457.96,-209.83 453.99,-203.53 437.2,-179.07"/>
</g>
<!-- numpy&#45;&gt;ncpol3sdpa_sos -->
<g id="edge19" class="edge">
<title>numpy&#45;&gt;ncpol3sdpa_sos</title><style>.edge>path:hover{stroke-width:8}</style>
<path fill="none" stroke="black" d="M637.2,-255.49C630.22,-222.25 645.31,-212.05 637.2,-179.07"/>
<path fill="none" stroke="black" d="M637.2,-177.07C631.29,-152.97 610.93,-133.93 591.98,-120.87"/>
<polygon fill="blue" stroke="black" points="593.72,-117.83 583.43,-115.3 589.9,-123.69 593.72,-117.83"/>
</g>
<!-- sympy -->
<g id="node13" class="node">
<title>sympy</title><style>.edge>path:hover{stroke-width:8}</style>
<polygon fill="#c806f9" stroke="black" points="176.2,-421.71 173.2,-425.71 152.2,-425.71 149.2,-421.71 122.2,-421.71 122.2,-385.71 176.2,-385.71 176.2,-421.71"/>
<text text-anchor="middle" x="149.2" y="-401.21" font-family="Helvetica,sans-Serif" font-size="10.00" fill="#ffffff">sympy</text>
</g>
<!-- sympy&#45;&gt;ncpol3sdpa_algebra -->
<g id="edge20" class="edge">
<title>sympy&#45;&gt;ncpol3sdpa_algebra</title><style>.edge>path:hover{stroke-width:8}</style>
<path fill="none" stroke="black" d="M149.2,-385.45C149.2,-371.28 149.2,-350.69 149.2,-332.71"/>
<path fill="none" stroke="black" d="M149.2,-330.71C149.2,-262.93 44.92,-333.34 6.2,-277.71 -4.16,-262.81 -0.13,-175.34 11.2,-156.85 21.78,-139.6 39.8,-127.02 57.31,-118.19"/>
<polygon fill="#c806f9" stroke="black" points="58.84,-121.34 66.39,-113.91 55.85,-115.01 58.84,-121.34"/>
</g>
<!-- sympy&#45;&gt;ncpol3sdpa_constraints -->
<g id="edge21" class="edge">
<title>sympy&#45;&gt;ncpol3sdpa_constraints</title><style>.edge>path:hover{stroke-width:8}</style>
<path fill="none" stroke="black" d="M149.2,-330.71C149.2,-307.69 130.99,-290.04 111.83,-277.84"/>
<polygon fill="#c806f9" stroke="black" points="113.41,-274.71 103.03,-272.62 109.84,-280.73 113.41,-274.71"/>
</g>
<!-- sympy&#45;&gt;ncpol3sdpa_funs -->
<g id="edge22" class="edge">
<title>sympy&#45;&gt;ncpol3sdpa_funs</title><style>.edge>path:hover{stroke-width:8}</style>
<path fill="none" stroke="black" d="M149.2,-330.71C149.2,-307.69 167.42,-290.04 186.58,-277.84"/>
<polygon fill="#c806f9" stroke="black" points="188.57,-280.73 195.38,-272.62 185,-274.71 188.57,-280.73"/>
</g>
<!-- sympy&#45;&gt;ncpol3sdpa_monomial -->
<g id="edge23" class="edge">
<title>sympy&#45;&gt;ncpol3sdpa_monomial</title><style>.edge>path:hover{stroke-width:8}</style>
<path fill="none" stroke="black" d="M149.2,-330.71C149.2,-298.17 145.35,-289.8 149.2,-257.49"/>
<path fill="none" stroke="black" d="M149.2,-255.49C151.34,-237.59 142.3,-219.9 131.97,-206.05"/>
<polygon fill="#c806f9" stroke="black" points="134.45,-203.55 125.45,-197.96 129,-207.94 134.45,-203.55"/>
</g>
<!-- sympy&#45;&gt;ncpol3sdpa_problem -->
<g id="edge24" class="edge">
<title>sympy&#45;&gt;ncpol3sdpa_problem</title><style>.edge>path:hover{stroke-width:8}</style>
<path fill="none" stroke="black" d="M149.2,-330.71C150.74,-262.94 250.57,-331.19 292.2,-277.71 340.82,-215.25 275.07,-171.06 311.2,-100.64"/>
</g>
<!-- sympy&#45;&gt;ncpol3sdpa_rules -->
<g id="edge25" class="edge">
<title>sympy&#45;&gt;ncpol3sdpa_rules</title><style>.edge>path:hover{stroke-width:8}</style>
<path fill="none" stroke="black" d="M149.2,-255.49C152.01,-232.02 170.61,-213.53 189.28,-200.63"/>
<polygon fill="#c806f9" stroke="black" points="191.33,-203.47 197.81,-195.09 187.52,-197.6 191.33,-203.47"/>
</g>
</g>
</svg>
