<?xml version="1.0" encoding="UTF-8" standalone="no"?>
<!DOCTYPE svg PUBLIC "-//W3C//DTD SVG 1.1//EN"
 "http://www.w3.org/Graphics/SVG/1.1/DTD/svg11.dtd">
<!-- Generated by graphviz version 2.43.0 (0)
 -->
<!-- Title: G Pages: 1 -->
<svg width="713pt" height="430pt"
 viewBox="0.00 0.00 712.63 429.71" xmlns="http://www.w3.org/2000/svg" xmlns:xlink="http://www.w3.org/1999/xlink">
<g id="graph0" class="graph" transform="scale(1 1) rotate(0) translate(4 425.71)">
<title>G</title><style>.edge>path:hover{stroke-width:8}</style>
<polygon fill="white" stroke="transparent" points="-4,4 -4,-425.71 708.63,-425.71 708.63,4 -4,4"/>
<!-- cvxpy -->
<g id="node1" class="node">
<title>cvxpy</title><style>.edge>path:hover{stroke-width:8}</style>
<ellipse fill="#c04040" stroke="black" cx="643.74" cy="-256.49" rx="27.16" ry="18"/>
<text text-anchor="middle" x="643.74" y="-253.99" font-family="Helvetica,sans-Serif" font-size="10.00" fill="#ffffff">cvxpy</text>
</g>
<!-- ncpol3sdpa_solver -->
<g id="node10" class="node">
<title>ncpol3sdpa_solver</title><style>.edge>path:hover{stroke-width:8}</style>
<ellipse fill="#33995c" stroke="black" cx="436.74" cy="-99.64" rx="53.07" ry="21.43"/>
<text text-anchor="middle" x="436.74" y="-102.64" font-family="Helvetica,sans-Serif" font-size="10.00" fill="#ffffff">ncpol3sdpa.</text>
<text text-anchor="middle" x="436.74" y="-91.64" font-family="Helvetica,sans-Serif" font-size="10.00" fill="#ffffff">solver</text>
</g>
<!-- cvxpy&#45;&gt;ncpol3sdpa_solver -->
<g id="edge1" class="edge">
<title>cvxpy&#45;&gt;ncpol3sdpa_solver</title><style>.edge>path:hover{stroke-width:8}</style>
<path fill="none" stroke="black" d="M623.43,-244.32C594.31,-227.87 542.98,-197.16 531.74,-179.07"/>
</g>
<!-- mosek -->
<g id="node2" class="node">
<title>mosek</title><style>.edge>path:hover{stroke-width:8}</style>
<ellipse fill="#a6c040" stroke="black" cx="531.74" cy="-256.49" rx="29.37" ry="18"/>
<text text-anchor="middle" x="531.74" y="-253.99" font-family="Helvetica,sans-Serif" font-size="10.00" fill="#000000">mosek</text>
</g>
<!-- mosek&#45;&gt;ncpol3sdpa_solver -->
<g id="edge2" class="edge">
<title>mosek&#45;&gt;ncpol3sdpa_solver</title><style>.edge>path:hover{stroke-width:8}</style>
<path fill="none" stroke="black" d="M536.53,-238.61C540.18,-222.13 542.87,-196.98 531.74,-179.07"/>
</g>
<!-- ncpol3sdpa_algebra -->
<g id="node3" class="node">
<title>ncpol3sdpa_algebra</title><style>.edge>path:hover{stroke-width:8}</style>
<ellipse fill="#35a160" stroke="black" cx="69.74" cy="-99.64" rx="53.07" ry="21.43"/>
<text text-anchor="middle" x="69.74" y="-102.64" font-family="Helvetica,sans-Serif" font-size="10.00" fill="#ffffff">ncpol3sdpa.</text>
<text text-anchor="middle" x="69.74" y="-91.64" font-family="Helvetica,sans-Serif" font-size="10.00" fill="#ffffff">algebra</text>
</g>
<!-- ncpol3sdpa_problem -->
<g id="node7" class="node">
<title>ncpol3sdpa_problem</title><style>.edge>path:hover{stroke-width:8}</style>
<ellipse fill="#347950" stroke="black" cx="355.74" cy="-21.21" rx="53.07" ry="21.43"/>
<text text-anchor="middle" x="355.74" y="-24.21" font-family="Helvetica,sans-Serif" font-size="10.00" fill="#ffffff">ncpol3sdpa.</text>
<text text-anchor="middle" x="355.74" y="-13.21" font-family="Helvetica,sans-Serif" font-size="10.00" fill="#ffffff">problem</text>
</g>
<!-- ncpol3sdpa_algebra&#45;&gt;ncpol3sdpa_problem -->
<g id="edge3" class="edge">
<title>ncpol3sdpa_algebra&#45;&gt;ncpol3sdpa_problem</title><style>.edge>path:hover{stroke-width:8}</style>
<path fill="none" stroke="black" d="M112.86,-87.12C163.69,-73.53 248.15,-50.96 302.87,-36.34"/>
<polygon fill="#35a160" stroke="black" points="303.97,-39.67 312.73,-33.71 302.16,-32.91 303.97,-39.67"/>
</g>
<!-- ncpol3sdpa_constraints -->
<g id="node4" class="node">
<title>ncpol3sdpa_constraints</title><style>.edge>path:hover{stroke-width:8}</style>
<ellipse fill="#26d96e" stroke="black" cx="355.74" cy="-256.49" rx="53.07" ry="21.43"/>
<text text-anchor="middle" x="355.74" y="-259.49" font-family="Helvetica,sans-Serif" font-size="10.00" fill="#000000">ncpol3sdpa.</text>
<text text-anchor="middle" x="355.74" y="-248.49" font-family="Helvetica,sans-Serif" font-size="10.00" fill="#000000">constraints</text>
</g>
<!-- ncpol3sdpa_constraints&#45;&gt;ncpol3sdpa_algebra -->
<g id="edge4" class="edge">
<title>ncpol3sdpa_constraints&#45;&gt;ncpol3sdpa_algebra</title><style>.edge>path:hover{stroke-width:8}</style>
<path fill="none" stroke="black" d="M361.08,-235.18C364.18,-218.87 365.74,-195.96 355.74,-179.07"/>
<path fill="none" stroke="black" d="M355.74,-177.07C349.45,-166.46 347.48,-162.89 336.74,-156.85 273.07,-121.08 189.27,-108.01 132.66,-103.27"/>
<polygon fill="#26d96e" stroke="black" points="132.66,-99.76 122.42,-102.48 132.12,-106.74 132.66,-99.76"/>
</g>
<!-- ncpol3sdpa_constraints&#45;&gt;ncpol3sdpa_problem -->
<g id="edge5" class="edge">
<title>ncpol3sdpa_constraints&#45;&gt;ncpol3sdpa_problem</title><style>.edge>path:hover{stroke-width:8}</style>
<path fill="none" stroke="black" d="M355.74,-177.07C338.43,-147.84 355.74,-134.61 355.74,-100.64"/>
</g>
<!-- ncpol3sdpa_rules -->
<g id="node8" class="node">
<title>ncpol3sdpa_rules</title><style>.edge>path:hover{stroke-width:8}</style>
<ellipse fill="#2fbc67" stroke="black" cx="274.74" cy="-178.07" rx="53.07" ry="21.43"/>
<text text-anchor="middle" x="274.74" y="-181.07" font-family="Helvetica,sans-Serif" font-size="10.00" fill="#000000">ncpol3sdpa.</text>
<text text-anchor="middle" x="274.74" y="-170.07" font-family="Helvetica,sans-Serif" font-size="10.00" fill="#000000">rules</text>
</g>
<!-- ncpol3sdpa_constraints&#45;&gt;ncpol3sdpa_rules -->
<g id="edge6" class="edge">
<title>ncpol3sdpa_constraints&#45;&gt;ncpol3sdpa_rules</title><style>.edge>path:hover{stroke-width:8}</style>
<path fill="none" stroke="black" d="M335.71,-236.6C325.59,-227.05 313.15,-215.31 302.15,-204.93"/>
<polygon fill="#26d96e" stroke="black" points="304.48,-202.32 294.81,-198.01 299.68,-207.41 304.48,-202.32"/>
</g>
<!-- ncpol3sdpa_funs -->
<g id="node5" class="node">
<title>ncpol3sdpa_funs</title><style>.edge>path:hover{stroke-width:8}</style>
<ellipse fill="#4cb375" stroke="black" cx="193.74" cy="-256.49" rx="53.07" ry="21.43"/>
<text text-anchor="middle" x="193.74" y="-259.49" font-family="Helvetica,sans-Serif" font-size="10.00" fill="#000000">ncpol3sdpa.</text>
<text text-anchor="middle" x="193.74" y="-248.49" font-family="Helvetica,sans-Serif" font-size="10.00" fill="#000000">funs</text>
</g>
<!-- ncpol3sdpa_monomial -->
<g id="node6" class="node">
<title>ncpol3sdpa_monomial</title><style>.edge>path:hover{stroke-width:8}</style>
<ellipse fill="#40c073" stroke="black" cx="150.74" cy="-178.07" rx="53.07" ry="21.43"/>
<text text-anchor="middle" x="150.74" y="-181.07" font-family="Helvetica,sans-Serif" font-size="10.00" fill="#000000">ncpol3sdpa.</text>
<text text-anchor="middle" x="150.74" y="-170.07" font-family="Helvetica,sans-Serif" font-size="10.00" fill="#000000">monomial</text>
</g>
<!-- ncpol3sdpa_monomial&#45;&gt;ncpol3sdpa_algebra -->
<g id="edge7" class="edge">
<title>ncpol3sdpa_monomial&#45;&gt;ncpol3sdpa_algebra</title><style>.edge>path:hover{stroke-width:8}</style>
<path fill="none" stroke="black" d="M130.71,-158.17C120.59,-148.62 108.15,-136.88 97.15,-126.5"/>
<polygon fill="#40c073" stroke="black" points="99.48,-123.9 89.81,-119.58 94.68,-128.99 99.48,-123.9"/>
</g>
<!-- ncpol3sdpa_rules&#45;&gt;ncpol3sdpa_algebra -->
<g id="edge8" class="edge">
<title>ncpol3sdpa_rules&#45;&gt;ncpol3sdpa_algebra</title><style>.edge>path:hover{stroke-width:8}</style>
<path fill="none" stroke="black" d="M237.14,-163.05C203.29,-150.43 153.4,-131.83 116.89,-118.22"/>
<polygon fill="#2fbc67" stroke="black" points="118.04,-114.91 107.44,-114.7 115.59,-121.47 118.04,-114.91"/>
</g>
<!-- ncpol3sdpa_rules&#45;&gt;ncpol3sdpa_problem -->
<g id="edge9" class="edge">
<title>ncpol3sdpa_rules&#45;&gt;ncpol3sdpa_problem</title><style>.edge>path:hover{stroke-width:8}</style>
<path fill="none" stroke="black" d="M308.62,-161.43C330.81,-148.61 355.74,-128.09 355.74,-100.64"/>
<path fill="none" stroke="black" d="M355.74,-98.64C355.74,-83.52 355.74,-66.72 355.74,-52.73"/>
<polygon fill="#2fbc67" stroke="black" points="359.24,-52.65 355.74,-42.65 352.24,-52.65 359.24,-52.65"/>
</g>
<!-- ncpol3sdpa_sdp_repr -->
<g id="node9" class="node">
<title>ncpol3sdpa_sdp_repr</title><style>.edge>path:hover{stroke-width:8}</style>
<ellipse fill="#31c46c" stroke="black" cx="436.74" cy="-178.07" rx="53.07" ry="21.43"/>
<text text-anchor="middle" x="436.74" y="-181.07" font-family="Helvetica,sans-Serif" font-size="10.00" fill="#000000">ncpol3sdpa.</text>
<text text-anchor="middle" x="436.74" y="-170.07" font-family="Helvetica,sans-Serif" font-size="10.00" fill="#000000">sdp_repr</text>
</g>
<!-- ncpol3sdpa_sdp_repr&#45;&gt;ncpol3sdpa_problem -->
<g id="edge10" class="edge">
<title>ncpol3sdpa_sdp_repr&#45;&gt;ncpol3sdpa_problem</title><style>.edge>path:hover{stroke-width:8}</style>
<path fill="none" stroke="black" d="M402.85,-161.43C380.66,-148.61 355.74,-128.09 355.74,-100.64"/>
</g>
<!-- ncpol3sdpa_sdp_repr&#45;&gt;ncpol3sdpa_solver -->
<g id="edge11" class="edge">
<title>ncpol3sdpa_sdp_repr&#45;&gt;ncpol3sdpa_solver</title><style>.edge>path:hover{stroke-width:8}</style>
<path fill="none" stroke="black" d="M436.74,-156.59C436.74,-148.73 436.74,-139.58 436.74,-130.99"/>
<polygon fill="#31c46c" stroke="black" points="440.24,-130.91 436.74,-120.91 433.24,-130.91 440.24,-130.91"/>
</g>
<!-- ncpol3sdpa_solver&#45;&gt;ncpol3sdpa_problem -->
<g id="edge12" class="edge">
<title>ncpol3sdpa_solver&#45;&gt;ncpol3sdpa_problem</title><style>.edge>path:hover{stroke-width:8}</style>
<path fill="none" stroke="black" d="M416.71,-79.75C406.59,-70.19 394.15,-58.45 383.15,-48.08"/>
<polygon fill="#33995c" stroke="black" points="385.48,-45.47 375.81,-41.15 380.68,-50.56 385.48,-45.47"/>
</g>
<!-- numpy -->
<g id="node11" class="node">
<title>numpy</title><style>.edge>path:hover{stroke-width:8}</style>
<polygon fill="blue" stroke="black" points="615.74,-349.71 561.74,-349.71 561.74,-313.71 615.74,-313.71 615.74,-349.71"/>
<text text-anchor="middle" x="588.74" y="-329.21" font-family="Helvetica,sans-Serif" font-size="10.00" fill="white">numpy</text>
</g>
<!-- numpy&#45;&gt;ncpol3sdpa_problem -->
<g id="edge13" class="edge">
<title>numpy&#45;&gt;ncpol3sdpa_problem</title><style>.edge>path:hover{stroke-width:8}</style>
<path fill="none" stroke="black" d="M615.84,-323.26C644.43,-313.61 686.95,-293.58 698.74,-257.49"/>
<path fill="none" stroke="black" d="M698.74,-255.49C742.26,-122.23 521.24,-56.74 412.85,-33.02"/>
<polygon fill="blue" stroke="black" points="413.55,-29.59 403.04,-30.92 412.09,-36.43 413.55,-29.59"/>
</g>
<!-- numpy&#45;&gt;ncpol3sdpa_sdp_repr -->
<g id="edge14" class="edge">
<title>numpy&#45;&gt;ncpol3sdpa_sdp_repr</title><style>.edge>path:hover{stroke-width:8}</style>
<path fill="none" stroke="black" d="M561.65,-320.29C541.13,-311.37 513.25,-296.92 493.74,-277.71 473.7,-257.97 458.33,-229.72 448.63,-208.5"/>
<polygon fill="blue" stroke="black" points="451.81,-207.05 444.58,-199.31 445.41,-209.87 451.81,-207.05"/>
</g>
<!-- numpy&#45;&gt;ncpol3sdpa_solver -->
<g id="edge15" class="edge">
<title>numpy&#45;&gt;ncpol3sdpa_solver</title><style>.edge>path:hover{stroke-width:8}</style>
<path fill="none" stroke="black" d="M587.38,-313.56C585.38,-293.99 580.6,-261.31 569.74,-235.28 558.12,-207.45 547.66,-204.68 531.74,-179.07"/>
</g>
<!-- numpy_typing -->
<g id="node12" class="node">
<title>numpy_typing</title><style>.edge>path:hover{stroke-width:8}</style>
<polygon fill="blue" stroke="black" points="630.24,-421.71 547.24,-421.71 547.24,-385.71 630.24,-385.71 630.24,-421.71"/>
<text text-anchor="middle" x="588.74" y="-401.21" font-family="Helvetica,sans-Serif" font-size="10.00" fill="white">numpy.typing</text>
</g>
<!-- numpy_typing&#45;&gt;ncpol3sdpa_problem -->
<g id="edge16" class="edge">
<title>numpy_typing&#45;&gt;ncpol3sdpa_problem</title><style>.edge>path:hover{stroke-width:8}</style>
<path fill="none" stroke="black" d="M609.14,-385.64C636.78,-360.86 684.34,-311.92 698.74,-257.49"/>
</g>
<!-- numpy_typing&#45;&gt;ncpol3sdpa_sdp_repr -->
<g id="edge17" class="edge">
<title>numpy_typing&#45;&gt;ncpol3sdpa_sdp_repr</title><style>.edge>path:hover{stroke-width:8}</style>
<path fill="none" stroke="black" d="M547.12,-386.57C496.45,-364.02 419.61,-318.83 436.74,-257.49"/>
<path fill="none" stroke="black" d="M436.74,-255.49C438.24,-240.45 438.41,-223.65 438.13,-209.65"/>
<polygon fill="blue" stroke="black" points="441.63,-209.45 437.84,-199.56 434.63,-209.65 441.63,-209.45"/>
</g>
<!-- numpy_typing&#45;&gt;ncpol3sdpa_solver -->
<g id="edge18" class="edge">
<title>numpy_typing&#45;&gt;ncpol3sdpa_solver</title><style>.edge>path:hover{stroke-width:8}</style>
<path fill="none" stroke="black" d="M436.74,-255.49C442.14,-201.57 559.36,-225.69 531.74,-179.07"/>
<path fill="none" stroke="black" d="M531.74,-177.07C518.39,-154.54 495.76,-135.94 475.94,-122.73"/>
<polygon fill="blue" stroke="black" points="477.67,-119.68 467.36,-117.22 473.88,-125.57 477.67,-119.68"/>
</g>
<!-- numpy_typing&#45;&gt;numpy -->
<g id="edge19" class="edge">
<title>numpy_typing&#45;&gt;numpy</title><style>.edge>path:hover{stroke-width:8}</style>
<path fill="none" stroke="black" d="M588.74,-385.4C588.74,-377.69 588.74,-368.42 588.74,-359.82"/>
<polygon fill="blue" stroke="black" points="592.24,-359.81 588.74,-349.81 585.24,-359.81 592.24,-359.81"/>
</g>
<!-- sympy -->
<g id="node13" class="node">
<title>sympy</title><style>.edge>path:hover{stroke-width:8}</style>
<ellipse fill="#c806f9" stroke="black" cx="234.74" cy="-403.71" rx="29.37" ry="18"/>
<text text-anchor="middle" x="234.74" y="-401.21" font-family="Helvetica,sans-Serif" font-size="10.00" fill="#ffffff">sympy</text>
</g>
<!-- sympy&#45;&gt;ncpol3sdpa_algebra -->
<g id="edge20" class="edge">
<title>sympy&#45;&gt;ncpol3sdpa_algebra</title><style>.edge>path:hover{stroke-width:8}</style>
<path fill="none" stroke="black" d="M69.74,-177.07C62.36,-163.21 61.8,-145.84 63.33,-131.17"/>
<polygon fill="#c806f9" stroke="black" points="66.83,-131.43 64.75,-121.04 59.9,-130.46 66.83,-131.43"/>
</g>
<!-- sympy&#45;&gt;ncpol3sdpa_constraints -->
<g id="edge21" class="edge">
<title>sympy&#45;&gt;ncpol3sdpa_constraints</title><style>.edge>path:hover{stroke-width:8}</style>
<path fill="none" stroke="black" d="M234.74,-330.71C234.68,-312.53 275.17,-290.88 309.32,-275.86"/>
<polygon fill="#c806f9" stroke="black" points="310.94,-278.98 318.75,-271.81 308.18,-272.55 310.94,-278.98"/>
</g>
<!-- sympy&#45;&gt;ncpol3sdpa_funs -->
<g id="edge22" class="edge">
<title>sympy&#45;&gt;ncpol3sdpa_funs</title><style>.edge>path:hover{stroke-width:8}</style>
<path fill="none" stroke="black" d="M234.74,-330.71C234.68,-314.09 226.54,-297.76 217.53,-284.74"/>
<polygon fill="#c806f9" stroke="black" points="220.33,-282.64 211.56,-276.7 214.71,-286.82 220.33,-282.64"/>
</g>
<!-- sympy&#45;&gt;ncpol3sdpa_monomial -->
<g id="edge23" class="edge">
<title>sympy&#45;&gt;ncpol3sdpa_monomial</title><style>.edge>path:hover{stroke-width:8}</style>
<path fill="none" stroke="black" d="M112.74,-255.49C103.4,-239.37 112.39,-220.65 123.97,-205.78"/>
<polygon fill="#c806f9" stroke="black" points="126.8,-207.85 130.57,-197.95 121.45,-203.34 126.8,-207.85"/>
</g>
<!-- sympy&#45;&gt;ncpol3sdpa_problem -->
<g id="edge24" class="edge">
<title>sympy&#45;&gt;ncpol3sdpa_problem</title><style>.edge>path:hover{stroke-width:8}</style>
<path fill="none" stroke="black" d="M234.99,-385.44C235.14,-371.27 235.21,-350.69 234.74,-332.71"/>
<path fill="none" stroke="black" d="M234.74,-330.71C233.37,-279.24 172.85,-308.69 131.74,-277.71 121.89,-270.29 118.92,-268.16 112.74,-257.49"/>
<path fill="none" stroke="black" d="M112.74,-255.49C93.2,-221.77 88.05,-213.47 69.74,-179.07"/>
<path fill="none" stroke="black" d="M69.74,-177.07C52.26,-144.23 22.81,-154.86 7.74,-120.85 0.1,-103.61 -4.49,-92.78 7.74,-78.43 43.6,-36.31 202.35,-25.64 292.55,-23.01"/>
<polygon fill="#c806f9" stroke="black" points="292.76,-26.51 302.66,-22.74 292.57,-19.51 292.76,-26.51"/>
</g>
<!-- sympy&#45;&gt;ncpol3sdpa_rules -->
<g id="edge25" class="edge">
<title>sympy&#45;&gt;ncpol3sdpa_rules</title><style>.edge>path:hover{stroke-width:8}</style>
<path fill="none" stroke="black" d="M234.74,-330.71C234.65,-305.37 248.64,-302.03 255.74,-277.71 262.32,-255.14 267.23,-229 270.42,-209.29"/>
<polygon fill="#c806f9" stroke="black" points="273.88,-209.77 271.96,-199.35 266.97,-208.7 273.88,-209.77"/>
</g>
</g>
</svg>
